<svg xmlns="http://www.w3.org/2000/svg" xmlns:xlink="http://www.w3.org/1999/xlink" zoomAndPan="magnify" viewBox="219.688 18.395 196.855 282.098" preserveAspectRatio="xMidYMid meet" version="1.0"><defs><g/><clipPath id="ba06ce203b"><path d="M 8.6875 9.394531 L 199.542969 9.394531 L 199.542969 285.988281 L 8.6875 285.988281 Z M 8.6875 9.394531 " clip-rule="nonzero"/></clipPath><clipPath id="6d77050b6a"><path d="M 36.421875 9.394531 L 171.808594 9.394531 C 179.164062 9.394531 186.21875 12.316406 191.421875 17.515625 C 196.621094 22.71875 199.542969 29.773438 199.542969 37.128906 L 199.542969 257.765625 C 199.542969 265.121094 196.621094 272.175781 191.421875 277.375 C 186.21875 282.578125 179.164062 285.5 171.808594 285.5 L 36.421875 285.5 C 29.066406 285.5 22.011719 282.578125 16.8125 277.375 C 11.609375 272.175781 8.6875 265.121094 8.6875 257.765625 L 8.6875 37.128906 C 8.6875 29.773438 11.609375 22.71875 16.8125 17.515625 C 22.011719 12.316406 29.066406 9.394531 36.421875 9.394531 Z M 36.421875 9.394531 " clip-rule="nonzero"/></clipPath><clipPath id="0999e9be2c"><path d="M 0.6875 0.394531 L 191.542969 0.394531 L 191.542969 276.589844 L 0.6875 276.589844 Z M 0.6875 0.394531 " clip-rule="nonzero"/></clipPath><clipPath id="89d905bf8f"><path d="M 28.421875 0.394531 L 163.808594 0.394531 C 171.164062 0.394531 178.21875 3.316406 183.421875 8.515625 C 188.621094 13.71875 191.542969 20.773438 191.542969 28.128906 L 191.542969 248.765625 C 191.542969 256.121094 188.621094 263.175781 183.421875 268.375 C 178.21875 273.578125 171.164062 276.5 163.808594 276.5 L 28.421875 276.5 C 21.066406 276.5 14.011719 273.578125 8.8125 268.375 C 3.609375 263.175781 0.6875 256.121094 0.6875 248.765625 L 0.6875 28.128906 C 0.6875 20.773438 3.609375 13.71875 8.8125 8.515625 C 14.011719 3.316406 21.066406 0.394531 28.421875 0.394531 Z M 28.421875 0.394531 " clip-rule="nonzero"/></clipPath><clipPath id="0db86aa28f"><rect x="0" width="192" y="0" height="277"/></clipPath><clipPath id="0134cbb049"><path d="M 8.6875 9.398438 L 199.839844 9.398438 L 199.839844 285.25 L 8.6875 285.25 Z M 8.6875 9.398438 " clip-rule="nonzero"/></clipPath><clipPath id="1e422c5206"><path d="M 36.421875 9.398438 L 171.800781 9.398438 C 179.15625 9.398438 186.210938 12.320312 191.410156 17.523438 C 196.613281 22.722656 199.535156 29.777344 199.535156 37.132812 L 199.535156 257.757812 C 199.535156 265.113281 196.613281 272.167969 191.410156 277.367188 C 186.210938 282.570312 179.15625 285.492188 171.800781 285.492188 L 36.421875 285.492188 C 29.066406 285.492188 22.011719 282.570312 16.8125 277.367188 C 11.609375 272.167969 8.6875 265.113281 8.6875 257.757812 L 8.6875 37.132812 C 8.6875 29.777344 11.609375 22.722656 16.8125 17.523438 C 22.011719 12.320312 29.066406 9.398438 36.421875 9.398438 Z M 36.421875 9.398438 " clip-rule="nonzero"/></clipPath><clipPath id="2afa57c742"><rect x="0" width="207" y="0" height="294"/></clipPath></defs><g transform="matrix(1, 0, 0, 1, 214, 12)"><g clip-path="url(#2afa57c742)"><g clip-path="url(#ba06ce203b)"><g clip-path="url(#6d77050b6a)"><g transform="matrix(1, 0, 0, 1, 8, 9)"><g clip-path="url(#0db86aa28f)"><g clip-path="url(#0999e9be2c)"><g clip-path="url(#89d905bf8f)"><path fill="var(--c3)" d="M 0.6875 0.394531 L 191.542969 0.394531 L 191.542969 276.242188 L 0.6875 276.242188 Z M 0.6875 0.394531 " fill-opacity="1" fill-rule="nonzero"/></g></g></g></g></g></g><g clip-path="url(#0134cbb049)"><g clip-path="url(#1e422c5206)"><path stroke-linecap="butt" transform="matrix(0.749615, 0, 0, 0.749615, 8.687368, 9.393419)" fill="none" stroke-linejoin="miter" d="M 36.998323 0.00669497 L 217.596178 0.00669497 C 227.408504 0.00669497 236.819582 3.904528 243.755431 10.845589 C 250.696492 17.781438 254.594325 27.192516 254.594325 37.004842 L 254.594325 331.322494 C 254.594325 341.134819 250.696492 350.545897 243.755431 357.481747 C 236.819582 364.422807 227.408504 368.32064 217.596178 368.32064 L 36.998323 368.32064 C 27.185998 368.32064 17.77492 364.422807 10.83907 357.481747 C 3.898009 350.545897 0.000176386 341.134819 0.000176386 331.322494 L 0.000176386 37.004842 C 0.000176386 27.192516 3.898009 17.781438 10.83907 10.845589 C 17.77492 3.904528 27.185998 0.00669497 36.998323 0.00669497 Z M 36.998323 0.00669497 " stroke="#5100ad" stroke-width="4" stroke-opacity="1" stroke-miterlimit="4"/></g></g><g fill="var(--c4)" fill-opacity="1"><g transform="translate(55.999163, 145.5538)"><g><path d="M 10.8125 -22.359375 C 11.925781 -21.484375 12.769531 -20.1875 13.34375 -18.46875 C 13.925781 -16.75 14.21875 -14.675781 14.21875 -12.25 C 14.21875 -7.25 13.117188 -3.703125 10.921875 -1.609375 C 10.503906 -1.234375 9.914062 -0.867188 9.15625 -0.515625 C 8.40625 -0.171875 7.421875 0 6.203125 0 L 0.421875 0 C 0.140625 0 0 -0.140625 0 -0.421875 C 0 -0.710938 0.140625 -0.859375 0.421875 -0.859375 L 6.203125 -0.859375 C 7.265625 -0.859375 8.132812 -1.007812 8.8125 -1.3125 C 9.488281 -1.613281 9.992188 -1.910156 10.328125 -2.203125 C 12.359375 -4.160156 13.375 -7.507812 13.375 -12.25 C 13.375 -13.300781 13.296875 -14.429688 13.140625 -15.640625 C 12.984375 -16.859375 12.679688 -18 12.234375 -19.0625 C 11.785156 -20.125 11.140625 -20.992188 10.296875 -21.671875 C 9.503906 -22.296875 8.648438 -22.675781 7.734375 -22.8125 C 6.816406 -22.945312 5.757812 -23.015625 4.5625 -23.015625 L 0.859375 -23.015625 L 0.859375 -6.515625 C 0.859375 -5.753906 0.984375 -5.289062 1.234375 -5.125 C 1.484375 -4.96875 1.828125 -4.890625 2.265625 -4.890625 L 6.0625 -4.890625 C 6.414062 -4.890625 6.800781 -4.953125 7.21875 -5.078125 C 7.644531 -5.210938 7.957031 -5.5625 8.15625 -6.125 C 8.289062 -6.539062 8.394531 -7.101562 8.46875 -7.8125 C 8.550781 -8.53125 8.601562 -9.257812 8.625 -10 C 8.644531 -10.738281 8.65625 -11.335938 8.65625 -11.796875 C 8.65625 -13.609375 8.585938 -15.007812 8.453125 -16 C 8.328125 -17 8.140625 -17.707031 7.890625 -18.125 C 7.648438 -18.539062 7.375 -18.789062 7.0625 -18.875 C 6.75 -18.96875 6.414062 -19.015625 6.0625 -19.015625 L 5.203125 -19.015625 L 5.203125 -7.25 C 5.203125 -6.976562 5.0625 -6.84375 4.78125 -6.84375 C 4.5 -6.84375 4.359375 -6.976562 4.359375 -7.25 L 4.359375 -19.4375 C 4.359375 -19.5625 4.394531 -19.664062 4.46875 -19.75 C 4.550781 -19.84375 4.65625 -19.890625 4.78125 -19.890625 L 6.0625 -19.890625 C 6.675781 -19.890625 7.195312 -19.789062 7.625 -19.59375 C 8.050781 -19.394531 8.410156 -19.015625 8.703125 -18.453125 C 8.992188 -17.890625 9.203125 -17.070312 9.328125 -16 C 9.460938 -14.925781 9.53125 -13.523438 9.53125 -11.796875 C 9.53125 -11.753906 9.523438 -11.507812 9.515625 -11.0625 C 9.503906 -10.613281 9.484375 -10.066406 9.453125 -9.421875 C 9.421875 -8.773438 9.363281 -8.128906 9.28125 -7.484375 C 9.207031 -6.835938 9.097656 -6.296875 8.953125 -5.859375 C 8.816406 -5.429688 8.539062 -5.019531 8.125 -4.625 C 7.707031 -4.226562 7.019531 -4.03125 6.0625 -4.03125 L 2.265625 -4.03125 C 1.910156 -4.03125 1.554688 -4.082031 1.203125 -4.1875 C 0.859375 -4.300781 0.570312 -4.53125 0.34375 -4.875 C 0.113281 -5.226562 0 -5.773438 0 -6.515625 L 0 -23.46875 C 0 -23.75 0.140625 -23.890625 0.421875 -23.890625 L 4.5625 -23.890625 C 5.820312 -23.890625 6.953125 -23.8125 7.953125 -23.65625 C 8.960938 -23.507812 9.914062 -23.078125 10.8125 -22.359375 Z M 10.8125 -22.359375 "/></g></g></g><g fill="var(--c4)" fill-opacity="1"><g transform="translate(73.196057, 145.5538)"><g><path d="M 16.515625 -0.53125 C 16.515625 -0.53125 16.507812 -0.476562 16.5 -0.375 C 16.488281 -0.28125 16.460938 -0.210938 16.421875 -0.171875 C 16.335938 -0.0546875 16.226562 0 16.09375 0 L 11.640625 0 C 11.597656 0 11.5625 -0.015625 11.53125 -0.046875 C 11.507812 -0.078125 11.488281 -0.09375 11.46875 -0.09375 C 11.425781 -0.132812 11.394531 -0.179688 11.375 -0.234375 C 11.375 -0.253906 11.363281 -0.273438 11.34375 -0.296875 C 11.320312 -0.316406 11.3125 -0.335938 11.3125 -0.359375 L 10.6875 -3.640625 L 10.453125 -4.953125 L 8.5625 -4.953125 C 8.289062 -4.953125 8.15625 -5.101562 8.15625 -5.40625 C 8.15625 -5.6875 8.289062 -5.828125 8.5625 -5.828125 L 10.78125 -5.828125 C 10.875 -5.847656 10.972656 -5.820312 11.078125 -5.75 C 11.179688 -5.675781 11.238281 -5.582031 11.25 -5.46875 L 11.53125 -3.828125 L 12.09375 -0.859375 L 15.5625 -0.859375 L 13.59375 -9.015625 L 10.21875 -23.015625 L 6.265625 -23.015625 L 2.921875 -9.015625 L 0.984375 -0.859375 L 4.484375 -0.859375 L 5.671875 -7.4375 C 5.796875 -8.09375 6.023438 -8.609375 6.359375 -8.984375 C 6.703125 -9.367188 7.3125 -9.5625 8.1875 -9.5625 L 9.609375 -9.5625 L 8.265625 -16.78125 L 7.34375 -11.734375 C 7.28125 -11.453125 7.113281 -11.34375 6.84375 -11.40625 C 6.539062 -11.46875 6.421875 -11.628906 6.484375 -11.890625 L 7.828125 -19.234375 C 7.867188 -19.453125 8.015625 -19.5625 8.265625 -19.5625 C 8.503906 -19.5625 8.632812 -19.453125 8.65625 -19.234375 L 10.546875 -9.21875 L 10.546875 -9.015625 C 10.546875 -8.992188 10.53125 -8.96875 10.5 -8.9375 C 10.46875 -8.90625 10.453125 -8.882812 10.453125 -8.875 C 10.429688 -8.832031 10.378906 -8.789062 10.296875 -8.75 C 10.242188 -8.707031 10.195312 -8.6875 10.15625 -8.6875 L 8.265625 -8.6875 C 8.265625 -8.6875 8.253906 -8.691406 8.234375 -8.703125 C 8.222656 -8.710938 8.21875 -8.71875 8.21875 -8.71875 C 8.21875 -8.71875 8.210938 -8.710938 8.203125 -8.703125 C 8.191406 -8.691406 8.1875 -8.6875 8.1875 -8.6875 C 7.582031 -8.6875 7.171875 -8.585938 6.953125 -8.390625 C 6.734375 -8.191406 6.585938 -7.8125 6.515625 -7.25 L 5.21875 -0.359375 C 5.21875 -0.335938 5.210938 -0.316406 5.203125 -0.296875 C 5.203125 -0.273438 5.203125 -0.253906 5.203125 -0.234375 C 5.179688 -0.160156 5.140625 -0.113281 5.078125 -0.09375 C 5.015625 -0.03125 4.960938 0 4.921875 0 L 0.421875 0 C 0.273438 0 0.164062 -0.0546875 0.09375 -0.171875 C 0.0078125 -0.273438 -0.0195312 -0.394531 0 -0.53125 L 2.09375 -9.21875 L 5.53125 -23.5625 C 5.582031 -23.78125 5.71875 -23.890625 5.9375 -23.890625 L 10.5625 -23.890625 C 10.769531 -23.890625 10.898438 -23.78125 10.953125 -23.5625 L 14.421875 -9.21875 Z M 16.515625 -0.53125 "/></g></g></g><g fill="var(--c4)" fill-opacity="1"><g transform="translate(92.064877, 145.5538)"><g><path d="M 3.828125 -23.015625 L 0.859375 -23.015625 L 0.859375 -0.859375 L 4.453125 -0.859375 L 4.453125 -15.203125 C 4.453125 -15.242188 4.460938 -15.289062 4.484375 -15.34375 C 4.515625 -15.40625 4.550781 -15.445312 4.59375 -15.46875 C 4.632812 -15.488281 4.664062 -15.507812 4.6875 -15.53125 C 4.707031 -15.550781 4.726562 -15.5625 4.75 -15.5625 L 4.921875 -15.5625 C 4.960938 -15.5625 5.015625 -15.539062 5.078125 -15.5 C 5.140625 -15.476562 5.179688 -15.4375 5.203125 -15.375 L 5.25 -15.34375 L 11.890625 -2.6875 L 12.359375 -1.9375 C 12.578125 -1.582031 12.835938 -1.3125 13.140625 -1.125 C 13.441406 -0.945312 13.925781 -0.859375 14.59375 -0.859375 L 16.09375 -0.859375 C 16.375 -0.859375 16.515625 -0.710938 16.515625 -0.421875 C 16.515625 -0.140625 16.375 0 16.09375 0 L 14.59375 0 C 13.882812 0 13.296875 -0.113281 12.828125 -0.34375 C 12.359375 -0.570312 11.953125 -0.957031 11.609375 -1.5 L 11.140625 -2.203125 L 11.140625 -2.234375 L 5.3125 -13.40625 L 5.3125 -0.421875 C 5.3125 -0.140625 5.160156 0 4.859375 0 L 0.421875 0 C 0.296875 0 0.195312 -0.0390625 0.125 -0.125 C 0.0390625 -0.195312 0 -0.296875 0 -0.421875 L 0 -23.46875 C 0 -23.75 0.140625 -23.890625 0.421875 -23.890625 L 3.828125 -23.890625 C 4.597656 -23.890625 5.1875 -23.726562 5.59375 -23.40625 C 6 -23.09375 6.363281 -22.664062 6.6875 -22.125 L 15.671875 -5.859375 L 15.671875 -23.015625 L 11.9375 -23.015625 L 11.9375 -18 C 11.9375 -17.726562 11.800781 -17.59375 11.53125 -17.59375 C 11.226562 -17.59375 11.078125 -17.726562 11.078125 -18 L 11.078125 -23.46875 C 11.078125 -23.75 11.226562 -23.890625 11.53125 -23.890625 L 16.09375 -23.890625 C 16.375 -23.890625 16.515625 -23.75 16.515625 -23.46875 L 16.515625 -4.125 C 16.515625 -4.082031 16.492188 -4.03125 16.453125 -3.96875 C 16.429688 -3.90625 16.390625 -3.867188 16.328125 -3.859375 C 16.304688 -3.835938 16.285156 -3.816406 16.265625 -3.796875 C 16.253906 -3.773438 16.226562 -3.765625 16.1875 -3.765625 L 16.0625 -3.765625 C 16 -3.765625 15.941406 -3.785156 15.890625 -3.828125 C 15.804688 -3.859375 15.753906 -3.894531 15.734375 -3.9375 L 15.703125 -4 L 5.9375 -21.703125 C 5.675781 -22.179688 5.398438 -22.519531 5.109375 -22.71875 C 4.828125 -22.914062 4.398438 -23.015625 3.828125 -23.015625 Z M 3.828125 -23.015625 "/></g></g></g><g fill="var(--c4)" fill-opacity="1"><g transform="translate(111.530806, 145.5538)"><g><path d="M 16.515625 -0.53125 C 16.515625 -0.53125 16.507812 -0.476562 16.5 -0.375 C 16.488281 -0.28125 16.460938 -0.210938 16.421875 -0.171875 C 16.335938 -0.0546875 16.226562 0 16.09375 0 L 11.640625 0 C 11.597656 0 11.5625 -0.015625 11.53125 -0.046875 C 11.507812 -0.078125 11.488281 -0.09375 11.46875 -0.09375 C 11.425781 -0.132812 11.394531 -0.179688 11.375 -0.234375 C 11.375 -0.253906 11.363281 -0.273438 11.34375 -0.296875 C 11.320312 -0.316406 11.3125 -0.335938 11.3125 -0.359375 L 10.6875 -3.640625 L 10.453125 -4.953125 L 8.5625 -4.953125 C 8.289062 -4.953125 8.15625 -5.101562 8.15625 -5.40625 C 8.15625 -5.6875 8.289062 -5.828125 8.5625 -5.828125 L 10.78125 -5.828125 C 10.875 -5.847656 10.972656 -5.820312 11.078125 -5.75 C 11.179688 -5.675781 11.238281 -5.582031 11.25 -5.46875 L 11.53125 -3.828125 L 12.09375 -0.859375 L 15.5625 -0.859375 L 13.59375 -9.015625 L 10.21875 -23.015625 L 6.265625 -23.015625 L 2.921875 -9.015625 L 0.984375 -0.859375 L 4.484375 -0.859375 L 5.671875 -7.4375 C 5.796875 -8.09375 6.023438 -8.609375 6.359375 -8.984375 C 6.703125 -9.367188 7.3125 -9.5625 8.1875 -9.5625 L 9.609375 -9.5625 L 8.265625 -16.78125 L 7.34375 -11.734375 C 7.28125 -11.453125 7.113281 -11.34375 6.84375 -11.40625 C 6.539062 -11.46875 6.421875 -11.628906 6.484375 -11.890625 L 7.828125 -19.234375 C 7.867188 -19.453125 8.015625 -19.5625 8.265625 -19.5625 C 8.503906 -19.5625 8.632812 -19.453125 8.65625 -19.234375 L 10.546875 -9.21875 L 10.546875 -9.015625 C 10.546875 -8.992188 10.53125 -8.96875 10.5 -8.9375 C 10.46875 -8.90625 10.453125 -8.882812 10.453125 -8.875 C 10.429688 -8.832031 10.378906 -8.789062 10.296875 -8.75 C 10.242188 -8.707031 10.195312 -8.6875 10.15625 -8.6875 L 8.265625 -8.6875 C 8.265625 -8.6875 8.253906 -8.691406 8.234375 -8.703125 C 8.222656 -8.710938 8.21875 -8.71875 8.21875 -8.71875 C 8.21875 -8.71875 8.210938 -8.710938 8.203125 -8.703125 C 8.191406 -8.691406 8.1875 -8.6875 8.1875 -8.6875 C 7.582031 -8.6875 7.171875 -8.585938 6.953125 -8.390625 C 6.734375 -8.191406 6.585938 -7.8125 6.515625 -7.25 L 5.21875 -0.359375 C 5.21875 -0.335938 5.210938 -0.316406 5.203125 -0.296875 C 5.203125 -0.273438 5.203125 -0.253906 5.203125 -0.234375 C 5.179688 -0.160156 5.140625 -0.113281 5.078125 -0.09375 C 5.015625 -0.03125 4.960938 0 4.921875 0 L 0.421875 0 C 0.273438 0 0.164062 -0.0546875 0.09375 -0.171875 C 0.0078125 -0.273438 -0.0195312 -0.394531 0 -0.53125 L 2.09375 -9.21875 L 5.53125 -23.5625 C 5.582031 -23.78125 5.71875 -23.890625 5.9375 -23.890625 L 10.5625 -23.890625 C 10.769531 -23.890625 10.898438 -23.78125 10.953125 -23.5625 L 14.421875 -9.21875 Z M 16.515625 -0.53125 "/></g></g></g><g fill="var(--c4)" fill-opacity="1"><g transform="translate(130.399624, 145.5538)"><g><path d="M 4.65625 -21.3125 L 4.859375 -20.984375 C 4.609375 -19.929688 4.238281 -18.769531 3.75 -17.5 C 3.257812 -16.226562 2.773438 -15.0625 2.296875 -14 L 0.359375 -14 C 0.554688 -14.738281 0.75 -15.546875 0.9375 -16.421875 C 1.125 -17.296875 1.296875 -18.15625 1.453125 -19 C 1.617188 -19.851562 1.75 -20.625 1.84375 -21.3125 Z M 4.65625 -21.3125 "/></g></g></g><g fill="var(--c4)" fill-opacity="1"><g transform="translate(135.624374, 145.5538)"><g><path d="M 6.75 0 C 5.476562 0 4.4375 -0.210938 3.625 -0.640625 C 2.820312 -1.066406 2.179688 -1.601562 1.703125 -2.25 C 1.222656 -2.894531 0.859375 -3.566406 0.609375 -4.265625 C 0.359375 -4.960938 0.164062 -5.582031 0.03125 -6.125 L 0 -6.203125 C -0.0625 -6.441406 0.0234375 -6.613281 0.265625 -6.71875 L 3.859375 -8.15625 C 3.953125 -8.195312 4.066406 -8.1875 4.203125 -8.125 C 4.328125 -8.082031 4.398438 -7.984375 4.421875 -7.828125 C 4.554688 -7.171875 4.738281 -6.578125 4.96875 -6.046875 C 5.195312 -5.515625 5.59375 -5.160156 6.15625 -4.984375 C 6.769531 -4.804688 7.285156 -4.882812 7.703125 -5.21875 C 8.179688 -5.582031 8.421875 -6.113281 8.421875 -6.8125 C 8.421875 -7.425781 8.269531 -7.882812 7.96875 -8.1875 C 7.675781 -8.5 7.328125 -8.753906 6.921875 -8.953125 C 6.679688 -9.078125 6.625 -9.269531 6.75 -9.53125 C 6.84375 -9.78125 7.03125 -9.847656 7.3125 -9.734375 C 7.769531 -9.492188 8.210938 -9.160156 8.640625 -8.734375 C 9.066406 -8.304688 9.28125 -7.664062 9.28125 -6.8125 C 9.28125 -5.832031 8.925781 -5.070312 8.21875 -4.53125 C 7.570312 -4.039062 6.800781 -3.914062 5.90625 -4.15625 C 5.175781 -4.375 4.65625 -4.789062 4.34375 -5.40625 C 4.03125 -6.019531 3.804688 -6.597656 3.671875 -7.140625 L 0.953125 -6.03125 C 1.097656 -5.53125 1.285156 -4.984375 1.515625 -4.390625 C 1.753906 -3.796875 2.078125 -3.226562 2.484375 -2.6875 C 2.898438 -2.144531 3.453125 -1.703125 4.140625 -1.359375 C 4.828125 -1.023438 5.695312 -0.859375 6.75 -0.859375 C 7.976562 -0.859375 9.03125 -1.070312 9.90625 -1.5 C 10.789062 -1.914062 11.492188 -2.597656 12.015625 -3.546875 C 12.546875 -4.503906 12.789062 -5.539062 12.75 -6.65625 C 12.707031 -7.675781 12.441406 -8.5625 11.953125 -9.3125 C 11.472656 -10.070312 10.8125 -10.609375 9.96875 -10.921875 C 9.53125 -11.109375 9.070312 -11.265625 8.59375 -11.390625 C 8.125 -11.515625 7.640625 -11.640625 7.140625 -11.765625 C 6.203125 -11.960938 5.285156 -12.203125 4.390625 -12.484375 C 3.492188 -12.773438 2.71875 -13.234375 2.0625 -13.859375 C 1.40625 -14.492188 0.96875 -15.410156 0.75 -16.609375 C 0.53125 -17.773438 0.582031 -18.769531 0.90625 -19.59375 C 1.238281 -20.425781 1.59375 -21.082031 1.96875 -21.5625 C 2.582031 -22.289062 3.335938 -22.859375 4.234375 -23.265625 C 5.128906 -23.679688 6.066406 -23.890625 7.046875 -23.890625 C 8.597656 -23.890625 9.910156 -23.425781 10.984375 -22.5 C 12.054688 -21.570312 12.832031 -20.242188 13.3125 -18.515625 C 13.375 -18.296875 13.296875 -18.125 13.078125 -18 L 9.734375 -16.421875 C 9.617188 -16.378906 9.5 -16.378906 9.375 -16.421875 C 9.257812 -16.484375 9.179688 -16.582031 9.140625 -16.71875 C 9.054688 -17.132812 8.914062 -17.554688 8.71875 -17.984375 C 8.519531 -18.410156 8.210938 -18.71875 7.796875 -18.90625 C 7.410156 -19.0625 7.039062 -19.054688 6.6875 -18.890625 C 6.332031 -18.734375 6.054688 -18.46875 5.859375 -18.09375 C 5.640625 -17.632812 5.59375 -17.179688 5.71875 -16.734375 C 5.84375 -16.285156 6.125 -15.90625 6.5625 -15.59375 C 6.800781 -15.40625 6.84375 -15.203125 6.6875 -14.984375 C 6.601562 -14.910156 6.5 -14.863281 6.375 -14.84375 C 6.257812 -14.820312 6.15625 -14.84375 6.0625 -14.90625 C 5.445312 -15.34375 5.046875 -15.890625 4.859375 -16.546875 C 4.679688 -17.203125 4.753906 -17.835938 5.078125 -18.453125 C 5.359375 -19.046875 5.789062 -19.457031 6.375 -19.6875 C 6.957031 -19.914062 7.539062 -19.910156 8.125 -19.671875 C 8.625 -19.472656 9 -19.164062 9.25 -18.75 C 9.507812 -18.332031 9.710938 -17.894531 9.859375 -17.4375 L 12.390625 -18.625 C 12.171875 -19.320312 11.851562 -20.007812 11.4375 -20.6875 C 11.019531 -21.363281 10.457031 -21.921875 9.75 -22.359375 C 9.039062 -22.796875 8.140625 -23.015625 7.046875 -23.015625 C 6.191406 -23.015625 5.375 -22.835938 4.59375 -22.484375 C 3.820312 -22.140625 3.175781 -21.648438 2.65625 -21.015625 C 2.320312 -20.617188 2.015625 -20.066406 1.734375 -19.359375 C 1.453125 -18.648438 1.410156 -17.789062 1.609375 -16.78125 C 1.785156 -15.769531 2.15625 -15 2.71875 -14.46875 C 3.289062 -13.9375 3.976562 -13.539062 4.78125 -13.28125 C 5.59375 -13.03125 6.445312 -12.800781 7.34375 -12.59375 C 7.84375 -12.476562 8.34375 -12.351562 8.84375 -12.21875 C 9.351562 -12.09375 9.847656 -11.941406 10.328125 -11.765625 C 11.304688 -11.367188 12.085938 -10.722656 12.671875 -9.828125 C 13.265625 -8.929688 13.578125 -7.882812 13.609375 -6.6875 C 13.648438 -5.394531 13.367188 -4.195312 12.765625 -3.09375 C 12.160156 -1.988281 11.335938 -1.1875 10.296875 -0.6875 C 9.679688 -0.382812 9.03125 -0.191406 8.34375 -0.109375 C 7.65625 -0.0351562 7.125 0 6.75 0 Z M 6.75 0 "/></g></g></g><g fill="var(--c4)" fill-opacity="1"><g transform="translate(37.094805, 167.29264)"><g><path d="M 7.109375 0 L 0.421875 0 C 0.140625 0 0 -0.140625 0 -0.421875 L 0 -16.984375 C 0 -17.265625 0.140625 -17.40625 0.421875 -17.40625 C 0.710938 -17.40625 0.859375 -17.265625 0.859375 -16.984375 L 0.859375 -0.859375 L 7.109375 -0.859375 C 7.460938 -0.859375 7.921875 -0.875 8.484375 -0.90625 C 9.054688 -0.9375 9.625 -1.046875 10.1875 -1.234375 C 10.757812 -1.421875 11.242188 -1.738281 11.640625 -2.1875 C 12.003906 -2.5625 12.351562 -3.101562 12.6875 -3.8125 C 13.03125 -4.53125 13.203125 -5.46875 13.203125 -6.625 C 13.203125 -7.695312 13.085938 -8.566406 12.859375 -9.234375 C 12.628906 -9.898438 12.34375 -10.421875 12 -10.796875 C 11.664062 -11.179688 11.332031 -11.460938 11 -11.640625 C 10.675781 -11.816406 10.414062 -11.945312 10.21875 -12.03125 C 10.007812 -12.09375 9.90625 -12.222656 9.90625 -12.421875 C 9.90625 -12.617188 9.988281 -12.757812 10.15625 -12.84375 C 10.445312 -12.957031 10.78125 -13.15625 11.15625 -13.4375 C 11.539062 -13.71875 11.875 -14.164062 12.15625 -14.78125 C 12.445312 -15.394531 12.59375 -16.300781 12.59375 -17.5 C 12.59375 -18.65625 12.441406 -19.546875 12.140625 -20.171875 C 11.847656 -20.796875 11.570312 -21.269531 11.3125 -21.59375 C 10.9375 -22.070312 10.53125 -22.410156 10.09375 -22.609375 C 9.65625 -22.804688 9.128906 -22.921875 8.515625 -22.953125 C 7.910156 -22.992188 7.179688 -23.015625 6.328125 -23.015625 L 0.859375 -23.015625 L 0.859375 -20.1875 L 6.328125 -20.1875 C 7.222656 -20.1875 7.914062 -19.890625 8.40625 -19.296875 C 8.894531 -18.710938 9.140625 -17.894531 9.140625 -16.84375 C 9.140625 -16.644531 9.125 -16.367188 9.09375 -16.015625 C 9.0625 -15.671875 8.960938 -15.320312 8.796875 -14.96875 C 8.628906 -14.625 8.347656 -14.332031 7.953125 -14.09375 C 7.566406 -13.851562 7.023438 -13.734375 6.328125 -13.734375 L 4.125 -13.734375 C 4.0625 -13.734375 3.96875 -13.707031 3.84375 -13.65625 C 3.726562 -13.613281 3.671875 -13.5 3.671875 -13.3125 L 3.671875 -11.078125 C 3.671875 -10.796875 3.820312 -10.65625 4.125 -10.65625 L 6.265625 -10.65625 C 6.921875 -10.65625 7.46875 -10.59375 7.90625 -10.46875 C 8.34375 -10.351562 8.710938 -10.03125 9.015625 -9.5 C 9.140625 -9.28125 9.253906 -8.992188 9.359375 -8.640625 C 9.472656 -8.296875 9.53125 -7.875 9.53125 -7.375 C 9.53125 -6.144531 9.285156 -5.25 8.796875 -4.6875 C 8.304688 -4.132812 7.523438 -3.859375 6.453125 -3.859375 L 3.25 -3.859375 C 2.957031 -3.859375 2.8125 -3.984375 2.8125 -4.234375 C 2.8125 -4.535156 2.957031 -4.6875 3.25 -4.6875 L 6.453125 -4.6875 C 7.179688 -4.6875 7.726562 -4.851562 8.09375 -5.1875 C 8.46875 -5.53125 8.65625 -6.257812 8.65625 -7.375 C 8.65625 -7.769531 8.613281 -8.113281 8.53125 -8.40625 C 8.457031 -8.695312 8.367188 -8.929688 8.265625 -9.109375 C 8.085938 -9.410156 7.867188 -9.601562 7.609375 -9.6875 C 7.347656 -9.78125 6.898438 -9.828125 6.265625 -9.828125 L 4.125 -9.828125 C 3.757812 -9.828125 3.445312 -9.945312 3.1875 -10.1875 C 2.9375 -10.425781 2.8125 -10.722656 2.8125 -11.078125 L 2.8125 -13.3125 C 2.8125 -13.726562 2.941406 -14.046875 3.203125 -14.265625 C 3.472656 -14.484375 3.78125 -14.59375 4.125 -14.59375 L 6.328125 -14.59375 C 6.921875 -14.59375 7.359375 -14.703125 7.640625 -14.921875 C 7.921875 -15.148438 8.097656 -15.429688 8.171875 -15.765625 C 8.253906 -16.097656 8.296875 -16.457031 8.296875 -16.84375 C 8.296875 -18.507812 7.640625 -19.34375 6.328125 -19.34375 L 0.421875 -19.34375 C 0.140625 -19.34375 0 -19.484375 0 -19.765625 L 0 -23.46875 C 0 -23.75 0.140625 -23.890625 0.421875 -23.890625 L 6.328125 -23.890625 C 7.222656 -23.890625 8.007812 -23.863281 8.6875 -23.8125 C 9.363281 -23.757812 9.960938 -23.613281 10.484375 -23.375 C 11.015625 -23.132812 11.519531 -22.726562 12 -22.15625 C 12.957031 -21 13.4375 -19.445312 13.4375 -17.5 C 13.4375 -16.425781 13.332031 -15.5625 13.125 -14.90625 C 12.914062 -14.25 12.644531 -13.726562 12.3125 -13.34375 C 11.988281 -12.96875 11.65625 -12.679688 11.3125 -12.484375 C 11.695312 -12.265625 12.101562 -11.9375 12.53125 -11.5 C 12.957031 -11.0625 13.316406 -10.453125 13.609375 -9.671875 C 13.910156 -8.898438 14.0625 -7.882812 14.0625 -6.625 C 14.0625 -5.351562 13.863281 -4.300781 13.46875 -3.46875 C 13.070312 -2.644531 12.664062 -2.015625 12.25 -1.578125 C 11.789062 -1.046875 11.226562 -0.671875 10.5625 -0.453125 C 9.90625 -0.234375 9.265625 -0.101562 8.640625 -0.0625 C 8.015625 -0.0195312 7.503906 0 7.109375 0 Z M 7.109375 0 "/></g></g></g><g fill="var(--c4)" fill-opacity="1"><g transform="translate(54.142419, 167.29264)"><g><path d="M 4.71875 0 L 0.421875 0 C 0.140625 0 0 -0.140625 0 -0.421875 L 0 -16.390625 C 0 -17.109375 0.113281 -17.640625 0.34375 -17.984375 C 0.570312 -18.335938 0.859375 -18.566406 1.203125 -18.671875 C 1.554688 -18.785156 1.898438 -18.84375 2.234375 -18.84375 L 2.78125 -18.84375 C 3.050781 -18.84375 3.1875 -18.703125 3.1875 -18.421875 C 3.1875 -18.117188 3.050781 -17.96875 2.78125 -17.96875 L 2.234375 -17.96875 C 1.816406 -17.96875 1.484375 -17.890625 1.234375 -17.734375 C 0.984375 -17.578125 0.859375 -17.128906 0.859375 -16.390625 L 0.859375 -0.859375 L 4.328125 -0.859375 L 4.328125 -23.015625 L 0.859375 -23.015625 L 0.859375 -20.84375 C 0.859375 -20.5625 0.710938 -20.421875 0.421875 -20.421875 C 0.140625 -20.421875 0 -20.5625 0 -20.84375 L 0 -23.46875 C 0 -23.75 0.140625 -23.890625 0.421875 -23.890625 L 4.71875 -23.890625 C 5.019531 -23.890625 5.171875 -23.75 5.171875 -23.46875 L 5.171875 -0.421875 C 5.171875 -0.140625 5.019531 0 4.71875 0 Z M 4.71875 0 "/></g></g></g><g fill="var(--c4)" fill-opacity="1"><g transform="translate(62.263178, 167.29264)"><g><path d="M 13.25 0 L 8.5625 0 C 8.34375 0 8.21875 -0.0976562 8.1875 -0.296875 L 5.96875 -8.484375 L 5.203125 -8.484375 L 5.203125 -0.421875 C 5.203125 -0.140625 5.0625 0 4.78125 0 L 0.421875 0 C 0.140625 0 0 -0.140625 0 -0.421875 L 0 -11.25 C 0 -12.007812 0.164062 -12.554688 0.5 -12.890625 C 0.84375 -13.234375 1.394531 -13.40625 2.15625 -13.40625 L 5.828125 -13.40625 C 6.203125 -13.40625 6.523438 -13.457031 6.796875 -13.5625 C 7.078125 -13.675781 7.296875 -13.953125 7.453125 -14.390625 C 7.617188 -14.828125 7.703125 -15.535156 7.703125 -16.515625 C 7.703125 -17.523438 7.554688 -18.257812 7.265625 -18.71875 C 6.984375 -19.175781 6.503906 -19.40625 5.828125 -19.40625 L 5.203125 -19.40625 L 5.203125 -15.765625 C 5.203125 -15.484375 5.0625 -15.34375 4.78125 -15.34375 C 4.5 -15.34375 4.359375 -15.484375 4.359375 -15.765625 L 4.359375 -19.828125 C 4.359375 -20.109375 4.5 -20.25 4.78125 -20.25 L 5.828125 -20.25 C 6.503906 -20.25 7.03125 -20.101562 7.40625 -19.8125 C 7.78125 -19.519531 8.046875 -19.160156 8.203125 -18.734375 C 8.367188 -18.304688 8.46875 -17.882812 8.5 -17.46875 C 8.53125 -17.050781 8.546875 -16.734375 8.546875 -16.515625 C 8.546875 -15.054688 8.335938 -14.03125 7.921875 -13.4375 C 7.515625 -12.84375 6.816406 -12.546875 5.828125 -12.546875 L 2.15625 -12.546875 C 1.632812 -12.546875 1.285156 -12.457031 1.109375 -12.28125 C 0.941406 -12.113281 0.859375 -11.769531 0.859375 -11.25 L 0.859375 -0.859375 L 4.359375 -0.859375 L 4.359375 -8.921875 C 4.359375 -9.222656 4.5 -9.375 4.78125 -9.375 L 6.296875 -9.375 C 6.398438 -9.375 6.5 -9.320312 6.59375 -9.21875 C 6.675781 -9.144531 6.71875 -9.078125 6.71875 -9.015625 L 8.890625 -0.859375 L 12.65625 -0.859375 L 9.765625 -9.640625 C 9.742188 -9.679688 9.734375 -9.753906 9.734375 -9.859375 C 9.734375 -9.953125 9.800781 -10.050781 9.9375 -10.15625 C 9.976562 -10.175781 10.023438 -10.203125 10.078125 -10.234375 C 10.128906 -10.273438 10.175781 -10.316406 10.21875 -10.359375 C 10.851562 -10.878906 11.359375 -11.65625 11.734375 -12.6875 C 12.109375 -13.726562 12.296875 -14.882812 12.296875 -16.15625 C 12.296875 -18.144531 11.878906 -19.773438 11.046875 -21.046875 C 10.609375 -21.703125 10.113281 -22.171875 9.5625 -22.453125 C 9.019531 -22.734375 8.429688 -22.894531 7.796875 -22.9375 C 7.160156 -22.988281 6.503906 -23.015625 5.828125 -23.015625 L 0.859375 -23.015625 L 0.859375 -15.203125 C 0.859375 -14.898438 0.710938 -14.75 0.421875 -14.75 C 0.140625 -14.75 0 -14.898438 0 -15.203125 L 0 -23.46875 C 0 -23.75 0.140625 -23.890625 0.421875 -23.890625 L 5.828125 -23.890625 C 6.523438 -23.890625 7.226562 -23.851562 7.9375 -23.78125 C 8.65625 -23.707031 9.34375 -23.503906 10 -23.171875 C 10.65625 -22.847656 11.242188 -22.289062 11.765625 -21.5 C 12.703125 -20.082031 13.171875 -18.300781 13.171875 -16.15625 C 13.171875 -14.738281 12.957031 -13.457031 12.53125 -12.3125 C 12.101562 -11.164062 11.519531 -10.296875 10.78125 -9.703125 C 10.757812 -9.679688 10.738281 -9.664062 10.71875 -9.65625 C 10.695312 -9.644531 10.6875 -9.628906 10.6875 -9.609375 L 13.671875 -0.53125 C 13.710938 -0.4375 13.6875 -0.316406 13.59375 -0.171875 C 13.53125 -0.0546875 13.414062 0 13.25 0 Z M 13.25 0 "/></g></g></g><g fill="var(--c4)" fill-opacity="1"><g transform="translate(78.92267, 167.29264)"><g><path d="M 8.234375 0 L 3.875 0 C 3.601562 0 3.46875 -0.140625 3.46875 -0.421875 L 3.46875 -16.359375 C 3.46875 -16.640625 3.601562 -16.78125 3.875 -16.78125 C 4.175781 -16.78125 4.328125 -16.640625 4.328125 -16.359375 L 4.328125 -0.859375 L 7.828125 -0.859375 L 7.828125 -17.171875 C 7.828125 -17.910156 7.695312 -18.363281 7.4375 -18.53125 C 7.175781 -18.695312 6.835938 -18.78125 6.421875 -18.78125 L 0.421875 -18.78125 C 0.140625 -18.78125 0 -18.921875 0 -19.203125 L 0 -23.46875 C 0 -23.75 0.140625 -23.890625 0.421875 -23.890625 L 11.796875 -23.890625 C 12.097656 -23.890625 12.25 -23.75 12.25 -23.46875 L 12.25 -19.109375 C 12.25 -18.828125 12.097656 -18.6875 11.796875 -18.6875 L 10.6875 -18.6875 C 10.382812 -18.6875 10.234375 -18.828125 10.234375 -19.109375 C 10.234375 -19.390625 10.382812 -19.53125 10.6875 -19.53125 L 11.375 -19.53125 L 11.375 -23.015625 L 0.859375 -23.015625 L 0.859375 -19.640625 L 6.421875 -19.640625 C 6.773438 -19.640625 7.117188 -19.582031 7.453125 -19.46875 C 7.796875 -19.363281 8.082031 -19.140625 8.3125 -18.796875 C 8.539062 -18.453125 8.65625 -17.910156 8.65625 -17.171875 L 8.65625 -0.421875 C 8.65625 -0.140625 8.515625 0 8.234375 0 Z M 8.234375 0 "/></g></g></g><g fill="var(--c4)" fill-opacity="1"><g transform="translate(94.119226, 167.29264)"><g><path d="M 4.859375 0.03125 L 4.84375 0.03125 L 0.421875 0 C 0.140625 0 0 -0.140625 0 -0.421875 L 0 -23.4375 C 0 -23.71875 0.140625 -23.859375 0.421875 -23.859375 L 4.859375 -23.859375 C 5.140625 -23.859375 5.28125 -23.71875 5.28125 -23.4375 L 5.28125 -12.65625 C 5.28125 -11.863281 5.378906 -11.332031 5.578125 -11.0625 C 5.773438 -10.789062 6.265625 -10.65625 7.046875 -10.65625 L 8.546875 -10.65625 C 8.835938 -10.65625 8.984375 -10.507812 8.984375 -10.21875 L 8.984375 -0.859375 L 12.546875 -0.859375 L 12.546875 -22.984375 L 8.984375 -22.984375 L 8.984375 -13.015625 C 8.984375 -12.734375 8.835938 -12.59375 8.546875 -12.59375 C 8.265625 -12.59375 8.125 -12.734375 8.125 -13.015625 L 8.125 -23.4375 C 8.125 -23.71875 8.265625 -23.859375 8.546875 -23.859375 L 12.953125 -23.859375 C 13.078125 -23.859375 13.1875 -23.816406 13.28125 -23.734375 C 13.382812 -23.660156 13.4375 -23.5625 13.4375 -23.4375 L 13.4375 -0.421875 C 13.4375 -0.296875 13.382812 -0.191406 13.28125 -0.109375 C 13.1875 -0.0351562 13.078125 0 12.953125 0 L 8.546875 0 C 8.265625 0 8.125 -0.140625 8.125 -0.421875 L 8.125 -9.796875 L 7.046875 -9.796875 C 5.953125 -9.796875 5.242188 -10.035156 4.921875 -10.515625 C 4.609375 -11.003906 4.453125 -11.71875 4.453125 -12.65625 L 4.453125 -22.984375 L 0.859375 -22.984375 L 0.859375 -0.859375 L 4.453125 -0.84375 L 4.453125 -7.96875 C 4.453125 -8.269531 4.585938 -8.421875 4.859375 -8.421875 C 5.140625 -8.421875 5.28125 -8.269531 5.28125 -7.96875 L 5.28125 -0.421875 C 5.28125 -0.273438 5.242188 -0.164062 5.171875 -0.09375 C 5.085938 -0.0078125 4.984375 0.03125 4.859375 0.03125 Z M 4.859375 0.03125 "/></g></g></g><g fill="var(--c4)" fill-opacity="1"><g transform="translate(110.510012, 167.29264)"><g><path d="M 10.8125 -22.359375 C 11.925781 -21.484375 12.769531 -20.1875 13.34375 -18.46875 C 13.925781 -16.75 14.21875 -14.675781 14.21875 -12.25 C 14.21875 -7.25 13.117188 -3.703125 10.921875 -1.609375 C 10.503906 -1.234375 9.914062 -0.867188 9.15625 -0.515625 C 8.40625 -0.171875 7.421875 0 6.203125 0 L 0.421875 0 C 0.140625 0 0 -0.140625 0 -0.421875 C 0 -0.710938 0.140625 -0.859375 0.421875 -0.859375 L 6.203125 -0.859375 C 7.265625 -0.859375 8.132812 -1.007812 8.8125 -1.3125 C 9.488281 -1.613281 9.992188 -1.910156 10.328125 -2.203125 C 12.359375 -4.160156 13.375 -7.507812 13.375 -12.25 C 13.375 -13.300781 13.296875 -14.429688 13.140625 -15.640625 C 12.984375 -16.859375 12.679688 -18 12.234375 -19.0625 C 11.785156 -20.125 11.140625 -20.992188 10.296875 -21.671875 C 9.503906 -22.296875 8.648438 -22.675781 7.734375 -22.8125 C 6.816406 -22.945312 5.757812 -23.015625 4.5625 -23.015625 L 0.859375 -23.015625 L 0.859375 -6.515625 C 0.859375 -5.753906 0.984375 -5.289062 1.234375 -5.125 C 1.484375 -4.96875 1.828125 -4.890625 2.265625 -4.890625 L 6.0625 -4.890625 C 6.414062 -4.890625 6.800781 -4.953125 7.21875 -5.078125 C 7.644531 -5.210938 7.957031 -5.5625 8.15625 -6.125 C 8.289062 -6.539062 8.394531 -7.101562 8.46875 -7.8125 C 8.550781 -8.53125 8.601562 -9.257812 8.625 -10 C 8.644531 -10.738281 8.65625 -11.335938 8.65625 -11.796875 C 8.65625 -13.609375 8.585938 -15.007812 8.453125 -16 C 8.328125 -17 8.140625 -17.707031 7.890625 -18.125 C 7.648438 -18.539062 7.375 -18.789062 7.0625 -18.875 C 6.75 -18.96875 6.414062 -19.015625 6.0625 -19.015625 L 5.203125 -19.015625 L 5.203125 -7.25 C 5.203125 -6.976562 5.0625 -6.84375 4.78125 -6.84375 C 4.5 -6.84375 4.359375 -6.976562 4.359375 -7.25 L 4.359375 -19.4375 C 4.359375 -19.5625 4.394531 -19.664062 4.46875 -19.75 C 4.550781 -19.84375 4.65625 -19.890625 4.78125 -19.890625 L 6.0625 -19.890625 C 6.675781 -19.890625 7.195312 -19.789062 7.625 -19.59375 C 8.050781 -19.394531 8.410156 -19.015625 8.703125 -18.453125 C 8.992188 -17.890625 9.203125 -17.070312 9.328125 -16 C 9.460938 -14.925781 9.53125 -13.523438 9.53125 -11.796875 C 9.53125 -11.753906 9.523438 -11.507812 9.515625 -11.0625 C 9.503906 -10.613281 9.484375 -10.066406 9.453125 -9.421875 C 9.421875 -8.773438 9.363281 -8.128906 9.28125 -7.484375 C 9.207031 -6.835938 9.097656 -6.296875 8.953125 -5.859375 C 8.816406 -5.429688 8.539062 -5.019531 8.125 -4.625 C 7.707031 -4.226562 7.019531 -4.03125 6.0625 -4.03125 L 2.265625 -4.03125 C 1.910156 -4.03125 1.554688 -4.082031 1.203125 -4.1875 C 0.859375 -4.300781 0.570312 -4.53125 0.34375 -4.875 C 0.113281 -5.226562 0 -5.773438 0 -6.515625 L 0 -23.46875 C 0 -23.75 0.140625 -23.890625 0.421875 -23.890625 L 4.5625 -23.890625 C 5.820312 -23.890625 6.953125 -23.8125 7.953125 -23.65625 C 8.960938 -23.507812 9.914062 -23.078125 10.8125 -22.359375 Z M 10.8125 -22.359375 "/></g></g></g><g fill="var(--c4)" fill-opacity="1"><g transform="translate(127.706907, 167.29264)"><g><path d="M 16.515625 -0.53125 C 16.515625 -0.53125 16.507812 -0.476562 16.5 -0.375 C 16.488281 -0.28125 16.460938 -0.210938 16.421875 -0.171875 C 16.335938 -0.0546875 16.226562 0 16.09375 0 L 11.640625 0 C 11.597656 0 11.5625 -0.015625 11.53125 -0.046875 C 11.507812 -0.078125 11.488281 -0.09375 11.46875 -0.09375 C 11.425781 -0.132812 11.394531 -0.179688 11.375 -0.234375 C 11.375 -0.253906 11.363281 -0.273438 11.34375 -0.296875 C 11.320312 -0.316406 11.3125 -0.335938 11.3125 -0.359375 L 10.6875 -3.640625 L 10.453125 -4.953125 L 8.5625 -4.953125 C 8.289062 -4.953125 8.15625 -5.101562 8.15625 -5.40625 C 8.15625 -5.6875 8.289062 -5.828125 8.5625 -5.828125 L 10.78125 -5.828125 C 10.875 -5.847656 10.972656 -5.820312 11.078125 -5.75 C 11.179688 -5.675781 11.238281 -5.582031 11.25 -5.46875 L 11.53125 -3.828125 L 12.09375 -0.859375 L 15.5625 -0.859375 L 13.59375 -9.015625 L 10.21875 -23.015625 L 6.265625 -23.015625 L 2.921875 -9.015625 L 0.984375 -0.859375 L 4.484375 -0.859375 L 5.671875 -7.4375 C 5.796875 -8.09375 6.023438 -8.609375 6.359375 -8.984375 C 6.703125 -9.367188 7.3125 -9.5625 8.1875 -9.5625 L 9.609375 -9.5625 L 8.265625 -16.78125 L 7.34375 -11.734375 C 7.28125 -11.453125 7.113281 -11.34375 6.84375 -11.40625 C 6.539062 -11.46875 6.421875 -11.628906 6.484375 -11.890625 L 7.828125 -19.234375 C 7.867188 -19.453125 8.015625 -19.5625 8.265625 -19.5625 C 8.503906 -19.5625 8.632812 -19.453125 8.65625 -19.234375 L 10.546875 -9.21875 L 10.546875 -9.015625 C 10.546875 -8.992188 10.53125 -8.96875 10.5 -8.9375 C 10.46875 -8.90625 10.453125 -8.882812 10.453125 -8.875 C 10.429688 -8.832031 10.378906 -8.789062 10.296875 -8.75 C 10.242188 -8.707031 10.195312 -8.6875 10.15625 -8.6875 L 8.265625 -8.6875 C 8.265625 -8.6875 8.253906 -8.691406 8.234375 -8.703125 C 8.222656 -8.710938 8.21875 -8.71875 8.21875 -8.71875 C 8.21875 -8.71875 8.210938 -8.710938 8.203125 -8.703125 C 8.191406 -8.691406 8.1875 -8.6875 8.1875 -8.6875 C 7.582031 -8.6875 7.171875 -8.585938 6.953125 -8.390625 C 6.734375 -8.191406 6.585938 -7.8125 6.515625 -7.25 L 5.21875 -0.359375 C 5.21875 -0.335938 5.210938 -0.316406 5.203125 -0.296875 C 5.203125 -0.273438 5.203125 -0.253906 5.203125 -0.234375 C 5.179688 -0.160156 5.140625 -0.113281 5.078125 -0.09375 C 5.015625 -0.03125 4.960938 0 4.921875 0 L 0.421875 0 C 0.273438 0 0.164062 -0.0546875 0.09375 -0.171875 C 0.0078125 -0.273438 -0.0195312 -0.394531 0 -0.53125 L 2.09375 -9.21875 L 5.53125 -23.5625 C 5.582031 -23.78125 5.71875 -23.890625 5.9375 -23.890625 L 10.5625 -23.890625 C 10.769531 -23.890625 10.898438 -23.78125 10.953125 -23.5625 L 14.421875 -9.21875 Z M 16.515625 -0.53125 "/></g></g></g><g fill="var(--c4)" fill-opacity="1"><g transform="translate(146.575726, 167.29264)"><g><path d="M 9.171875 0 L 4.71875 0 C 4.4375 0 4.296875 -0.140625 4.296875 -0.421875 L 4.296875 -10.234375 L 0.03125 -23.34375 C -0.03125 -23.46875 -0.0195312 -23.585938 0.0625 -23.703125 C 0.132812 -23.828125 0.253906 -23.890625 0.421875 -23.890625 L 4.65625 -23.890625 C 4.875 -23.890625 5.015625 -23.789062 5.078125 -23.59375 C 5.078125 -23.59375 5.164062 -23.328125 5.34375 -22.796875 C 5.519531 -22.265625 5.75 -21.59375 6.03125 -20.78125 C 6.3125 -19.96875 6.609375 -19.109375 6.921875 -18.203125 C 7.242188 -17.296875 7.535156 -16.453125 7.796875 -15.671875 C 8.054688 -14.898438 8.265625 -14.304688 8.421875 -13.890625 C 8.484375 -13.671875 8.578125 -13.53125 8.703125 -13.46875 C 8.828125 -13.40625 8.953125 -13.375 9.078125 -13.375 C 9.492188 -13.375 9.753906 -13.535156 9.859375 -13.859375 C 9.953125 -14.117188 10.09375 -14.535156 10.28125 -15.109375 C 10.46875 -15.679688 10.679688 -16.335938 10.921875 -17.078125 C 11.160156 -17.816406 11.410156 -18.570312 11.671875 -19.34375 C 11.929688 -20.125 12.164062 -20.835938 12.375 -21.484375 C 12.582031 -22.128906 12.75 -22.640625 12.875 -23.015625 L 9.578125 -23.015625 L 8.59375 -19.109375 C 8.539062 -18.847656 8.363281 -18.75 8.0625 -18.8125 C 7.800781 -18.851562 7.703125 -19.019531 7.765625 -19.3125 L 8.8125 -23.5625 C 8.863281 -23.78125 9.007812 -23.890625 9.25 -23.890625 L 13.46875 -23.890625 C 13.644531 -23.890625 13.765625 -23.828125 13.828125 -23.703125 C 13.898438 -23.585938 13.921875 -23.46875 13.890625 -23.34375 C 13.890625 -23.320312 13.816406 -23.109375 13.671875 -22.703125 C 13.535156 -22.296875 13.363281 -21.765625 13.15625 -21.109375 C 12.945312 -20.453125 12.71875 -19.738281 12.46875 -18.96875 C 12.21875 -18.207031 11.972656 -17.460938 11.734375 -16.734375 C 11.492188 -16.003906 11.28125 -15.351562 11.09375 -14.78125 C 10.90625 -14.21875 10.769531 -13.8125 10.6875 -13.5625 C 10.570312 -13.257812 10.363281 -13.003906 10.0625 -12.796875 C 9.757812 -12.585938 9.429688 -12.484375 9.078125 -12.484375 C 8.359375 -12.484375 7.859375 -12.851562 7.578125 -13.59375 C 7.460938 -13.96875 7.296875 -14.484375 7.078125 -15.140625 C 6.859375 -15.796875 6.609375 -16.515625 6.328125 -17.296875 C 6.046875 -18.085938 5.773438 -18.863281 5.515625 -19.625 C 5.265625 -20.394531 5.035156 -21.082031 4.828125 -21.6875 C 4.617188 -22.300781 4.460938 -22.742188 4.359375 -23.015625 L 1.015625 -23.015625 L 5.140625 -10.453125 C 5.140625 -10.429688 5.144531 -10.410156 5.15625 -10.390625 C 5.164062 -10.367188 5.171875 -10.347656 5.171875 -10.328125 L 5.171875 -0.859375 L 8.75 -0.859375 L 8.75 -10.09375 C 8.75 -10.375 8.890625 -10.515625 9.171875 -10.515625 C 9.460938 -10.515625 9.609375 -10.375 9.609375 -10.09375 L 9.609375 -0.421875 C 9.609375 -0.140625 9.460938 0 9.171875 0 Z M 9.171875 0 "/></g></g></g><g fill="var(--c4)" fill-opacity="1"><g transform="translate(163.451813, 167.29264)"><g/></g></g></g></g></svg>