<svg xmlns="http://www.w3.org/2000/svg" xmlns:xlink="http://www.w3.org/1999/xlink" width="299" zoomAndPan="magnify" viewBox="0 0 223.92 312" height="416" preserveAspectRatio="xMidYMid meet" version="1.0"><defs><g/><clipPath id="82d7aacfdc"><path d="M 0 0.0546875 L 223.839844 0.0546875 L 223.839844 311.941406 L 0 311.941406 Z M 0 0.0546875 " clip-rule="nonzero"/></clipPath><clipPath id="fe28878b70"><path d="M 116 197 L 160 197 L 160 213 L 116 213 Z M 116 197 " clip-rule="nonzero"/></clipPath><clipPath id="9073900714"><path d="M 96.683594 148.683594 L 184.652344 163.570312 L 175.144531 219.75 L 87.175781 204.863281 Z M 96.683594 148.683594 " clip-rule="nonzero"/></clipPath><clipPath id="ced6984a12"><path d="M 96.683594 148.683594 L 184.652344 163.570312 L 175.144531 219.75 L 87.175781 204.863281 Z M 96.683594 148.683594 " clip-rule="nonzero"/></clipPath><clipPath id="4aeb176f14"><path d="M 140 175 L 182 175 L 182 191 L 140 191 Z M 140 175 " clip-rule="nonzero"/></clipPath><clipPath id="b7d2807be6"><path d="M 96.683594 148.683594 L 184.652344 163.570312 L 175.144531 219.75 L 87.175781 204.863281 Z M 96.683594 148.683594 " clip-rule="nonzero"/></clipPath><clipPath id="f7f9b559ea"><path d="M 96.683594 148.683594 L 184.652344 163.570312 L 175.144531 219.75 L 87.175781 204.863281 Z M 96.683594 148.683594 " clip-rule="nonzero"/></clipPath><clipPath id="080c1e280f"><path d="M 91 174 L 134 174 L 134 189 L 91 189 Z M 91 174 " clip-rule="nonzero"/></clipPath><clipPath id="0c5c343d1c"><path d="M 96.683594 148.683594 L 184.652344 163.570312 L 175.144531 219.75 L 87.175781 204.863281 Z M 96.683594 148.683594 " clip-rule="nonzero"/></clipPath><clipPath id="99668e9562"><path d="M 96.683594 148.683594 L 184.652344 163.570312 L 175.144531 219.75 L 87.175781 204.863281 Z M 96.683594 148.683594 " clip-rule="nonzero"/></clipPath><clipPath id="648b602bbe"><path d="M 101 151 L 140 151 L 140 168 L 101 168 Z M 101 151 " clip-rule="nonzero"/></clipPath><clipPath id="8f76e29fea"><path d="M 96.683594 148.683594 L 184.652344 163.570312 L 175.144531 219.75 L 87.175781 204.863281 Z M 96.683594 148.683594 " clip-rule="nonzero"/></clipPath><clipPath id="ca490d039e"><path d="M 96.683594 148.683594 L 184.652344 163.570312 L 175.144531 219.75 L 87.175781 204.863281 Z M 96.683594 148.683594 " clip-rule="nonzero"/></clipPath><clipPath id="69460ae5ed"><path d="M 24.339844 22.441406 L 199.519531 22.441406 L 199.519531 290 L 24.339844 290 Z M 24.339844 22.441406 " clip-rule="nonzero"/></clipPath><clipPath id="9134980f44"><path d="M 31.835938 22.441406 L 192.019531 22.441406 C 196.160156 22.441406 199.519531 25.796875 199.519531 29.9375 L 199.519531 281.871094 C 199.519531 286.011719 196.160156 289.371094 192.019531 289.371094 L 31.835938 289.371094 C 27.695312 289.371094 24.339844 286.011719 24.339844 281.871094 L 24.339844 29.9375 C 24.339844 25.796875 27.695312 22.441406 31.835938 22.441406 Z M 31.835938 22.441406 " clip-rule="nonzero"/></clipPath><clipPath id="dd8a2ca18f"><path d="M 0.339844 0.441406 L 175.519531 0.441406 L 175.519531 267.390625 L 0.339844 267.390625 Z M 0.339844 0.441406 " clip-rule="nonzero"/></clipPath><clipPath id="a03cab456c"><path d="M 7.835938 0.441406 L 168.019531 0.441406 C 172.160156 0.441406 175.519531 3.796875 175.519531 7.9375 L 175.519531 259.871094 C 175.519531 264.011719 172.160156 267.371094 168.019531 267.371094 L 7.835938 267.371094 C 3.695312 267.371094 0.339844 264.011719 0.339844 259.871094 L 0.339844 7.9375 C 0.339844 3.796875 3.695312 0.441406 7.835938 0.441406 Z M 7.835938 0.441406 " clip-rule="nonzero"/></clipPath><clipPath id="a0b21954fd"><rect x="0" width="176" y="0" height="268"/></clipPath><clipPath id="eb7986cad9"><path d="M 24.339844 22.441406 L 199.777344 22.441406 L 199.777344 289.347656 L 24.339844 289.347656 Z M 24.339844 22.441406 " clip-rule="nonzero"/></clipPath><clipPath id="179218a6da"><path d="M 31.835938 22.441406 L 192.019531 22.441406 C 196.160156 22.441406 199.519531 25.796875 199.519531 29.9375 L 199.519531 281.871094 C 199.519531 286.011719 196.160156 289.371094 192.019531 289.371094 L 31.835938 289.371094 C 27.695312 289.371094 24.339844 286.011719 24.339844 281.871094 L 24.339844 29.9375 C 24.339844 25.796875 27.695312 22.441406 31.835938 22.441406 Z M 31.835938 22.441406 " clip-rule="nonzero"/></clipPath><clipPath id="03a2c589a2"><rect x="0" width="51" y="0" height="23"/></clipPath><clipPath id="e13239a66d"><rect x="0" width="71" y="0" height="23"/></clipPath><clipPath id="5adb24560f"><path d="M 0.414062 94 L 93 94 L 93 115.976562 L 0.414062 115.976562 Z M 0.414062 94 " clip-rule="nonzero"/></clipPath><clipPath id="a0cd5b9767"><rect x="0" width="93" y="0" height="22"/></clipPath><clipPath id="dc77fee3a4"><path d="M 37 0.578125 L 93.984375 0.578125 L 93.984375 23 L 37 23 Z M 37 0.578125 " clip-rule="nonzero"/></clipPath><clipPath id="120613a16a"><rect x="0" width="57" y="0" height="23"/></clipPath><clipPath id="dc892049f1"><rect x="0" width="94" y="0" height="116"/></clipPath></defs><g clip-path="url(#82d7aacfdc)"><path fill="#ffffff" d="M 0 0.0546875 L 224.167969 0.0546875 L 224.167969 311.945312 L 0 311.945312 Z M 0 0.0546875 " fill-opacity="1" fill-rule="nonzero"/><path fill="#f4f1eb" d="M 0 0.0546875 L 224.167969 0.0546875 L 224.167969 311.945312 L 0 311.945312 Z M 0 0.0546875 " fill-opacity="1" fill-rule="nonzero"/><g transform="matrix(0.196961, 0, 0, 0.197191, -65.750357, -31.666145)"><image x="0" y="0" width="2459" xlink:href="../assets/d6a867cd65aa2297.png" height="1844" preserveAspectRatio="xMidYMid meet"/></g></g><g clip-path="url(#fe28878b70)"><g clip-path="url(#9073900714)"><g clip-path="url(#ced6984a12)"><path fill="#004aad" d="M 159.015625 204.113281 C 158.773438 205.648438 158.527344 207.179688 158.550781 208.742188 C 158.566406 209.628906 158.386719 210.480469 157.964844 211.269531 C 157.1875 212.722656 156.390625 213.070312 154.890625 212.332031 C 153.414062 211.609375 151.902344 210.851562 150.636719 209.828125 C 148.054688 207.730469 145.59375 207.6875 142.582031 209.085938 C 136.375 211.96875 129.875 212.335938 123.28125 210.378906 C 121.78125 209.933594 120.359375 209.300781 119.050781 208.464844 C 115.851562 206.421875 115.8125 202.726562 119 200.636719 C 120.042969 199.949219 121.1875 199.285156 122.378906 198.972656 C 126.992188 197.753906 131.679688 197.050781 136.480469 197.558594 C 138.839844 197.804688 141 198.601562 142.996094 199.882812 C 143.816406 200.402344 144.691406 200.835938 145.492188 201.378906 C 147.609375 202.808594 149.695312 202.640625 151.753906 201.304688 C 153.472656 200.1875 155.296875 199.289062 157.21875 198.589844 C 159.121094 197.898438 159.660156 198.324219 159.605469 200.378906 C 159.597656 200.574219 159.574219 200.769531 159.542969 200.960938 C 159.367188 202.011719 159.1875 203.0625 159.007812 204.117188 Z M 152.792969 205.207031 C 152.167969 204.839844 151.90625 204.335938 152.648438 203.921875 C 153.84375 203.253906 155.191406 202.960938 156.542969 202.796875 C 157.859375 202.640625 158.238281 201.726562 157.964844 200.742188 C 157.640625 199.59375 156.667969 200.253906 156.058594 200.542969 C 154.925781 201.078125 153.835938 201.726562 152.78125 202.410156 C 150.175781 204.101562 147.585938 204.410156 144.921875 202.539062 C 143.972656 201.867188 142.972656 201.261719 141.964844 200.679688 C 140.28125 199.710938 138.558594 198.683594 136.585938 198.597656 C 131.90625 198.390625 127.289062 198.941406 122.804688 200.324219 C 121.316406 200.78125 119.714844 201.308594 120.59375 203.507812 C 120.6875 203.738281 120.566406 204.085938 120.472656 204.355469 C 120.347656 204.726562 120.136719 205.09375 119.660156 205.015625 C 119.347656 204.96875 119.261719 204.667969 119.195312 204.378906 C 119.101562 203.96875 119.457031 203.386719 118.757812 203.191406 C 118.011719 205.476562 118.089844 205.925781 119.746094 207.054688 C 121.53125 208.269531 123.53125 208.992188 125.65625 209.382812 C 128.550781 209.910156 128.566406 209.90625 129.292969 206.941406 C 129.320312 206.832031 129.578125 206.777344 129.730469 206.691406 C 130.945312 207.535156 129.355469 210.261719 132.230469 210.132812 C 134.136719 210.042969 135.488281 209.441406 136.566406 207.46875 C 136.730469 209.492188 137.78125 209.441406 138.929688 209.015625 C 140.292969 208.515625 141.636719 207.957031 142.976562 207.390625 C 144.230469 206.855469 145.574219 206.078125 146.871094 206.507812 C 149.203125 207.277344 151 206.472656 152.777344 205.183594 C 153.285156 205.324219 153.957031 205.101562 154.210938 205.824219 C 152.363281 207.296875 152.265625 207.335938 152.605469 208.902344 C 152.957031 210.515625 154.515625 210.535156 155.621094 211.183594 C 155.972656 210.496094 153.96875 209.859375 155.835938 209.539062 C 156.535156 209.417969 156.816406 208.984375 156.914062 208.386719 C 157.132812 207.015625 157.5625 205.640625 157.121094 204.007812 C 155.539062 204.445312 154.164062 204.828125 152.789062 205.207031 Z M 152.792969 205.207031 " fill-opacity="1" fill-rule="nonzero"/></g></g></g><g clip-path="url(#4aeb176f14)"><g clip-path="url(#b7d2807be6)"><g clip-path="url(#f7f9b559ea)"><path fill="#004aad" d="M 160.351562 175.679688 C 162.652344 176.054688 164.25 176.789062 165.878906 177.40625 C 167.328125 177.953125 168.757812 178.574219 170.148438 179.257812 C 172.902344 180.609375 175.511719 180.664062 178.097656 178.800781 C 178.914062 178.214844 179.925781 177.113281 180.921875 177.859375 C 182.015625 178.683594 181.3125 180.039062 180.941406 181.09375 C 180.164062 183.324219 179.824219 185.589844 179.789062 187.945312 C 179.757812 190.175781 178.691406 190.6875 176.84375 189.480469 C 176.597656 189.324219 176.335938 189.160156 176.164062 188.933594 C 174.515625 186.730469 172.578125 186.890625 170.25 187.867188 C 162.058594 191.300781 153.636719 191.367188 145.117188 189.28125 C 143.328125 188.84375 141.976562 187.765625 140.957031 186.285156 C 139.386719 184 139.765625 181.890625 141.976562 180.230469 C 142.132812 180.113281 142.285156 179.992188 142.453125 179.894531 C 148.175781 176.605469 154.347656 175.324219 160.347656 175.679688 Z M 157.5 186.917969 C 158.007812 189.621094 159.355469 189.53125 160.90625 189.257812 C 164.457031 188.621094 167.871094 187.578125 171.167969 186.136719 C 173.046875 185.3125 174.703125 185.316406 176.128906 187.039062 C 176.660156 187.679688 177.125 188.5 178.476562 188.597656 C 178.175781 185.574219 179.089844 182.753906 179.957031 179.65625 C 178.894531 179.824219 177.777344 179.871094 177.875 180.707031 C 178.144531 183.003906 176.277344 182.667969 175.539062 182.308594 C 173.4375 181.296875 172.332031 182.148438 171.570312 183.941406 C 170.734375 183.460938 170.839844 182.820312 170.8125 182.265625 C 170.765625 181.402344 170.386719 180.828125 169.609375 180.445312 C 166.300781 178.816406 162.988281 176.96875 159.230469 176.964844 C 155.433594 176.960938 151.226562 176.152344 148.640625 180.226562 C 148.035156 179.933594 148.210938 178.75 147.183594 179.074219 C 146.464844 179.296875 146.011719 179.753906 145.980469 180.527344 C 145.957031 181.203125 146.007812 181.886719 145.964844 182.5625 C 145.914062 183.359375 146.074219 184.257812 145.171875 184.941406 C 144.296875 183.828125 144.9375 182.761719 144.875 181.761719 C 144.800781 180.667969 144.351562 180.417969 143.371094 180.941406 C 141.207031 182.085938 140.765625 184.066406 142.3125 186.003906 C 143.644531 187.671875 145.445312 188.503906 147.546875 188.839844 C 150.128906 189.246094 150.117188 189.292969 151.359375 186.949219 C 151.527344 186.625 151.75 186.277344 152.246094 186.382812 C 153.140625 187.183594 151.960938 188.234375 152.625 189.199219 C 154.425781 189.550781 156.339844 190.1875 157.5 186.921875 Z M 157.5 186.917969 " fill-opacity="1" fill-rule="nonzero"/></g></g></g><g clip-path="url(#080c1e280f)"><g clip-path="url(#0c5c343d1c)"><g clip-path="url(#99668e9562)"><path fill="#004aad" d="M 110.796875 174.355469 C 114.203125 175.148438 117.683594 175.957031 120.425781 178.210938 C 123.734375 180.929688 126.898438 179.867188 130.195312 178.492188 C 131.128906 178.101562 132.035156 176.671875 132.972656 177.484375 C 134.035156 178.40625 132.78125 179.578125 132.4375 180.617188 C 131.980469 182.011719 131.75 183.441406 131.742188 184.90625 C 131.742188 185.585938 131.828125 186.269531 131.757812 186.9375 C 131.683594 187.675781 131.78125 188.632812 130.863281 188.898438 C 130.011719 189.144531 129.808594 188.207031 129.378906 187.742188 C 125.8125 183.902344 126.5 183.433594 120.746094 185.007812 C 116.820312 186.082031 112.832031 186.890625 108.757812 187.269531 C 106.136719 187.515625 103.765625 186.773438 101.394531 185.921875 C 98.46875 184.863281 95.648438 183.558594 93.183594 181.625 C 91.558594 180.351562 91.503906 179.53125 92.941406 178.03125 C 94.578125 176.324219 96.523438 175.042969 98.90625 174.628906 C 102.847656 173.941406 106.808594 173.929688 110.792969 174.355469 Z M 105.132812 182.621094 C 105.960938 186.210938 106.179688 186.367188 109.523438 186.085938 C 110.296875 186.023438 111.066406 185.921875 111.835938 185.824219 C 114.929688 185.433594 117.929688 184.617188 120.914062 183.769531 C 123.367188 183.074219 125.757812 182.566406 128.339844 183.167969 C 130.007812 183.550781 130.6875 182.847656 130.765625 181.214844 C 130.792969 180.707031 130.761719 180.1875 130.097656 180.15625 C 129.617188 180.132812 128.824219 180.265625 128.902344 180.699219 C 129.058594 181.554688 129.3125 182.21875 128.101562 182.320312 C 127.328125 182.386719 126.546875 182.554688 125.800781 182.226562 C 124.207031 181.53125 122.589844 180.875 121.15625 179.839844 C 114.953125 175.375 108.027344 174.476562 100.648438 175.640625 C 98.34375 176.003906 96.441406 177.0625 94.703125 178.503906 C 93.414062 179.574219 93.398438 179.925781 94.664062 180.984375 C 96.53125 182.550781 98.570312 183.824219 100.902344 184.648438 C 103.867188 185.695312 103.84375 185.753906 105.128906 182.621094 Z M 105.132812 182.621094 " fill-opacity="1" fill-rule="nonzero"/></g></g></g><g clip-path="url(#648b602bbe)"><g clip-path="url(#8f76e29fea)"><g clip-path="url(#ca490d039e)"><path fill="#004aad" d="M 116.371094 152.183594 C 118.402344 152.355469 120.539062 153.445312 122.523438 154.898438 C 123.617188 155.703125 124.695312 156.535156 125.84375 157.253906 C 128.488281 158.910156 131.21875 159.257812 134.113281 157.777344 C 135.222656 157.210938 136.4375 156.777344 137.65625 156.519531 C 139.152344 156.195312 139.738281 156.65625 139.65625 158.128906 C 139.5 160.84375 138.796875 163.488281 137.8125 166.003906 C 137.164062 167.65625 135.988281 167.820312 134.570312 166.683594 C 133.738281 166.019531 133.007812 165.230469 132.238281 164.5 C 130.707031 163.039062 128.953125 162.5625 126.886719 163.171875 C 123.691406 164.109375 120.417969 164.21875 117.101562 164.101562 C 111.546875 163.90625 106.757812 161.789062 102.445312 158.460938 C 100.46875 156.9375 100.542969 155.652344 102.726562 154.484375 C 106.839844 152.285156 111.210938 151.234375 116.371094 152.183594 Z M 113.46875 160.507812 C 113.578125 162.050781 114.269531 162.585938 115.519531 162.816406 C 118.832031 163.429688 122.148438 163.449219 125.292969 162.3125 C 128.769531 161.054688 131.53125 161.871094 133.996094 164.390625 C 134.269531 164.667969 134.550781 164.9375 134.828125 165.207031 C 135.25 165.609375 135.683594 166.105469 136.324219 165.765625 C 136.90625 165.453125 137.078125 164.824219 136.863281 164.25 C 136.214844 162.546875 136.835938 161.25 138.007812 160.050781 C 138.261719 159.789062 138.421875 159.398438 138.535156 159.035156 C 138.84375 158.039062 138.34375 157.472656 137.34375 157.792969 C 135.902344 158.25 134.5 158.847656 133.046875 159.398438 C 133.640625 160.453125 134.953125 159.664062 135.375 160.855469 C 134.054688 161.601562 132.773438 161.128906 131.503906 160.753906 C 127.847656 159.671875 124.492188 158.070312 121.484375 155.636719 C 118.113281 152.910156 114.144531 152.261719 109.9375 153.179688 C 107.746094 153.652344 105.734375 154.652344 103.679688 155.523438 C 102.542969 156.011719 102.453125 156.648438 103.394531 157.4375 C 105.238281 158.984375 106.953125 160.585938 109.558594 161.015625 C 110.9375 161.242188 112.140625 162.453125 113.46875 160.507812 Z M 113.46875 160.507812 " fill-opacity="1" fill-rule="nonzero"/></g></g></g><g clip-path="url(#69460ae5ed)"><g clip-path="url(#9134980f44)"><g transform="matrix(1, 0, 0, 1, 24, 22)"><g clip-path="url(#a0b21954fd)"><g clip-path="url(#dd8a2ca18f)"><g clip-path="url(#a03cab456c)"><path fill="#fffdf1" d="M 0.339844 0.441406 L 175.519531 0.441406 L 175.519531 267.316406 L 0.339844 267.316406 Z M 0.339844 0.441406 " fill-opacity="1" fill-rule="nonzero"/></g></g></g></g></g></g><g clip-path="url(#eb7986cad9)"><g clip-path="url(#179218a6da)"><path stroke-linecap="butt" transform="matrix(0.749732, 0, 0, 0.749732, 24.338684, 22.441425)" fill="none" stroke-linejoin="miter" d="M 9.999909 -0.0000253683 L 223.654335 -0.0000253683 C 229.17714 -0.0000253683 233.657907 4.475531 233.657907 9.998337 L 233.657907 346.029799 C 233.657907 351.552605 229.17714 356.033371 223.654335 356.033371 L 9.999909 356.033371 C 4.477104 356.033371 0.00154714 351.552605 0.00154714 346.029799 L 0.00154714 9.998337 C 0.00154714 4.475531 4.477104 -0.0000253683 9.999909 -0.0000253683 Z M 9.999909 -0.0000253683 " stroke="#711d20" stroke-width="2" stroke-opacity="1" stroke-miterlimit="4"/></g></g><g fill="#711d20" fill-opacity="1"><g transform="translate(60.085367, 58.168573)"><g/></g></g><g fill="#711d20" fill-opacity="1"><g transform="translate(60.085367, 58.168573)"><g><path d="M 1.796875 -7.125 C 1.796875 -7.125 1.96875 -7.125 2.3125 -7.125 C 2.65625 -7.125 3.082031 -7.125 3.59375 -7.125 C 4.113281 -7.125 4.617188 -7.125 5.109375 -7.125 C 5.109375 -6.164062 4.988281 -5.132812 4.75 -4.03125 C 4.519531 -2.925781 4.066406 -1.554688 3.390625 0.078125 L 0.5625 -1.203125 C 1.175781 -2.703125 1.535156 -3.910156 1.640625 -4.828125 C 1.742188 -5.753906 1.796875 -6.519531 1.796875 -7.125 Z M 2.015625 -9.03125 L 1.015625 -11.75 C 1.703125 -12.039062 2.457031 -12.328125 3.28125 -12.609375 C 4.101562 -12.890625 4.910156 -13.125 5.703125 -13.3125 C 6.492188 -13.5 7.171875 -13.59375 7.734375 -13.59375 C 9.003906 -13.59375 10.03125 -13.234375 10.8125 -12.515625 C 11.601562 -11.796875 12 -10.71875 12 -9.28125 C 12 -7.988281 11.78125 -6.53125 11.34375 -4.90625 C 10.914062 -3.28125 10.367188 -1.578125 9.703125 0.203125 L 6.609375 -1.0625 C 7.210938 -2.6875 7.660156 -4.203125 7.953125 -5.609375 C 8.253906 -7.023438 8.40625 -8.285156 8.40625 -9.390625 C 8.40625 -9.597656 8.328125 -9.820312 8.171875 -10.0625 C 8.015625 -10.300781 7.75 -10.421875 7.375 -10.421875 C 7.070312 -10.421875 6.617188 -10.351562 6.015625 -10.21875 C 5.410156 -10.09375 4.75 -9.925781 4.03125 -9.71875 C 3.320312 -9.519531 2.648438 -9.289062 2.015625 -9.03125 Z M 2.015625 -9.03125 "/></g></g></g><g fill="#711d20" fill-opacity="1"><g transform="translate(72.638873, 58.168573)"><g><path d="M 2.5 -13.671875 L 6.28125 -13.453125 C 6.070312 -10.648438 5.8125 -8.265625 5.5 -6.296875 C 5.195312 -4.335938 4.8125 -2.703125 4.34375 -1.390625 C 3.875 -0.0859375 3.296875 0.976562 2.609375 1.8125 C 1.929688 2.644531 1.109375 3.332031 0.140625 3.875 C -0.816406 4.414062 -1.945312 4.910156 -3.25 5.359375 L -4.171875 2.609375 C -3.242188 2.347656 -2.429688 2 -1.734375 1.5625 C -1.046875 1.132812 -0.460938 0.550781 0.015625 -0.1875 C 0.503906 -0.925781 0.90625 -1.882812 1.21875 -3.0625 C 1.539062 -4.238281 1.800781 -5.691406 2 -7.421875 C 2.195312 -9.160156 2.363281 -11.242188 2.5 -13.671875 Z M 2.5 -13.671875 "/></g></g></g><g fill="#711d20" fill-opacity="1"><g transform="translate(79.56011, 58.168573)"><g><path d="M 1.3125 -9.046875 L 0.3125 -11.796875 C 1.414062 -12.242188 2.554688 -12.65625 3.734375 -13.03125 C 4.921875 -13.40625 6.03125 -13.59375 7.0625 -13.59375 C 7.71875 -13.59375 8.347656 -13.488281 8.953125 -13.28125 C 9.554688 -13.082031 10.050781 -12.742188 10.4375 -12.265625 C 10.820312 -11.785156 11.015625 -11.117188 11.015625 -10.265625 C 11.015625 -9.285156 10.648438 -8.53125 9.921875 -8 C 9.191406 -7.46875 8.164062 -7.035156 6.84375 -6.703125 C 7.644531 -6.359375 8.148438 -5.976562 8.359375 -5.5625 C 8.578125 -5.144531 8.6875 -4.71875 8.6875 -4.28125 C 8.6875 -3.632812 8.578125 -2.898438 8.359375 -2.078125 C 8.148438 -1.253906 7.914062 -0.429688 7.65625 0.390625 L 4.40625 -0.78125 C 4.601562 -1.382812 4.796875 -2.003906 4.984375 -2.640625 C 5.171875 -3.285156 5.265625 -3.828125 5.265625 -4.265625 C 5.265625 -4.734375 5.054688 -5.097656 4.640625 -5.359375 C 4.222656 -5.617188 3.710938 -5.84375 3.109375 -6.03125 L 3.109375 -7.6875 C 3.503906 -7.78125 3.941406 -7.898438 4.421875 -8.046875 C 4.910156 -8.191406 5.382812 -8.363281 5.84375 -8.5625 C 6.300781 -8.757812 6.675781 -8.976562 6.96875 -9.21875 C 7.257812 -9.46875 7.40625 -9.722656 7.40625 -9.984375 C 7.40625 -10.179688 7.269531 -10.300781 7 -10.34375 C 6.726562 -10.382812 6.515625 -10.40625 6.359375 -10.40625 C 5.972656 -10.40625 5.476562 -10.332031 4.875 -10.1875 C 4.28125 -10.050781 3.664062 -9.878906 3.03125 -9.671875 C 2.394531 -9.460938 1.820312 -9.253906 1.3125 -9.046875 Z M 1.3125 -9.046875 "/></g></g></g><g fill="#711d20" fill-opacity="1"><g transform="translate(90.628485, 58.168573)"><g><path d="M 0 -2.46875 C 0 -3.175781 0.15625 -3.859375 0.46875 -4.515625 C 0.789062 -5.179688 1.207031 -5.847656 1.71875 -6.515625 C 2.238281 -7.179688 2.773438 -7.847656 3.328125 -8.515625 C 3.484375 -9.992188 3.609375 -11.222656 3.703125 -12.203125 C 3.796875 -13.179688 3.894531 -14.003906 4 -14.671875 C 4.101562 -15.335938 4.21875 -15.925781 4.34375 -16.4375 C 4.476562 -16.957031 4.640625 -17.488281 4.828125 -18.03125 C 5.492188 -19.914062 6.582031 -21.359375 8.09375 -22.359375 C 9.613281 -23.359375 11.53125 -24.082031 13.84375 -24.53125 L 14.46875 -21.953125 C 13.132812 -21.765625 12.03125 -21.425781 11.15625 -20.9375 C 10.289062 -20.445312 9.613281 -19.894531 9.125 -19.28125 C 8.644531 -18.664062 8.296875 -18.066406 8.078125 -17.484375 C 7.566406 -16.117188 7.1875 -14.296875 6.9375 -12.015625 C 6.6875 -9.742188 6.476562 -6.867188 6.3125 -3.390625 C 6.144531 -2.285156 5.738281 -1.410156 5.09375 -0.765625 C 4.445312 -0.117188 3.609375 0.203125 2.578125 0.203125 C 1.890625 0.203125 1.285156 -0.0195312 0.765625 -0.46875 C 0.253906 -0.925781 0 -1.59375 0 -2.46875 Z M 3.328125 -6.109375 C 2.972656 -5.734375 2.675781 -5.304688 2.4375 -4.828125 C 2.195312 -4.359375 2.078125 -4 2.078125 -3.75 C 2.078125 -3.457031 2.109375 -3.234375 2.171875 -3.078125 C 2.234375 -2.929688 2.367188 -2.859375 2.578125 -2.859375 C 2.859375 -2.859375 3.046875 -3.148438 3.140625 -3.734375 C 3.234375 -4.328125 3.296875 -5.117188 3.328125 -6.109375 Z M 3.328125 -6.109375 "/></g></g></g><g fill="#711d20" fill-opacity="1"><g transform="translate(98.530474, 58.168573)"><g/></g></g><g fill="#711d20" fill-opacity="1"><g transform="translate(106.348389, 58.168573)"><g><path d="M 2.375 -13.875 C 2.375 -13.875 2.53125 -13.863281 2.84375 -13.84375 C 3.15625 -13.820312 3.53125 -13.800781 3.96875 -13.78125 C 4.40625 -13.769531 4.820312 -13.753906 5.21875 -13.734375 C 5.625 -13.710938 5.910156 -13.691406 6.078125 -13.671875 C 6.046875 -13.597656 6.03125 -13.476562 6.03125 -13.3125 C 6.34375 -13.382812 6.695312 -13.441406 7.09375 -13.484375 C 7.5 -13.535156 7.832031 -13.5625 8.09375 -13.5625 C 9.476562 -13.5625 10.550781 -13.171875 11.3125 -12.390625 C 12.082031 -11.617188 12.46875 -10.570312 12.46875 -9.25 C 12.46875 -7.957031 12.25 -6.5 11.8125 -4.875 C 11.375 -3.25 10.828125 -1.550781 10.171875 0.21875 L 6.984375 -1.03125 C 7.597656 -2.65625 8.050781 -4.171875 8.34375 -5.578125 C 8.644531 -6.992188 8.796875 -8.253906 8.796875 -9.359375 C 8.796875 -9.566406 8.75 -9.796875 8.65625 -10.046875 C 8.5625 -10.296875 8.375 -10.421875 8.09375 -10.421875 C 7.644531 -10.421875 7.222656 -10.398438 6.828125 -10.359375 C 6.441406 -10.328125 6.070312 -10.273438 5.71875 -10.203125 C 5.457031 -7.984375 5.164062 -6.078125 4.84375 -4.484375 C 4.53125 -2.898438 4.15625 -1.5625 3.71875 -0.46875 C 3.28125 0.613281 2.738281 1.515625 2.09375 2.234375 C 1.445312 2.953125 0.671875 3.546875 -0.234375 4.015625 C -1.140625 4.492188 -2.210938 4.921875 -3.453125 5.296875 L -4.375 2.609375 C -3.15625 2.273438 -2.171875 1.835938 -1.421875 1.296875 C -0.679688 0.765625 -0.0976562 0.0664062 0.328125 -0.796875 C 0.765625 -1.671875 1.097656 -2.765625 1.328125 -4.078125 C 1.566406 -5.398438 1.769531 -7.019531 1.9375 -8.9375 L 1.546875 -8.71875 L 0.46875 -11.5 L 2.21875 -12.109375 Z M 2.375 -13.875 "/></g></g></g><g fill="#711d20" fill-opacity="1"><g transform="translate(119.378257, 58.168573)"><g><path d="M 2.359375 -13.671875 L 6.140625 -13.453125 C 6.003906 -11.117188 5.757812 -8.8125 5.40625 -6.53125 C 5.050781 -4.25 4.632812 -1.964844 4.15625 0.3125 L 0.703125 -0.3125 C 1.171875 -2.53125 1.535156 -4.773438 1.796875 -7.046875 C 2.054688 -9.316406 2.242188 -11.523438 2.359375 -13.671875 Z M 2.359375 -13.671875 "/></g></g></g><g fill="#711d20" fill-opacity="1"><g transform="translate(126.159388, 58.168573)"><g><path d="M 1.796875 -7.515625 L 5.125 -7.28125 C 4.9375 -4.988281 4.664062 -2.71875 4.3125 -0.46875 C 3.957031 1.769531 3.507812 3.972656 2.96875 6.140625 L -0.21875 5.125 C 0.0703125 4.082031 0.351562 2.835938 0.625 1.390625 C 0.894531 -0.0546875 1.132812 -1.5625 1.34375 -3.125 C 1.550781 -4.6875 1.703125 -6.148438 1.796875 -7.515625 Z M 1.9375 -8.859375 L 0.84375 -11.515625 C 2.164062 -12.140625 3.390625 -12.632812 4.515625 -13 C 5.648438 -13.375 6.617188 -13.5625 7.421875 -13.5625 C 8.804688 -13.5625 9.910156 -13.21875 10.734375 -12.53125 C 11.554688 -11.851562 11.96875 -10.78125 11.96875 -9.3125 C 11.96875 -8.039062 11.832031 -6.890625 11.5625 -5.859375 C 11.289062 -4.828125 10.910156 -3.828125 10.421875 -2.859375 C 9.941406 -1.898438 9.375 -0.863281 8.71875 0.25 C 8.71875 0.25 8.597656 0.1875 8.359375 0.0625 C 8.128906 -0.0507812 7.851562 -0.203125 7.53125 -0.390625 C 7.21875 -0.578125 6.910156 -0.753906 6.609375 -0.921875 C 6.316406 -1.085938 6.113281 -1.226562 6 -1.34375 C 6.539062 -2.238281 6.988281 -3.066406 7.34375 -3.828125 C 7.695312 -4.597656 7.960938 -5.390625 8.140625 -6.203125 C 8.316406 -7.015625 8.40625 -7.925781 8.40625 -8.9375 C 8.40625 -9.375 8.273438 -9.726562 8.015625 -10 C 7.753906 -10.28125 7.460938 -10.421875 7.140625 -10.421875 C 6.773438 -10.421875 6.101562 -10.296875 5.125 -10.046875 C 4.15625 -9.796875 3.09375 -9.398438 1.9375 -8.859375 Z M 1.9375 -8.859375 "/></g></g></g><g fill="#711d20" fill-opacity="1"><g transform="translate(138.684877, 58.168573)"><g><path d="M 2.359375 -13.671875 L 6.140625 -13.453125 C 6.003906 -11.117188 5.757812 -8.8125 5.40625 -6.53125 C 5.050781 -4.25 4.632812 -1.964844 4.15625 0.3125 L 0.703125 -0.3125 C 1.171875 -2.53125 1.535156 -4.773438 1.796875 -7.046875 C 2.054688 -9.316406 2.242188 -11.523438 2.359375 -13.671875 Z M 2.359375 -13.671875 "/></g></g></g><g fill="#711d20" fill-opacity="1"><g transform="translate(145.466008, 58.168573)"><g><path d="M 2.359375 -13.671875 L 6.140625 -13.453125 C 6.003906 -11.117188 5.757812 -8.8125 5.40625 -6.53125 C 5.050781 -4.25 4.632812 -1.964844 4.15625 0.3125 L 0.703125 -0.3125 C 1.171875 -2.53125 1.535156 -4.773438 1.796875 -7.046875 C 2.054688 -9.316406 2.242188 -11.523438 2.359375 -13.671875 Z M 2.359375 -13.671875 "/></g></g></g><g fill="#711d20" fill-opacity="1"><g transform="translate(152.247139, 58.168573)"><g><path d="M 1.40625 -8.859375 L 0.3125 -11.515625 C 1.632812 -12.140625 2.898438 -12.632812 4.109375 -13 C 5.316406 -13.375 6.238281 -13.5625 6.875 -13.5625 C 8.25 -13.5625 9.269531 -13.21875 9.9375 -12.53125 C 10.613281 -11.851562 10.953125 -10.78125 10.953125 -9.3125 C 10.953125 -8 10.675781 -6.519531 10.125 -4.875 C 9.582031 -3.226562 8.925781 -1.519531 8.15625 0.25 L 5.125 -1.125 C 5.800781 -2.726562 6.34375 -4.242188 6.75 -5.671875 C 7.164062 -7.109375 7.375 -8.335938 7.375 -9.359375 C 7.375 -9.566406 7.320312 -9.796875 7.21875 -10.046875 C 7.113281 -10.296875 6.90625 -10.421875 6.59375 -10.421875 C 6.238281 -10.421875 5.570312 -10.296875 4.59375 -10.046875 C 3.625 -9.796875 2.5625 -9.398438 1.40625 -8.859375 Z M 1.40625 -8.859375 "/></g></g></g><g transform="matrix(1, 0, 0, 1, 67, 106)"><g clip-path="url(#dc892049f1)"><g transform="matrix(1, 0, 0, 1, 42, 31)"><g clip-path="url(#03a2c589a2)"><g fill="#711d20" fill-opacity="1"><g transform="translate(35.374793, 18.070892)"><g><path d="M 1.234375 -0.015625 C 0.953125 -0.015625 0.703125 -0.117188 0.484375 -0.328125 C 0.273438 -0.535156 0.171875 -0.789062 0.171875 -1.09375 C 0.171875 -1.382812 0.273438 -1.632812 0.484375 -1.84375 C 0.703125 -2.050781 0.953125 -2.15625 1.234375 -2.15625 C 1.535156 -2.15625 1.789062 -2.050781 2 -1.84375 C 2.21875 -1.632812 2.328125 -1.382812 2.328125 -1.09375 C 2.328125 -0.789062 2.21875 -0.535156 2 -0.328125 C 1.789062 -0.117188 1.535156 -0.015625 1.234375 -0.015625 Z M 1.234375 -0.015625 "/></g></g></g><g fill="#711d20" fill-opacity="1"><g transform="translate(39.767755, 18.070892)"><g><path d="M 0 -0.015625 C 0 -0.015625 0.113281 -0.203125 0.34375 -0.578125 C 0.582031 -0.960938 0.925781 -1.445312 1.375 -2.03125 C 1.832031 -2.613281 2.382812 -3.21875 3.03125 -3.84375 C 3.550781 -4.351562 4.0625 -4.894531 4.5625 -5.46875 C 5.0625 -6.039062 5.507812 -6.617188 5.90625 -7.203125 C 6.3125 -7.785156 6.632812 -8.335938 6.875 -8.859375 C 7.125 -9.378906 7.25 -9.835938 7.25 -10.234375 C 7.25 -10.617188 7.113281 -10.921875 6.84375 -11.140625 C 6.582031 -11.367188 6.148438 -11.484375 5.546875 -11.484375 C 5.140625 -11.484375 4.8125 -11.382812 4.5625 -11.1875 C 4.320312 -11 4.125 -10.765625 3.96875 -10.484375 C 3.820312 -10.210938 3.710938 -9.9375 3.640625 -9.65625 C 3.566406 -9.375 3.519531 -9.132812 3.5 -8.9375 C 3.476562 -8.75 3.46875 -8.65625 3.46875 -8.65625 L 2.296875 -8.65625 C 2.296875 -8.65625 2.316406 -8.765625 2.359375 -8.984375 C 2.398438 -9.210938 2.484375 -9.492188 2.609375 -9.828125 C 2.734375 -10.171875 2.914062 -10.507812 3.15625 -10.84375 C 3.40625 -11.1875 3.738281 -11.472656 4.15625 -11.703125 C 4.570312 -11.929688 5.082031 -12.046875 5.6875 -12.046875 C 6.394531 -12.046875 6.972656 -11.785156 7.421875 -11.265625 C 7.867188 -10.753906 8.09375 -10.117188 8.09375 -9.359375 C 8.09375 -8.929688 8.015625 -8.484375 7.859375 -8.015625 C 7.703125 -7.546875 7.445312 -7.078125 7.09375 -6.609375 C 7 -6.484375 6.804688 -6.25 6.515625 -5.90625 C 6.234375 -5.570312 5.898438 -5.179688 5.515625 -4.734375 C 5.128906 -4.296875 4.734375 -3.84375 4.328125 -3.375 C 3.929688 -2.914062 3.554688 -2.484375 3.203125 -2.078125 C 2.859375 -1.679688 2.578125 -1.359375 2.359375 -1.109375 C 2.140625 -0.867188 2.03125 -0.75 2.03125 -0.75 L 6.328125 -0.75 L 6.09375 -0.015625 Z M 0 -0.015625 "/></g></g></g><g fill="#711d20" fill-opacity="1"><g transform="translate(2.281149, 18.070892)"><g><path d="M -0.953125 0 L 2.265625 -12.046875 L 3.671875 -12.046875 L 3.4375 -11.171875 C 4.457031 -11.921875 5.484375 -12.296875 6.515625 -12.296875 C 7.171875 -12.296875 7.703125 -12.128906 8.109375 -11.796875 C 8.523438 -11.472656 8.832031 -11.070312 9.03125 -10.59375 C 9.226562 -10.113281 9.328125 -9.628906 9.328125 -9.140625 C 9.328125 -8.859375 9.304688 -8.566406 9.265625 -8.265625 C 9.222656 -7.972656 9.175781 -7.660156 9.125 -7.328125 C 9.0625 -6.960938 8.910156 -6.5 8.671875 -5.9375 C 8.441406 -5.382812 8.109375 -4.832031 7.671875 -4.28125 C 7.234375 -3.726562 6.679688 -3.265625 6.015625 -2.890625 C 5.347656 -2.523438 4.546875 -2.34375 3.609375 -2.34375 C 3.078125 -2.34375 2.640625 -2.414062 2.296875 -2.5625 C 1.960938 -2.71875 1.628906 -2.9375 1.296875 -3.21875 L 0.453125 0 Z M 1.9375 -5.375 C 1.9375 -4.632812 2.109375 -4.050781 2.453125 -3.625 C 2.796875 -3.207031 3.207031 -3 3.6875 -3 C 4.34375 -3 4.898438 -3.140625 5.359375 -3.421875 C 5.816406 -3.710938 6.195312 -4.078125 6.5 -4.515625 C 6.8125 -4.953125 7.054688 -5.410156 7.234375 -5.890625 C 7.421875 -6.367188 7.566406 -6.804688 7.671875 -7.203125 C 7.773438 -7.617188 7.859375 -8.003906 7.921875 -8.359375 C 7.992188 -8.710938 8.03125 -9.03125 8.03125 -9.3125 C 8.03125 -10.125 7.878906 -10.722656 7.578125 -11.109375 C 7.273438 -11.503906 6.894531 -11.703125 6.4375 -11.703125 C 5.851562 -11.703125 5.207031 -11.398438 4.5 -10.796875 C 3.800781 -10.191406 3.179688 -9.3125 2.640625 -8.15625 C 2.398438 -7.632812 2.222656 -7.132812 2.109375 -6.65625 C 1.992188 -6.1875 1.9375 -5.757812 1.9375 -5.375 Z M 1.9375 -5.375 "/></g></g></g><g fill="#711d20" fill-opacity="1"><g transform="translate(11.481452, 18.070892)"><g><path d="M -0.3125 0 L 2.90625 -12.046875 L 4.3125 -12.046875 L 1.09375 0 Z M -0.3125 0 "/></g></g></g><g fill="#711d20" fill-opacity="1"><g transform="translate(14.952864, 18.070892)"><g><path d="M 1.328125 0.21875 C 0.796875 0.21875 0.390625 0.0703125 0.109375 -0.21875 C -0.167969 -0.507812 -0.3125 -0.984375 -0.3125 -1.640625 C -0.3125 -2.160156 -0.203125 -2.757812 0.015625 -3.4375 C 0.242188 -4.113281 0.601562 -4.800781 1.09375 -5.5 L 2.5 -5.5 C 2.164062 -5.082031 1.867188 -4.609375 1.609375 -4.078125 C 1.359375 -3.546875 1.15625 -3.019531 1 -2.5 C 0.851562 -1.976562 0.78125 -1.535156 0.78125 -1.171875 C 0.78125 -0.960938 0.8125 -0.789062 0.875 -0.65625 C 0.945312 -0.519531 1.050781 -0.453125 1.1875 -0.453125 C 1.4375 -0.453125 1.644531 -0.550781 1.8125 -0.75 C 1.976562 -0.957031 2.117188 -1.195312 2.234375 -1.46875 C 2.359375 -1.75 2.453125 -2.003906 2.515625 -2.234375 C 2.585938 -2.460938 2.628906 -2.597656 2.640625 -2.640625 L 5.5 -13.359375 C 5.644531 -13.898438 5.894531 -14.378906 6.25 -14.796875 C 6.613281 -15.222656 7.035156 -15.554688 7.515625 -15.796875 C 8.003906 -16.046875 8.507812 -16.171875 9.03125 -16.171875 C 9.457031 -16.171875 9.914062 -16.085938 10.40625 -15.921875 L 10.265625 -15.46875 C 10.128906 -15.5 10 -15.523438 9.875 -15.546875 C 9.757812 -15.566406 9.644531 -15.578125 9.53125 -15.578125 C 8.832031 -15.578125 8.257812 -15.351562 7.8125 -14.90625 C 7.363281 -14.457031 7.0625 -13.941406 6.90625 -13.359375 L 4.078125 -2.734375 C 3.765625 -1.578125 3.375 -0.796875 2.90625 -0.390625 C 2.445312 0.0117188 1.921875 0.21875 1.328125 0.21875 Z M 1.328125 0.21875 "/></g></g></g><g fill="#711d20" fill-opacity="1"><g transform="translate(20.681755, 18.070892)"><g><path d="M 1.234375 -6.203125 L 2.8125 -12.046875 L 4.234375 -12.046875 L 2.65625 -6.203125 Z M 1.234375 -6.203125 "/></g></g></g><g fill="#711d20" fill-opacity="1"><g transform="translate(23.96149, 18.070892)"><g><path d="M 4.28125 0.21875 C 3.425781 0.21875 2.660156 0.0429688 1.984375 -0.296875 C 1.316406 -0.640625 0.78125 -1.070312 0.375 -1.59375 C -0.0195312 -2.125 -0.226562 -2.671875 -0.25 -3.234375 L 1.125 -3.234375 C 1.238281 -2.691406 1.46875 -2.191406 1.8125 -1.734375 C 2.164062 -1.285156 2.59375 -0.925781 3.09375 -0.65625 C 3.601562 -0.382812 4.132812 -0.25 4.6875 -0.25 C 5.082031 -0.25 5.414062 -0.390625 5.6875 -0.671875 C 5.957031 -0.953125 6.164062 -1.285156 6.3125 -1.671875 C 6.46875 -2.066406 6.546875 -2.425781 6.546875 -2.75 C 6.546875 -3.21875 6.410156 -3.632812 6.140625 -4 C 5.878906 -4.363281 5.546875 -4.671875 5.140625 -4.921875 C 4.742188 -5.179688 4.320312 -5.375 3.875 -5.5 C 3.4375 -5.625 3.03125 -5.6875 2.65625 -5.6875 L 2.703125 -6.28125 C 3.097656 -6.351562 3.5625 -6.515625 4.09375 -6.765625 C 4.632812 -7.015625 5.175781 -7.335938 5.71875 -7.734375 C 6.269531 -8.128906 6.78125 -8.570312 7.25 -9.0625 C 7.71875 -9.550781 8.097656 -10.078125 8.390625 -10.640625 C 8.679688 -11.203125 8.828125 -11.769531 8.828125 -12.34375 C 8.828125 -12.707031 8.75 -13.070312 8.59375 -13.4375 C 8.445312 -13.800781 8.226562 -14.097656 7.9375 -14.328125 C 7.65625 -14.566406 7.3125 -14.6875 6.90625 -14.6875 C 6.507812 -14.6875 6.109375 -14.53125 5.703125 -14.21875 C 5.296875 -13.90625 4.910156 -13.507812 4.546875 -13.03125 C 4.179688 -12.550781 3.859375 -12.0625 3.578125 -11.5625 C 3.304688 -11.070312 3.09375 -10.640625 2.9375 -10.265625 L 1.53125 -10.265625 C 1.707031 -10.796875 1.953125 -11.359375 2.265625 -11.953125 C 2.578125 -12.546875 2.945312 -13.101562 3.375 -13.625 C 3.8125 -14.144531 4.296875 -14.570312 4.828125 -14.90625 C 5.367188 -15.238281 5.945312 -15.40625 6.5625 -15.40625 C 7.226562 -15.40625 7.832031 -15.253906 8.375 -14.953125 C 8.914062 -14.648438 9.347656 -14.234375 9.671875 -13.703125 C 10.003906 -13.179688 10.171875 -12.582031 10.171875 -11.90625 C 10.171875 -11.34375 10.015625 -10.769531 9.703125 -10.1875 C 9.390625 -9.613281 8.984375 -9.066406 8.484375 -8.546875 C 7.984375 -8.035156 7.453125 -7.566406 6.890625 -7.140625 C 6.328125 -6.722656 5.789062 -6.378906 5.28125 -6.109375 C 5.707031 -5.941406 6.125 -5.703125 6.53125 -5.390625 C 6.9375 -5.078125 7.269531 -4.710938 7.53125 -4.296875 C 7.789062 -3.878906 7.921875 -3.421875 7.921875 -2.921875 C 7.921875 -1.796875 7.578125 -0.988281 6.890625 -0.5 C 6.203125 -0.0195312 5.332031 0.21875 4.28125 0.21875 Z M 4.28125 0.21875 "/></g></g></g></g></g><g transform="matrix(1, 0, 0, 1, 22, 62)"><g clip-path="url(#e13239a66d)"><g fill="#711d20" fill-opacity="1"><g transform="translate(55.374793, 18.218249)"><g><path d="M 1.234375 -0.015625 C 0.953125 -0.015625 0.703125 -0.117188 0.484375 -0.328125 C 0.273438 -0.535156 0.171875 -0.789062 0.171875 -1.09375 C 0.171875 -1.382812 0.273438 -1.632812 0.484375 -1.84375 C 0.703125 -2.050781 0.953125 -2.15625 1.234375 -2.15625 C 1.535156 -2.15625 1.789062 -2.050781 2 -1.84375 C 2.21875 -1.632812 2.328125 -1.382812 2.328125 -1.09375 C 2.328125 -0.789062 2.21875 -0.535156 2 -0.328125 C 1.789062 -0.117188 1.535156 -0.015625 1.234375 -0.015625 Z M 1.234375 -0.015625 "/></g></g></g><g fill="#711d20" fill-opacity="1"><g transform="translate(59.767755, 18.218249)"><g><path d="M 1.171875 0.453125 C 1.097656 0.453125 1.019531 0.453125 0.9375 0.453125 C 0.863281 0.453125 0.789062 0.441406 0.71875 0.421875 L 0.875 0.046875 L 1.015625 0.046875 C 1.535156 0.046875 2.082031 -0.046875 2.65625 -0.234375 C 3.226562 -0.421875 3.757812 -0.675781 4.25 -1 C 4.738281 -1.320312 5.101562 -1.695312 5.34375 -2.125 C 5.59375 -2.539062 5.765625 -2.914062 5.859375 -3.25 C 5.960938 -3.582031 6.015625 -3.882812 6.015625 -4.15625 C 6.015625 -4.613281 5.898438 -4.953125 5.671875 -5.171875 C 5.453125 -5.390625 5.191406 -5.535156 4.890625 -5.609375 C 4.585938 -5.679688 4.289062 -5.71875 4 -5.71875 C 3.707031 -5.71875 3.5 -5.71875 3.375 -5.71875 L 3.140625 -5.71875 L 3.234375 -6.15625 C 3.523438 -6.1875 3.769531 -6.195312 3.96875 -6.1875 C 4.175781 -6.1875 4.445312 -6.234375 4.78125 -6.328125 C 5.101562 -6.410156 5.429688 -6.585938 5.765625 -6.859375 C 6.109375 -7.140625 6.425781 -7.476562 6.71875 -7.875 C 7.007812 -8.269531 7.242188 -8.671875 7.421875 -9.078125 C 7.597656 -9.492188 7.6875 -9.882812 7.6875 -10.25 C 7.6875 -10.675781 7.535156 -11.035156 7.234375 -11.328125 C 6.941406 -11.617188 6.441406 -11.765625 5.734375 -11.765625 C 5.347656 -11.765625 5.019531 -11.664062 4.75 -11.46875 C 4.476562 -11.269531 4.257812 -11.023438 4.09375 -10.734375 C 3.9375 -10.441406 3.8125 -10.144531 3.71875 -9.84375 C 3.625 -9.550781 3.554688 -9.300781 3.515625 -9.09375 C 3.484375 -8.894531 3.46875 -8.796875 3.46875 -8.796875 L 2.296875 -8.796875 C 2.296875 -8.796875 2.316406 -8.910156 2.359375 -9.140625 C 2.398438 -9.367188 2.484375 -9.648438 2.609375 -9.984375 C 2.742188 -10.316406 2.9375 -10.65625 3.1875 -11 C 3.4375 -11.34375 3.765625 -11.625 4.171875 -11.84375 C 4.585938 -12.070312 5.101562 -12.1875 5.71875 -12.1875 C 6.601562 -12.1875 7.300781 -11.992188 7.8125 -11.609375 C 8.332031 -11.234375 8.59375 -10.6875 8.59375 -9.96875 C 8.59375 -9.613281 8.519531 -9.226562 8.375 -8.8125 C 8.226562 -8.394531 8.007812 -7.941406 7.71875 -7.453125 C 7.476562 -7.078125 7.210938 -6.800781 6.921875 -6.625 C 6.628906 -6.457031 6.367188 -6.347656 6.140625 -6.296875 C 5.921875 -6.242188 5.800781 -6.195312 5.78125 -6.15625 C 5.976562 -6.15625 6.191406 -6.066406 6.421875 -5.890625 C 6.660156 -5.722656 6.859375 -5.484375 7.015625 -5.171875 C 7.179688 -4.859375 7.265625 -4.484375 7.265625 -4.046875 C 7.265625 -3.328125 7.078125 -2.6875 6.703125 -2.125 C 6.328125 -1.570312 5.828125 -1.101562 5.203125 -0.71875 C 4.585938 -0.34375 3.925781 -0.0546875 3.21875 0.140625 C 2.519531 0.347656 1.835938 0.453125 1.171875 0.453125 Z M 1.171875 0.453125 "/></g></g></g><g fill="#711d20" fill-opacity="1"><g transform="translate(2.460106, 18.218249)"><g><path d="M -1.453125 3.265625 L 2.65625 -12.046875 L 4.078125 -12.046875 L -0.015625 3.265625 Z M -1.453125 3.265625 "/></g></g></g><g fill="#711d20" fill-opacity="1"><g transform="translate(5.612068, 18.218249)"><g><path d="M 1.234375 -6.203125 L 2.8125 -12.046875 L 4.234375 -12.046875 L 2.65625 -6.203125 Z M 1.234375 -6.203125 "/></g></g></g><g fill="#711d20" fill-opacity="1"><g transform="translate(8.891803, 18.218249)"><g><path d="M 3.5 0 C 3.78125 -1.0625 4 -1.890625 4.15625 -2.484375 C 4.3125 -3.085938 4.425781 -3.519531 4.5 -3.78125 C 4.570312 -4.039062 4.613281 -4.207031 4.625 -4.28125 C 4.632812 -4.351562 4.640625 -4.394531 4.640625 -4.40625 C 4.671875 -4.582031 4.671875 -4.773438 4.640625 -4.984375 C 4.617188 -5.203125 4.484375 -5.429688 4.234375 -5.671875 C 4.285156 -5.648438 4.332031 -5.640625 4.375 -5.640625 C 4.425781 -5.640625 4.484375 -5.640625 4.546875 -5.640625 C 4.742188 -5.640625 4.953125 -5.664062 5.171875 -5.71875 C 5.398438 -5.769531 5.613281 -5.820312 5.8125 -5.875 C 6.550781 -6.132812 7.148438 -6.535156 7.609375 -7.078125 C 8.066406 -7.617188 8.296875 -8.285156 8.296875 -9.078125 C 8.296875 -9.503906 8.210938 -9.925781 8.046875 -10.34375 C 7.878906 -10.757812 7.628906 -11.109375 7.296875 -11.390625 C 6.972656 -11.671875 6.566406 -11.8125 6.078125 -11.8125 C 5.546875 -11.8125 5.03125 -11.648438 4.53125 -11.328125 C 4.039062 -11.003906 3.601562 -10.613281 3.21875 -10.15625 C 2.832031 -9.695312 2.523438 -9.238281 2.296875 -8.78125 L 0.890625 -8.78125 C 1.148438 -9.363281 1.535156 -9.921875 2.046875 -10.453125 C 2.554688 -10.984375 3.171875 -11.421875 3.890625 -11.765625 C 4.617188 -12.117188 5.414062 -12.296875 6.28125 -12.296875 C 6.945312 -12.296875 7.53125 -12.140625 8.03125 -11.828125 C 8.539062 -11.515625 8.9375 -11.097656 9.21875 -10.578125 C 9.507812 -10.054688 9.65625 -9.472656 9.65625 -8.828125 C 9.65625 -8.085938 9.476562 -7.457031 9.125 -6.9375 C 8.769531 -6.414062 8.300781 -6.003906 7.71875 -5.703125 C 7.144531 -5.410156 6.519531 -5.210938 5.84375 -5.109375 C 5.957031 -5.015625 6.023438 -4.867188 6.046875 -4.671875 C 6.066406 -4.484375 6.0625 -4.328125 6.03125 -4.203125 L 4.90625 0 Z M 3.5 0 "/></g></g></g><g fill="#711d20" fill-opacity="1"><g transform="translate(18.326374, 18.218249)"><g/></g></g><g fill="#711d20" fill-opacity="1"><g transform="translate(23.65062, 18.218249)"><g><path d="M -2.09375 3.28125 L -0.078125 -4.203125 L 1.34375 -4.203125 C 1.125 -3.734375 1.015625 -3.242188 1.015625 -2.734375 C 1.015625 -2.210938 1.164062 -1.820312 1.46875 -1.5625 C 1.769531 -1.3125 2.164062 -1.1875 2.65625 -1.1875 C 3.175781 -1.1875 3.660156 -1.367188 4.109375 -1.734375 C 4.554688 -2.109375 4.957031 -2.578125 5.3125 -3.140625 C 5.675781 -3.703125 5.992188 -4.289062 6.265625 -4.90625 C 6.535156 -5.53125 6.765625 -6.082031 6.953125 -6.5625 C 7.128906 -7.0625 7.296875 -7.566406 7.453125 -8.078125 C 7.609375 -8.597656 7.6875 -9.125 7.6875 -9.65625 C 7.6875 -9.96875 7.644531 -10.269531 7.5625 -10.5625 C 7.476562 -10.863281 7.332031 -11.113281 7.125 -11.3125 C 6.914062 -11.507812 6.628906 -11.609375 6.265625 -11.609375 C 5.785156 -11.609375 5.335938 -11.488281 4.921875 -11.25 C 4.515625 -11.019531 4.148438 -10.734375 3.828125 -10.390625 C 3.503906 -10.046875 3.242188 -9.710938 3.046875 -9.390625 C 2.847656 -9.066406 2.71875 -8.820312 2.65625 -8.65625 L 1.234375 -8.65625 C 1.378906 -9.15625 1.648438 -9.644531 2.046875 -10.125 C 2.441406 -10.601562 2.835938 -11 3.234375 -11.3125 C 3.609375 -11.601562 4.019531 -11.835938 4.46875 -12.015625 C 4.914062 -12.203125 5.378906 -12.296875 5.859375 -12.296875 C 6.492188 -12.296875 7.035156 -12.140625 7.484375 -11.828125 C 7.929688 -11.523438 8.269531 -11.125 8.5 -10.625 C 8.738281 -10.125 8.859375 -9.566406 8.859375 -8.953125 C 8.859375 -8.691406 8.84375 -8.429688 8.8125 -8.171875 C 8.78125 -7.910156 8.726562 -7.660156 8.65625 -7.421875 C 8.53125 -6.953125 8.347656 -6.414062 8.109375 -5.8125 C 7.867188 -5.21875 7.585938 -4.613281 7.265625 -4 C 6.941406 -3.394531 6.566406 -2.835938 6.140625 -2.328125 C 5.710938 -1.816406 5.242188 -1.398438 4.734375 -1.078125 C 4.222656 -0.753906 3.664062 -0.59375 3.0625 -0.59375 C 2.65625 -0.59375 2.21875 -0.679688 1.75 -0.859375 C 1.289062 -1.035156 0.90625 -1.257812 0.59375 -1.53125 L -0.6875 3.28125 Z M -2.09375 3.28125 "/></g></g></g><g fill="#711d20" fill-opacity="1"><g transform="translate(32.424989, 18.218249)"><g><path d="M 6.78125 -7.015625 C 6.9375 -7.566406 7.050781 -8.078125 7.125 -8.546875 C 7.207031 -9.015625 7.25 -9.429688 7.25 -9.796875 C 7.25 -11.117188 6.820312 -11.78125 5.96875 -11.78125 C 5.375 -11.78125 4.847656 -11.617188 4.390625 -11.296875 C 3.929688 -10.984375 3.550781 -10.582031 3.25 -10.09375 C 2.945312 -9.613281 2.707031 -9.125 2.53125 -8.625 L 1.109375 -8.625 C 1.453125 -9.34375 1.835938 -9.972656 2.265625 -10.515625 C 2.703125 -11.066406 3.222656 -11.5 3.828125 -11.8125 C 4.441406 -12.132812 5.175781 -12.296875 6.03125 -12.296875 C 6.863281 -12.296875 7.476562 -12.019531 7.875 -11.46875 C 8.28125 -10.925781 8.484375 -10.191406 8.484375 -9.265625 C 8.484375 -8.910156 8.457031 -8.535156 8.40625 -8.140625 C 8.351562 -7.753906 8.269531 -7.347656 8.15625 -6.921875 L 6.3125 0 L 4.90625 0 Z M 6.78125 -7.015625 "/></g></g></g><g fill="#711d20" fill-opacity="1"><g transform="translate(41.050272, 18.218249)"><g><path d="M -0.3125 0 L 2.90625 -12.046875 L 4.3125 -12.046875 L 1.09375 0 Z M -0.3125 0 "/></g></g></g><g fill="#711d20" fill-opacity="1"><g transform="translate(44.521684, 18.218249)"><g><path d="M 3.515625 0.21875 C 2.578125 0.21875 1.804688 0.0234375 1.203125 -0.359375 C 0.597656 -0.753906 0.296875 -1.46875 0.296875 -2.5 C 0.296875 -3.375 0.441406 -4.253906 0.734375 -5.140625 C 1.035156 -6.035156 1.4375 -6.882812 1.9375 -7.6875 C 2.4375 -8.488281 2.984375 -9.203125 3.578125 -9.828125 C 4.171875 -10.453125 4.769531 -10.9375 5.375 -11.28125 C 5.1875 -11.539062 4.972656 -11.773438 4.734375 -11.984375 C 4.492188 -12.203125 4.238281 -12.40625 3.96875 -12.59375 L 4.140625 -13.125 C 4.546875 -12.925781 4.882812 -12.726562 5.15625 -12.53125 C 5.4375 -12.332031 5.734375 -12.054688 6.046875 -11.703125 C 6.703125 -12.054688 7.378906 -12.367188 8.078125 -12.640625 C 8.785156 -12.921875 9.515625 -13.0625 10.265625 -13.0625 L 10.140625 -12.578125 C 9.460938 -12.398438 8.859375 -12.195312 8.328125 -11.96875 C 7.804688 -11.75 7.253906 -11.441406 6.671875 -11.046875 C 7.171875 -10.441406 7.539062 -9.726562 7.78125 -8.90625 C 8.03125 -8.082031 8.15625 -7.285156 8.15625 -6.515625 C 8.15625 -6.078125 8.101562 -5.566406 8 -4.984375 C 7.894531 -4.398438 7.726562 -3.800781 7.5 -3.1875 C 7.269531 -2.582031 6.96875 -2.023438 6.59375 -1.515625 C 6.226562 -1.003906 5.789062 -0.585938 5.28125 -0.265625 C 4.769531 0.0546875 4.179688 0.21875 3.515625 0.21875 Z M 1.578125 -2.296875 C 1.578125 -1.742188 1.703125 -1.285156 1.953125 -0.921875 C 2.203125 -0.566406 2.628906 -0.390625 3.234375 -0.390625 C 3.742188 -0.390625 4.195312 -0.554688 4.59375 -0.890625 C 5 -1.222656 5.347656 -1.65625 5.640625 -2.1875 C 5.929688 -2.71875 6.164062 -3.285156 6.34375 -3.890625 C 6.53125 -4.503906 6.671875 -5.101562 6.765625 -5.6875 C 6.859375 -6.269531 6.90625 -6.769531 6.90625 -7.1875 C 6.90625 -7.832031 6.816406 -8.40625 6.640625 -8.90625 C 6.460938 -9.414062 6.222656 -9.945312 5.921875 -10.5 C 5.367188 -10.050781 4.832031 -9.507812 4.3125 -8.875 C 3.789062 -8.238281 3.320312 -7.554688 2.90625 -6.828125 C 2.5 -6.097656 2.175781 -5.34375 1.9375 -4.5625 C 1.695312 -3.789062 1.578125 -3.035156 1.578125 -2.296875 Z M 1.578125 -2.296875 "/></g></g></g></g></g><g clip-path="url(#5adb24560f)"><g transform="matrix(1, 0, 0, 1, 0.000000000000014211, 94)"><g clip-path="url(#a0cd5b9767)"><g fill="#711d20" fill-opacity="1"><g transform="translate(77.374793, 17.39539)"><g><path d="M 1.234375 -0.015625 C 0.953125 -0.015625 0.703125 -0.117188 0.484375 -0.328125 C 0.273438 -0.535156 0.171875 -0.789062 0.171875 -1.09375 C 0.171875 -1.382812 0.273438 -1.632812 0.484375 -1.84375 C 0.703125 -2.050781 0.953125 -2.15625 1.234375 -2.15625 C 1.535156 -2.15625 1.789062 -2.050781 2 -1.84375 C 2.21875 -1.632812 2.328125 -1.382812 2.328125 -1.09375 C 2.328125 -0.789062 2.21875 -0.535156 2 -0.328125 C 1.789062 -0.117188 1.535156 -0.015625 1.234375 -0.015625 Z M 1.234375 -0.015625 "/></g></g></g><g fill="#711d20" fill-opacity="1"><g transform="translate(81.767754, 17.39539)"><g><path d="M 5.015625 -3.453125 C 5.015625 -3.453125 4.898438 -3.441406 4.671875 -3.421875 C 4.453125 -3.410156 4.050781 -3.382812 3.46875 -3.34375 C 2.882812 -3.3125 2.035156 -3.253906 0.921875 -3.171875 L 6.09375 -12.046875 L 7.5 -12.046875 L 2.734375 -3.875 C 3.085938 -3.9375 3.453125 -3.972656 3.828125 -3.984375 C 4.203125 -3.992188 4.515625 -4.003906 4.765625 -4.015625 C 5.023438 -4.023438 5.15625 -4.03125 5.15625 -4.03125 L 5.921875 -6.75 L 7.328125 -6.75 L 6.578125 -4 L 7.375 -4 L 7.21875 -3.4375 L 6.421875 -3.4375 L 5.515625 -0.015625 L 4.078125 -0.015625 Z M 5.015625 -3.453125 "/></g></g></g><g fill="#711d20" fill-opacity="1"><g transform="translate(0.691255, 17.39539)"><g><path d="M 3.5 0 C 3.78125 -1.0625 4 -1.890625 4.15625 -2.484375 C 4.3125 -3.085938 4.425781 -3.519531 4.5 -3.78125 C 4.570312 -4.039062 4.613281 -4.207031 4.625 -4.28125 C 4.632812 -4.351562 4.640625 -4.394531 4.640625 -4.40625 C 4.671875 -4.582031 4.671875 -4.773438 4.640625 -4.984375 C 4.617188 -5.203125 4.484375 -5.429688 4.234375 -5.671875 C 4.285156 -5.648438 4.332031 -5.640625 4.375 -5.640625 C 4.425781 -5.640625 4.484375 -5.640625 4.546875 -5.640625 C 4.742188 -5.640625 4.953125 -5.664062 5.171875 -5.71875 C 5.398438 -5.769531 5.613281 -5.820312 5.8125 -5.875 C 6.550781 -6.132812 7.148438 -6.535156 7.609375 -7.078125 C 8.066406 -7.617188 8.296875 -8.285156 8.296875 -9.078125 C 8.296875 -9.503906 8.210938 -9.925781 8.046875 -10.34375 C 7.878906 -10.757812 7.628906 -11.109375 7.296875 -11.390625 C 6.972656 -11.671875 6.566406 -11.8125 6.078125 -11.8125 C 5.546875 -11.8125 5.03125 -11.648438 4.53125 -11.328125 C 4.039062 -11.003906 3.601562 -10.613281 3.21875 -10.15625 C 2.832031 -9.695312 2.523438 -9.238281 2.296875 -8.78125 L 0.890625 -8.78125 C 1.148438 -9.363281 1.535156 -9.921875 2.046875 -10.453125 C 2.554688 -10.984375 3.171875 -11.421875 3.890625 -11.765625 C 4.617188 -12.117188 5.414062 -12.296875 6.28125 -12.296875 C 6.945312 -12.296875 7.53125 -12.140625 8.03125 -11.828125 C 8.539062 -11.515625 8.9375 -11.097656 9.21875 -10.578125 C 9.507812 -10.054688 9.65625 -9.472656 9.65625 -8.828125 C 9.65625 -8.085938 9.476562 -7.457031 9.125 -6.9375 C 8.769531 -6.414062 8.300781 -6.003906 7.71875 -5.703125 C 7.144531 -5.410156 6.519531 -5.210938 5.84375 -5.109375 C 5.957031 -5.015625 6.023438 -4.867188 6.046875 -4.671875 C 6.066406 -4.484375 6.0625 -4.328125 6.03125 -4.203125 L 4.90625 0 Z M 3.5 0 "/></g></g></g><g fill="#711d20" fill-opacity="1"><g transform="translate(10.125826, 17.39539)"><g><path d="M -2.6875 2.8125 C -3.039062 2.8125 -3.382812 2.757812 -3.71875 2.65625 C -4.050781 2.550781 -4.367188 2.40625 -4.671875 2.21875 L -4.3125 1.6875 C -4.15625 1.8125 -3.972656 1.910156 -3.765625 1.984375 C -3.566406 2.066406 -3.367188 2.109375 -3.171875 2.109375 C -2.628906 2.109375 -2.140625 1.945312 -1.703125 1.625 C -1.273438 1.3125 -0.910156 0.910156 -0.609375 0.421875 C -0.304688 -0.0664062 -0.0820312 -0.570312 0.0625 -1.09375 L 3.03125 -12.0625 L 4.4375 -12.0625 C 3.945312 -10.21875 3.445312 -8.378906 2.9375 -6.546875 C 2.4375 -4.710938 1.953125 -2.867188 1.484375 -1.015625 C 1.316406 -0.328125 1.054688 0.304688 0.703125 0.890625 C 0.347656 1.472656 -0.101562 1.9375 -0.65625 2.28125 C -1.207031 2.632812 -1.882812 2.8125 -2.6875 2.8125 Z M -2.6875 2.8125 "/></g></g></g><g fill="#711d20" fill-opacity="1"><g transform="translate(13.767614, 17.39539)"><g><path d="M 5.5 0.15625 C 5.21875 0.15625 4.957031 0.0703125 4.71875 -0.09375 C 4.488281 -0.257812 4.289062 -0.441406 4.125 -0.640625 C 3.957031 -0.847656 3.835938 -1.019531 3.765625 -1.15625 C 3.640625 -1.394531 3.519531 -1.691406 3.40625 -2.046875 C 3.289062 -2.410156 3.179688 -2.773438 3.078125 -3.140625 C 2.984375 -3.503906 2.882812 -3.8125 2.78125 -4.0625 C 2.675781 -4.3125 2.566406 -4.4375 2.453125 -4.4375 C 2.304688 -4.4375 2.140625 -4.238281 1.953125 -3.84375 C 1.773438 -3.457031 1.515625 -2.90625 1.171875 -2.1875 C 1.015625 -1.863281 0.875 -1.53125 0.75 -1.1875 C 0.632812 -0.851562 0.546875 -0.570312 0.484375 -0.34375 C 0.421875 -0.113281 0.390625 0 0.390625 0 L -1.046875 0 C -1.046875 0 -0.988281 -0.15625 -0.875 -0.46875 C -0.757812 -0.789062 -0.609375 -1.191406 -0.421875 -1.671875 C -0.242188 -2.160156 -0.0390625 -2.65625 0.1875 -3.15625 C 0.414062 -3.65625 0.644531 -4.070312 0.875 -4.40625 C 1.039062 -4.664062 1.269531 -4.863281 1.5625 -5 C 1.851562 -5.132812 2.15625 -5.203125 2.46875 -5.203125 C 3.175781 -5.203125 3.679688 -4.875 3.984375 -4.21875 C 4.128906 -3.914062 4.269531 -3.566406 4.40625 -3.171875 C 4.539062 -2.785156 4.671875 -2.40625 4.796875 -2.03125 C 4.921875 -1.65625 5.039062 -1.347656 5.15625 -1.109375 C 5.28125 -0.867188 5.398438 -0.75 5.515625 -0.75 C 5.546875 -0.75 5.609375 -0.75 5.703125 -0.75 C 5.804688 -0.757812 5.863281 -0.785156 5.875 -0.828125 C 6.1875 -1.316406 6.523438 -1.921875 6.890625 -2.640625 C 7.253906 -3.367188 7.570312 -4.164062 7.84375 -5.03125 C 8.113281 -5.90625 8.25 -6.785156 8.25 -7.671875 C 8.25 -8.515625 8.144531 -9.242188 7.9375 -9.859375 C 7.726562 -10.472656 7.472656 -10.945312 7.171875 -11.28125 C 6.878906 -11.613281 6.59375 -11.78125 6.3125 -11.78125 C 6 -11.78125 5.664062 -11.648438 5.3125 -11.390625 C 4.96875 -11.140625 4.632812 -10.820312 4.3125 -10.4375 C 4.132812 -10.257812 3.972656 -10.023438 3.828125 -9.734375 C 3.679688 -9.453125 3.539062 -9.171875 3.40625 -8.890625 C 3.28125 -8.609375 3.179688 -8.375 3.109375 -8.1875 C 3.035156 -8 3 -7.90625 3 -7.90625 L 1.640625 -7.90625 C 1.640625 -7.90625 1.6875 -8.050781 1.78125 -8.34375 C 1.875 -8.644531 2.03125 -9.015625 2.25 -9.453125 C 2.46875 -9.890625 2.753906 -10.320312 3.109375 -10.75 C 3.460938 -11.1875 3.898438 -11.550781 4.421875 -11.84375 C 4.941406 -12.144531 5.554688 -12.296875 6.265625 -12.296875 C 6.992188 -12.296875 7.582031 -12.128906 8.03125 -11.796875 C 8.476562 -11.472656 8.816406 -11.0625 9.046875 -10.5625 C 9.285156 -10.070312 9.441406 -9.570312 9.515625 -9.0625 C 9.597656 -8.550781 9.640625 -8.101562 9.640625 -7.71875 C 9.640625 -7.5625 9.632812 -7.421875 9.625 -7.296875 C 9.613281 -7.179688 9.601562 -7.085938 9.59375 -7.015625 C 9.507812 -6.253906 9.332031 -5.457031 9.0625 -4.625 C 8.800781 -3.800781 8.484375 -3.023438 8.109375 -2.296875 C 7.734375 -1.578125 7.320312 -0.988281 6.875 -0.53125 C 6.425781 -0.0703125 5.96875 0.15625 5.5 0.15625 Z M 5.5 0.15625 "/></g></g></g><g fill="#711d20" fill-opacity="1"><g transform="translate(23.542938, 17.39539)"><g/></g></g><g fill="#711d20" fill-opacity="1"><g transform="translate(28.867184, 17.39539)"><g><path d="M 3.453125 0.21875 C 2.398438 0.21875 1.640625 -0.078125 1.171875 -0.671875 C 0.703125 -1.265625 0.46875 -2.03125 0.46875 -2.96875 C 0.46875 -3.5625 0.5625 -4.257812 0.75 -5.0625 C 0.945312 -5.863281 1.222656 -6.6875 1.578125 -7.53125 C 1.929688 -8.375 2.359375 -9.15625 2.859375 -9.875 C 3.367188 -10.59375 3.9375 -11.175781 4.5625 -11.625 C 5.1875 -12.070312 5.859375 -12.296875 6.578125 -12.296875 C 7.160156 -12.296875 7.679688 -12.128906 8.140625 -11.796875 C 8.609375 -11.472656 8.976562 -11.023438 9.25 -10.453125 C 9.519531 -9.878906 9.65625 -9.222656 9.65625 -8.484375 C 9.65625 -7.898438 9.554688 -7.226562 9.359375 -6.46875 C 9.160156 -5.707031 8.875 -4.9375 8.5 -4.15625 C 8.132812 -3.382812 7.695312 -2.664062 7.1875 -2 C 6.675781 -1.332031 6.109375 -0.796875 5.484375 -0.390625 C 4.859375 0.0117188 4.179688 0.21875 3.453125 0.21875 Z M 1.75 -2.359375 C 1.75 -1.796875 1.875 -1.332031 2.125 -0.96875 C 2.375 -0.601562 2.796875 -0.421875 3.390625 -0.421875 C 3.816406 -0.421875 4.234375 -0.585938 4.640625 -0.921875 C 5.054688 -1.253906 5.457031 -1.695312 5.84375 -2.25 C 6.226562 -2.8125 6.582031 -3.425781 6.90625 -4.09375 C 7.226562 -4.757812 7.507812 -5.429688 7.75 -6.109375 C 8 -6.796875 8.191406 -7.4375 8.328125 -8.03125 C 8.460938 -8.632812 8.53125 -9.132812 8.53125 -9.53125 C 8.53125 -10.238281 8.390625 -10.769531 8.109375 -11.125 C 7.828125 -11.476562 7.46875 -11.65625 7.03125 -11.65625 C 6.550781 -11.65625 6.085938 -11.488281 5.640625 -11.15625 C 5.191406 -10.820312 4.765625 -10.378906 4.359375 -9.828125 C 3.960938 -9.273438 3.601562 -8.65625 3.28125 -7.96875 C 2.96875 -7.289062 2.695312 -6.601562 2.46875 -5.90625 C 2.238281 -5.207031 2.0625 -4.546875 1.9375 -3.921875 C 1.8125 -3.304688 1.75 -2.785156 1.75 -2.359375 Z M 1.75 -2.359375 "/></g></g></g><g fill="#711d20" fill-opacity="1"><g transform="translate(38.493433, 17.39539)"><g><path d="M 3.5 0 C 3.78125 -1.0625 4 -1.890625 4.15625 -2.484375 C 4.3125 -3.085938 4.425781 -3.519531 4.5 -3.78125 C 4.570312 -4.039062 4.613281 -4.207031 4.625 -4.28125 C 4.632812 -4.351562 4.640625 -4.394531 4.640625 -4.40625 C 4.671875 -4.582031 4.671875 -4.773438 4.640625 -4.984375 C 4.617188 -5.203125 4.484375 -5.429688 4.234375 -5.671875 C 4.285156 -5.648438 4.332031 -5.640625 4.375 -5.640625 C 4.425781 -5.640625 4.484375 -5.640625 4.546875 -5.640625 C 4.742188 -5.640625 4.953125 -5.664062 5.171875 -5.71875 C 5.398438 -5.769531 5.613281 -5.820312 5.8125 -5.875 C 6.550781 -6.132812 7.148438 -6.535156 7.609375 -7.078125 C 8.066406 -7.617188 8.296875 -8.285156 8.296875 -9.078125 C 8.296875 -9.503906 8.210938 -9.925781 8.046875 -10.34375 C 7.878906 -10.757812 7.628906 -11.109375 7.296875 -11.390625 C 6.972656 -11.671875 6.566406 -11.8125 6.078125 -11.8125 C 5.546875 -11.8125 5.03125 -11.648438 4.53125 -11.328125 C 4.039062 -11.003906 3.601562 -10.613281 3.21875 -10.15625 C 2.832031 -9.695312 2.523438 -9.238281 2.296875 -8.78125 L 0.890625 -8.78125 C 1.148438 -9.363281 1.535156 -9.921875 2.046875 -10.453125 C 2.554688 -10.984375 3.171875 -11.421875 3.890625 -11.765625 C 4.617188 -12.117188 5.414062 -12.296875 6.28125 -12.296875 C 6.945312 -12.296875 7.53125 -12.140625 8.03125 -11.828125 C 8.539062 -11.515625 8.9375 -11.097656 9.21875 -10.578125 C 9.507812 -10.054688 9.65625 -9.472656 9.65625 -8.828125 C 9.65625 -8.085938 9.476562 -7.457031 9.125 -6.9375 C 8.769531 -6.414062 8.300781 -6.003906 7.71875 -5.703125 C 7.144531 -5.410156 6.519531 -5.210938 5.84375 -5.109375 C 5.957031 -5.015625 6.023438 -4.867188 6.046875 -4.671875 C 6.066406 -4.484375 6.0625 -4.328125 6.03125 -4.203125 L 4.90625 0 Z M 3.5 0 "/></g></g></g><g fill="#711d20" fill-opacity="1"><g transform="translate(47.928005, 17.39539)"><g><path d="M 4.28125 0.21875 C 3.425781 0.21875 2.660156 0.0429688 1.984375 -0.296875 C 1.316406 -0.640625 0.78125 -1.070312 0.375 -1.59375 C -0.0195312 -2.125 -0.226562 -2.671875 -0.25 -3.234375 L 1.125 -3.234375 C 1.238281 -2.691406 1.46875 -2.191406 1.8125 -1.734375 C 2.164062 -1.285156 2.59375 -0.925781 3.09375 -0.65625 C 3.601562 -0.382812 4.132812 -0.25 4.6875 -0.25 C 5.082031 -0.25 5.414062 -0.390625 5.6875 -0.671875 C 5.957031 -0.953125 6.164062 -1.285156 6.3125 -1.671875 C 6.46875 -2.066406 6.546875 -2.425781 6.546875 -2.75 C 6.546875 -3.21875 6.410156 -3.632812 6.140625 -4 C 5.878906 -4.363281 5.546875 -4.671875 5.140625 -4.921875 C 4.742188 -5.179688 4.320312 -5.375 3.875 -5.5 C 3.4375 -5.625 3.03125 -5.6875 2.65625 -5.6875 L 2.703125 -6.28125 C 3.097656 -6.351562 3.5625 -6.515625 4.09375 -6.765625 C 4.632812 -7.015625 5.175781 -7.335938 5.71875 -7.734375 C 6.269531 -8.128906 6.78125 -8.570312 7.25 -9.0625 C 7.71875 -9.550781 8.097656 -10.078125 8.390625 -10.640625 C 8.679688 -11.203125 8.828125 -11.769531 8.828125 -12.34375 C 8.828125 -12.707031 8.75 -13.070312 8.59375 -13.4375 C 8.445312 -13.800781 8.226562 -14.097656 7.9375 -14.328125 C 7.65625 -14.566406 7.3125 -14.6875 6.90625 -14.6875 C 6.507812 -14.6875 6.109375 -14.53125 5.703125 -14.21875 C 5.296875 -13.90625 4.910156 -13.507812 4.546875 -13.03125 C 4.179688 -12.550781 3.859375 -12.0625 3.578125 -11.5625 C 3.304688 -11.070312 3.09375 -10.640625 2.9375 -10.265625 L 1.53125 -10.265625 C 1.707031 -10.796875 1.953125 -11.359375 2.265625 -11.953125 C 2.578125 -12.546875 2.945312 -13.101562 3.375 -13.625 C 3.8125 -14.144531 4.296875 -14.570312 4.828125 -14.90625 C 5.367188 -15.238281 5.945312 -15.40625 6.5625 -15.40625 C 7.226562 -15.40625 7.832031 -15.253906 8.375 -14.953125 C 8.914062 -14.648438 9.347656 -14.234375 9.671875 -13.703125 C 10.003906 -13.179688 10.171875 -12.582031 10.171875 -11.90625 C 10.171875 -11.34375 10.015625 -10.769531 9.703125 -10.1875 C 9.390625 -9.613281 8.984375 -9.066406 8.484375 -8.546875 C 7.984375 -8.035156 7.453125 -7.566406 6.890625 -7.140625 C 6.328125 -6.722656 5.789062 -6.378906 5.28125 -6.109375 C 5.707031 -5.941406 6.125 -5.703125 6.53125 -5.390625 C 6.9375 -5.078125 7.269531 -4.710938 7.53125 -4.296875 C 7.789062 -3.878906 7.921875 -3.421875 7.921875 -2.921875 C 7.921875 -1.796875 7.578125 -0.988281 6.890625 -0.5 C 6.203125 -0.0195312 5.332031 0.21875 4.28125 0.21875 Z M 4.28125 0.21875 "/></g></g></g><g fill="#711d20" fill-opacity="1"><g transform="translate(57.213501, 17.39539)"><g><path d="M 6.78125 -7.015625 C 6.9375 -7.566406 7.050781 -8.078125 7.125 -8.546875 C 7.207031 -9.015625 7.25 -9.429688 7.25 -9.796875 C 7.25 -11.117188 6.820312 -11.78125 5.96875 -11.78125 C 5.375 -11.78125 4.847656 -11.617188 4.390625 -11.296875 C 3.929688 -10.984375 3.550781 -10.582031 3.25 -10.09375 C 2.945312 -9.613281 2.707031 -9.125 2.53125 -8.625 L 1.109375 -8.625 C 1.453125 -9.34375 1.835938 -9.972656 2.265625 -10.515625 C 2.703125 -11.066406 3.222656 -11.5 3.828125 -11.8125 C 4.441406 -12.132812 5.175781 -12.296875 6.03125 -12.296875 C 6.863281 -12.296875 7.476562 -12.019531 7.875 -11.46875 C 8.28125 -10.925781 8.484375 -10.191406 8.484375 -9.265625 C 8.484375 -8.910156 8.457031 -8.535156 8.40625 -8.140625 C 8.351562 -7.753906 8.269531 -7.347656 8.15625 -6.921875 L 6.3125 0 L 4.90625 0 Z M 6.78125 -7.015625 "/></g></g></g><g fill="#711d20" fill-opacity="1"><g transform="translate(65.838784, 17.39539)"><g><path d="M 5.78125 0.21875 C 5.445312 0.21875 5.207031 0.15625 5.0625 0.03125 C 4.925781 -0.09375 4.835938 -0.226562 4.796875 -0.375 C 4.753906 -0.519531 4.722656 -0.632812 4.703125 -0.71875 L 3.34375 -8.65625 L 1 0 L -0.390625 0 L 2.828125 -12.046875 L 4.21875 -12.046875 C 4.21875 -12.046875 4.191406 -11.898438 4.140625 -11.609375 C 4.097656 -11.316406 4.078125 -11.035156 4.078125 -10.765625 C 4.078125 -10.648438 4.078125 -10.550781 4.078125 -10.46875 C 4.085938 -10.394531 4.097656 -10.300781 4.109375 -10.1875 L 5.875 -0.640625 L 9.09375 -12.9375 L 10.53125 -12.9375 L 7.265625 -0.71875 C 7.191406 -0.445312 7.070312 -0.222656 6.90625 -0.046875 C 6.738281 0.128906 6.523438 0.21875 6.265625 0.21875 Z M 5.78125 0.21875 "/></g></g></g></g></g></g><g clip-path="url(#dc77fee3a4)"><g transform="matrix(1, 0, 0, 1, 37, -0.000000000000028422)"><g clip-path="url(#120613a16a)"><g fill="#711d20" fill-opacity="1"><g transform="translate(42.124044, 17.92352)"><g><path d="M 1.234375 -0.015625 C 0.953125 -0.015625 0.703125 -0.117188 0.484375 -0.328125 C 0.273438 -0.535156 0.171875 -0.789062 0.171875 -1.09375 C 0.171875 -1.382812 0.273438 -1.632812 0.484375 -1.84375 C 0.703125 -2.050781 0.953125 -2.15625 1.234375 -2.15625 C 1.535156 -2.15625 1.789062 -2.050781 2 -1.84375 C 2.21875 -1.632812 2.328125 -1.382812 2.328125 -1.09375 C 2.328125 -0.789062 2.21875 -0.535156 2 -0.328125 C 1.789062 -0.117188 1.535156 -0.015625 1.234375 -0.015625 Z M 1.234375 -0.015625 "/></g></g></g><g fill="#711d20" fill-opacity="1"><g transform="translate(46.517006, 17.92352)"><g><path d="M 2.515625 0.0625 L 5.734375 -11.984375 L 7.140625 -11.984375 L 3.921875 0.0625 Z M 2.515625 0.0625 "/></g></g></g><g fill="#711d20" fill-opacity="1"><g transform="translate(3.770561, 17.92352)"><g><path d="M -2.390625 1.578125 C -2.253906 1.617188 -2.109375 1.640625 -1.953125 1.640625 C -1.554688 1.640625 -1.242188 1.5 -1.015625 1.21875 C -0.796875 0.945312 -0.617188 0.625 -0.484375 0.25 C -0.347656 -0.121094 -0.242188 -0.460938 -0.171875 -0.765625 L 2.859375 -12.046875 L 4.234375 -12.046875 L 4.09375 -11.484375 C 4.414062 -11.640625 4.78125 -11.769531 5.1875 -11.875 C 5.601562 -11.988281 5.988281 -12.046875 6.34375 -12.046875 C 7.226562 -12.046875 7.859375 -11.757812 8.234375 -11.1875 C 8.609375 -10.625 8.796875 -9.9375 8.796875 -9.125 C 8.796875 -8.382812 8.695312 -7.640625 8.5 -6.890625 L 6.671875 0 L 5.265625 0 L 7.125 -6.953125 C 7.226562 -7.378906 7.328125 -7.820312 7.421875 -8.28125 C 7.515625 -8.738281 7.5625 -9.191406 7.5625 -9.640625 C 7.5625 -9.921875 7.53125 -10.207031 7.46875 -10.5 C 7.40625 -10.789062 7.285156 -11.035156 7.109375 -11.234375 C 6.929688 -11.441406 6.664062 -11.546875 6.3125 -11.546875 C 6.039062 -11.546875 5.738281 -11.484375 5.40625 -11.359375 C 5.082031 -11.242188 4.769531 -11.085938 4.46875 -10.890625 C 4.175781 -10.703125 3.941406 -10.503906 3.765625 -10.296875 L 1.125 -0.390625 C 0.875 0.578125 0.476562 1.222656 -0.0625 1.546875 C -0.601562 1.878906 -1.367188 2.046875 -2.359375 2.046875 L -2.515625 2.046875 Z M -2.390625 1.578125 "/></g></g></g><g fill="#711d20" fill-opacity="1"><g transform="translate(12.779186, 17.92352)"><g><path d="M 3.515625 0.21875 C 2.578125 0.21875 1.804688 0.0234375 1.203125 -0.359375 C 0.597656 -0.753906 0.296875 -1.46875 0.296875 -2.5 C 0.296875 -3.375 0.441406 -4.253906 0.734375 -5.140625 C 1.035156 -6.035156 1.4375 -6.882812 1.9375 -7.6875 C 2.4375 -8.488281 2.984375 -9.203125 3.578125 -9.828125 C 4.171875 -10.453125 4.769531 -10.9375 5.375 -11.28125 C 5.1875 -11.539062 4.972656 -11.773438 4.734375 -11.984375 C 4.492188 -12.203125 4.238281 -12.40625 3.96875 -12.59375 L 4.140625 -13.125 C 4.546875 -12.925781 4.882812 -12.726562 5.15625 -12.53125 C 5.4375 -12.332031 5.734375 -12.054688 6.046875 -11.703125 C 6.703125 -12.054688 7.378906 -12.367188 8.078125 -12.640625 C 8.785156 -12.921875 9.515625 -13.0625 10.265625 -13.0625 L 10.140625 -12.578125 C 9.460938 -12.398438 8.859375 -12.195312 8.328125 -11.96875 C 7.804688 -11.75 7.253906 -11.441406 6.671875 -11.046875 C 7.171875 -10.441406 7.539062 -9.726562 7.78125 -8.90625 C 8.03125 -8.082031 8.15625 -7.285156 8.15625 -6.515625 C 8.15625 -6.078125 8.101562 -5.566406 8 -4.984375 C 7.894531 -4.398438 7.726562 -3.800781 7.5 -3.1875 C 7.269531 -2.582031 6.96875 -2.023438 6.59375 -1.515625 C 6.226562 -1.003906 5.789062 -0.585938 5.28125 -0.265625 C 4.769531 0.0546875 4.179688 0.21875 3.515625 0.21875 Z M 1.578125 -2.296875 C 1.578125 -1.742188 1.703125 -1.285156 1.953125 -0.921875 C 2.203125 -0.566406 2.628906 -0.390625 3.234375 -0.390625 C 3.742188 -0.390625 4.195312 -0.554688 4.59375 -0.890625 C 5 -1.222656 5.347656 -1.65625 5.640625 -2.1875 C 5.929688 -2.71875 6.164062 -3.285156 6.34375 -3.890625 C 6.53125 -4.503906 6.671875 -5.101562 6.765625 -5.6875 C 6.859375 -6.269531 6.90625 -6.769531 6.90625 -7.1875 C 6.90625 -7.832031 6.816406 -8.40625 6.640625 -8.90625 C 6.460938 -9.414062 6.222656 -9.945312 5.921875 -10.5 C 5.367188 -10.050781 4.832031 -9.507812 4.3125 -8.875 C 3.789062 -8.238281 3.320312 -7.554688 2.90625 -6.828125 C 2.5 -6.097656 2.175781 -5.34375 1.9375 -4.5625 C 1.695312 -3.789062 1.578125 -3.035156 1.578125 -2.296875 Z M 1.578125 -2.296875 "/></g></g></g><g fill="#711d20" fill-opacity="1"><g transform="translate(21.510953, 17.92352)"><g><path d="M 5.5 0.15625 C 5.21875 0.15625 4.957031 0.0703125 4.71875 -0.09375 C 4.488281 -0.257812 4.289062 -0.441406 4.125 -0.640625 C 3.957031 -0.847656 3.835938 -1.019531 3.765625 -1.15625 C 3.640625 -1.394531 3.519531 -1.691406 3.40625 -2.046875 C 3.289062 -2.410156 3.179688 -2.773438 3.078125 -3.140625 C 2.984375 -3.503906 2.882812 -3.8125 2.78125 -4.0625 C 2.675781 -4.3125 2.566406 -4.4375 2.453125 -4.4375 C 2.304688 -4.4375 2.140625 -4.238281 1.953125 -3.84375 C 1.773438 -3.457031 1.515625 -2.90625 1.171875 -2.1875 C 1.015625 -1.863281 0.875 -1.53125 0.75 -1.1875 C 0.632812 -0.851562 0.546875 -0.570312 0.484375 -0.34375 C 0.421875 -0.113281 0.390625 0 0.390625 0 L -1.046875 0 C -1.046875 0 -0.988281 -0.15625 -0.875 -0.46875 C -0.757812 -0.789062 -0.609375 -1.191406 -0.421875 -1.671875 C -0.242188 -2.160156 -0.0390625 -2.65625 0.1875 -3.15625 C 0.414062 -3.65625 0.644531 -4.070312 0.875 -4.40625 C 1.039062 -4.664062 1.269531 -4.863281 1.5625 -5 C 1.851562 -5.132812 2.15625 -5.203125 2.46875 -5.203125 C 3.175781 -5.203125 3.679688 -4.875 3.984375 -4.21875 C 4.128906 -3.914062 4.269531 -3.566406 4.40625 -3.171875 C 4.539062 -2.785156 4.671875 -2.40625 4.796875 -2.03125 C 4.921875 -1.65625 5.039062 -1.347656 5.15625 -1.109375 C 5.28125 -0.867188 5.398438 -0.75 5.515625 -0.75 C 5.546875 -0.75 5.609375 -0.75 5.703125 -0.75 C 5.804688 -0.757812 5.863281 -0.785156 5.875 -0.828125 C 6.1875 -1.316406 6.523438 -1.921875 6.890625 -2.640625 C 7.253906 -3.367188 7.570312 -4.164062 7.84375 -5.03125 C 8.113281 -5.90625 8.25 -6.785156 8.25 -7.671875 C 8.25 -8.515625 8.144531 -9.242188 7.9375 -9.859375 C 7.726562 -10.472656 7.472656 -10.945312 7.171875 -11.28125 C 6.878906 -11.613281 6.59375 -11.78125 6.3125 -11.78125 C 6 -11.78125 5.664062 -11.648438 5.3125 -11.390625 C 4.96875 -11.140625 4.632812 -10.820312 4.3125 -10.4375 C 4.132812 -10.257812 3.972656 -10.023438 3.828125 -9.734375 C 3.679688 -9.453125 3.539062 -9.171875 3.40625 -8.890625 C 3.28125 -8.609375 3.179688 -8.375 3.109375 -8.1875 C 3.035156 -8 3 -7.90625 3 -7.90625 L 1.640625 -7.90625 C 1.640625 -7.90625 1.6875 -8.050781 1.78125 -8.34375 C 1.875 -8.644531 2.03125 -9.015625 2.25 -9.453125 C 2.46875 -9.890625 2.753906 -10.320312 3.109375 -10.75 C 3.460938 -11.1875 3.898438 -11.550781 4.421875 -11.84375 C 4.941406 -12.144531 5.554688 -12.296875 6.265625 -12.296875 C 6.992188 -12.296875 7.582031 -12.128906 8.03125 -11.796875 C 8.476562 -11.472656 8.816406 -11.0625 9.046875 -10.5625 C 9.285156 -10.070312 9.441406 -9.570312 9.515625 -9.0625 C 9.597656 -8.550781 9.640625 -8.101562 9.640625 -7.71875 C 9.640625 -7.5625 9.632812 -7.421875 9.625 -7.296875 C 9.613281 -7.179688 9.601562 -7.085938 9.59375 -7.015625 C 9.507812 -6.253906 9.332031 -5.457031 9.0625 -4.625 C 8.800781 -3.800781 8.484375 -3.023438 8.109375 -2.296875 C 7.734375 -1.578125 7.320312 -0.988281 6.875 -0.53125 C 6.425781 -0.0703125 5.96875 0.15625 5.5 0.15625 Z M 5.5 0.15625 "/></g></g></g><g fill="#711d20" fill-opacity="1"><g transform="translate(31.286276, 17.92352)"><g><path d="M 3.765625 0.21875 C 3.078125 0.21875 2.488281 0.0351562 2 -0.328125 C 1.519531 -0.691406 1.15625 -1.15625 0.90625 -1.71875 C 0.65625 -2.289062 0.53125 -2.894531 0.53125 -3.53125 C 0.53125 -4.101562 0.625 -4.726562 0.8125 -5.40625 C 1 -6.09375 1.238281 -6.785156 1.53125 -7.484375 C 1.832031 -8.179688 2.160156 -8.832031 2.515625 -9.4375 C 2.867188 -10.050781 3.222656 -10.5625 3.578125 -10.96875 C 4.304688 -11.84375 5.144531 -12.59375 6.09375 -13.21875 C 7.039062 -13.84375 8.035156 -14.347656 9.078125 -14.734375 C 9.109375 -14.742188 9.1875 -14.765625 9.3125 -14.796875 C 9.4375 -14.835938 9.566406 -14.878906 9.703125 -14.921875 C 9.835938 -14.960938 9.914062 -14.984375 9.9375 -14.984375 L 11.59375 -14.984375 C 11.007812 -14.796875 10.367188 -14.539062 9.671875 -14.21875 C 8.972656 -13.90625 8.296875 -13.550781 7.640625 -13.15625 C 6.992188 -12.769531 6.441406 -12.378906 5.984375 -11.984375 C 5.441406 -11.515625 4.921875 -10.910156 4.421875 -10.171875 C 3.929688 -9.429688 3.488281 -8.628906 3.09375 -7.765625 C 2.695312 -6.910156 2.375 -6.054688 2.125 -5.203125 C 1.882812 -4.359375 1.75 -3.582031 1.71875 -2.875 C 1.707031 -2.5625 1.75 -2.207031 1.84375 -1.8125 C 1.9375 -1.425781 2.101562 -1.09375 2.34375 -0.8125 C 2.582031 -0.539062 2.898438 -0.40625 3.296875 -0.40625 C 3.515625 -0.40625 3.726562 -0.453125 3.9375 -0.546875 C 4.15625 -0.648438 4.347656 -0.757812 4.515625 -0.875 C 5.109375 -1.28125 5.578125 -1.800781 5.921875 -2.4375 C 6.273438 -3.082031 6.523438 -3.765625 6.671875 -4.484375 C 6.828125 -5.210938 6.90625 -5.921875 6.90625 -6.609375 C 6.90625 -6.878906 6.894531 -7.144531 6.875 -7.40625 C 6.851562 -7.664062 6.804688 -7.925781 6.734375 -8.1875 L 8.0625 -8.1875 C 8.101562 -7.738281 8.125 -7.28125 8.125 -6.8125 C 8.125 -6.289062 8.078125 -5.710938 7.984375 -5.078125 C 7.890625 -4.453125 7.742188 -3.828125 7.546875 -3.203125 C 7.347656 -2.585938 7.082031 -2.019531 6.75 -1.5 C 6.414062 -0.976562 6.003906 -0.5625 5.515625 -0.25 C 5.023438 0.0585938 4.441406 0.21875 3.765625 0.21875 Z M 3.765625 0.21875 "/></g></g></g></g></g></g></g></g></svg>