<svg xmlns="http://www.w3.org/2000/svg" xmlns:xlink="http://www.w3.org/1999/xlink" width="1123" zoomAndPan="magnify" viewBox="0 0 842.25 595.499986" height="794" preserveAspectRatio="xMidYMid meet" version="1.0"><defs><g/><clipPath id="46a1a77c9d"><path d="M 8.914062 9.371094 L 199.769531 9.371094 L 199.769531 285.964844 L 8.914062 285.964844 Z M 8.914062 9.371094 " clip-rule="nonzero"/></clipPath><clipPath id="65ab2f140a"><path d="M 36.648438 9.371094 L 172.035156 9.371094 C 179.390625 9.371094 186.445312 12.292969 191.648438 17.496094 C 196.847656 22.695312 199.769531 29.75 199.769531 37.105469 L 199.769531 257.742188 C 199.769531 265.097656 196.847656 272.152344 191.648438 277.355469 C 186.445312 282.554688 179.390625 285.476562 172.035156 285.476562 L 36.648438 285.476562 C 29.292969 285.476562 22.238281 282.554688 17.039062 277.355469 C 11.835938 272.152344 8.914062 265.097656 8.914062 257.742188 L 8.914062 37.105469 C 8.914062 29.75 11.835938 22.695312 17.039062 17.496094 C 22.238281 12.292969 29.292969 9.371094 36.648438 9.371094 Z M 36.648438 9.371094 " clip-rule="nonzero"/></clipPath><clipPath id="f813723833"><path d="M 0.914062 0.371094 L 191.769531 0.371094 L 191.769531 276.53125 L 0.914062 276.53125 Z M 0.914062 0.371094 " clip-rule="nonzero"/></clipPath><clipPath id="5e9af680ee"><path d="M 28.648438 0.371094 L 164.035156 0.371094 C 171.390625 0.371094 178.445312 3.292969 183.648438 8.496094 C 188.847656 13.695312 191.769531 20.75 191.769531 28.105469 L 191.769531 248.742188 C 191.769531 256.097656 188.847656 263.152344 183.648438 268.355469 C 178.445312 273.554688 171.390625 276.476562 164.035156 276.476562 L 28.648438 276.476562 C 21.292969 276.476562 14.238281 273.554688 9.039062 268.355469 C 3.835938 263.152344 0.914062 256.097656 0.914062 248.742188 L 0.914062 28.105469 C 0.914062 20.75 3.835938 13.695312 9.039062 8.496094 C 14.238281 3.292969 21.292969 0.371094 28.648438 0.371094 Z M 28.648438 0.371094 " clip-rule="nonzero"/></clipPath><clipPath id="bb4e528b18"><rect x="0" width="192" y="0" height="277"/></clipPath><clipPath id="cd55d723bb"><path d="M 8.914062 9.375 L 200 9.375 L 200 285.230469 L 8.914062 285.230469 Z M 8.914062 9.375 " clip-rule="nonzero"/></clipPath><clipPath id="ba9f31cd1c"><path d="M 36.648438 9.375 L 172.027344 9.375 C 179.382812 9.375 186.4375 12.296875 191.636719 17.5 C 196.839844 22.699219 199.761719 29.753906 199.761719 37.109375 L 199.761719 257.734375 C 199.761719 265.089844 196.839844 272.144531 191.636719 277.347656 C 186.4375 282.546875 179.382812 285.46875 172.027344 285.46875 L 36.648438 285.46875 C 29.292969 285.46875 22.238281 282.546875 17.035156 277.347656 C 11.835938 272.144531 8.914062 265.089844 8.914062 257.734375 L 8.914062 37.109375 C 8.914062 29.753906 11.835938 22.699219 17.035156 17.5 C 22.238281 12.296875 29.292969 9.375 36.648438 9.375 Z M 36.648438 9.375 " clip-rule="nonzero"/></clipPath><clipPath id="85612bc589"><rect x="0" width="208" y="0" height="294"/></clipPath></defs><g transform="matrix(1, 0, 0, 1, 62, 260)"><g clip-path="url(#85612bc589)"><g clip-path="url(#46a1a77c9d)"><g clip-path="url(#65ab2f140a)"><g transform="matrix(1, 0, 0, 1, 8, 9)"><g clip-path="url(#bb4e528b18)"><g clip-path="url(#f813723833)"><g clip-path="url(#5e9af680ee)"><path fill="#1f80ff" d="M 0.914062 0.371094 L 191.769531 0.371094 L 191.769531 276.21875 L 0.914062 276.21875 Z M 0.914062 0.371094 " fill-opacity="1" fill-rule="nonzero"/></g></g></g></g></g></g><g clip-path="url(#cd55d723bb)"><g clip-path="url(#ba9f31cd1c)"><path stroke-linecap="butt" transform="matrix(0.749615, 0, 0, 0.749615, 8.913598, 9.370721)" fill="none" stroke-linejoin="miter" d="M 36.998766 0.00570769 L 217.596621 0.00570769 C 227.408946 0.00570769 236.820024 3.903541 243.755874 10.844601 C 250.696935 17.780451 254.594768 27.191529 254.594768 37.003854 L 254.594768 331.321506 C 254.594768 341.133832 250.696935 350.54491 243.755874 357.48597 C 236.820024 364.42182 227.408946 368.319653 217.596621 368.319653 L 36.998766 368.319653 C 27.18644 368.319653 17.775362 364.42182 10.834302 357.48597 C 3.898452 350.54491 0.000619021 341.133832 0.000619021 331.321506 L 0.000619021 37.003854 C 0.000619021 27.191529 3.898452 17.780451 10.834302 10.844601 C 17.775362 3.903541 27.18644 0.00570769 36.998766 0.00570769 Z M 36.998766 0.00570769 " stroke="#004aad" stroke-width="4" stroke-opacity="1" stroke-miterlimit="4"/></g></g><g fill="#b0eef0" fill-opacity="1"><g transform="translate(56.041105, 144.425698)"><g><path d="M 13.84375 -0.847656 C 13.84375 -0.507812 13.796875 -0.191406 13.707031 0.105469 C 13.582031 0.492188 13.386719 0.832031 13.117188 1.117188 C 12.835938 1.414062 12.5 1.636719 12.105469 1.773438 C 11.796875 1.882812 11.464844 1.941406 11.109375 1.941406 L 8.964844 1.941406 C 8.570312 1.941406 8.207031 1.859375 7.867188 1.703125 C 7.480469 1.523438 7.160156 1.257812 6.910156 0.90625 C 6.566406 0.421875 6.390625 -0.175781 6.390625 -0.882812 L 6.390625 -5.808594 C 6.390625 -5.769531 6.398438 -5.730469 6.414062 -5.6875 C 6.425781 -5.660156 6.4375 -5.640625 6.445312 -5.632812 C 6.484375 -5.585938 6.546875 -5.539062 6.632812 -5.496094 C 6.726562 -5.453125 6.8125 -5.433594 6.894531 -5.433594 C 6.96875 -5.433594 7.046875 -5.449219 7.125 -5.484375 C 7.191406 -5.515625 7.246094 -5.558594 7.296875 -5.609375 C 7.34375 -5.660156 7.375 -5.707031 7.390625 -5.753906 C 7.390625 -5.761719 7.394531 -5.765625 7.394531 -5.773438 C 7.394531 -5.765625 7.394531 -5.757812 7.394531 -5.742188 L 7.394531 -2.777344 C 7.394531 -1.335938 6.996094 -0.195312 6.199219 0.640625 C 5.765625 1.097656 5.234375 1.4375 4.613281 1.65625 C 4.074219 1.84375 3.476562 1.941406 2.816406 1.941406 L 1.3125 1.941406 C 0.90625 1.941406 0.527344 1.863281 0.175781 1.707031 C -0.230469 1.523438 -0.566406 1.257812 -0.835938 0.898438 C -1.226562 0.378906 -1.421875 -0.277344 -1.421875 -1.058594 L -1.421875 -3.851562 C -1.421875 -4.628906 -1.199219 -5.273438 -0.753906 -5.789062 C -0.476562 -6.105469 -0.140625 -6.339844 0.257812 -6.492188 C 0.578125 -6.613281 0.921875 -6.671875 1.289062 -6.671875 L 2.335938 -6.671875 C 2.242188 -6.671875 2.144531 -6.648438 2.042969 -6.601562 C 1.9375 -6.554688 1.851562 -6.488281 1.789062 -6.414062 L 3.28125 -5.175781 L 1.726562 -6.332031 C 1.664062 -6.25 1.632812 -6.15625 1.632812 -6.046875 C 1.632812 -6 1.644531 -5.949219 1.664062 -5.890625 C 1.683594 -5.824219 1.714844 -5.769531 1.753906 -5.71875 C 1.820312 -5.636719 1.914062 -5.5625 2.042969 -5.503906 C 2.144531 -5.457031 2.238281 -5.433594 2.324219 -5.433594 L 1.957031 -5.433594 C 1.539062 -5.433594 1.164062 -5.492188 0.828125 -5.609375 C 0.585938 -5.695312 0.363281 -5.808594 0.160156 -5.957031 C -0.0859375 -6.140625 -0.289062 -6.359375 -0.449219 -6.617188 L 1.199219 -7.636719 L -0.378906 -6.511719 C -0.597656 -6.820312 -0.742188 -7.191406 -0.8125 -7.628906 C -0.847656 -7.863281 -0.867188 -8.132812 -0.867188 -8.445312 L -0.867188 -11.171875 C -0.867188 -11.566406 -0.808594 -11.933594 -0.695312 -12.273438 C -0.550781 -12.699219 -0.324219 -13.066406 -0.0117188 -13.375 C 0.296875 -13.679688 0.664062 -13.902344 1.089844 -14.042969 C 1.425781 -14.15625 1.792969 -14.210938 2.183594 -14.210938 L 8.621094 -14.210938 C 9.386719 -14.210938 10.074219 -14.105469 10.6875 -13.894531 C 11.390625 -13.652344 11.988281 -13.277344 12.476562 -12.773438 C 13.386719 -11.835938 13.84375 -10.539062 13.84375 -8.886719 Z M 9.964844 -0.847656 L 9.964844 -8.886719 C 9.964844 -9.246094 9.929688 -9.542969 9.855469 -9.769531 C 9.808594 -9.90625 9.757812 -10.007812 9.691406 -10.074219 C 9.632812 -10.132812 9.546875 -10.183594 9.429688 -10.226562 C 9.222656 -10.296875 8.953125 -10.332031 8.621094 -10.332031 L 2.183594 -10.332031 C 2.179688 -10.332031 2.179688 -10.332031 2.175781 -10.332031 C 2.183594 -10.332031 2.1875 -10.332031 2.195312 -10.332031 C 2.226562 -10.335938 2.265625 -10.347656 2.304688 -10.359375 C 2.453125 -10.410156 2.589844 -10.496094 2.714844 -10.617188 C 2.839844 -10.742188 2.929688 -10.878906 2.980469 -11.035156 C 3 -11.097656 3.011719 -11.144531 3.011719 -11.171875 L 3.011719 -8.445312 C 3.011719 -8.335938 3.015625 -8.261719 3.019531 -8.226562 C 3.015625 -8.261719 3.003906 -8.304688 2.988281 -8.355469 C 2.941406 -8.496094 2.871094 -8.632812 2.777344 -8.765625 L 2.816406 -8.710938 L 2.847656 -8.660156 C 2.742188 -8.828125 2.613281 -8.96875 2.453125 -9.085938 C 2.34375 -9.167969 2.230469 -9.226562 2.113281 -9.269531 C 2.050781 -9.289062 1.996094 -9.304688 1.949219 -9.3125 C 1.941406 -9.3125 1.9375 -9.3125 1.933594 -9.3125 C 1.9375 -9.3125 1.945312 -9.3125 1.957031 -9.3125 L 2.324219 -9.3125 C 2.8125 -9.3125 3.265625 -9.214844 3.683594 -9.019531 C 4.125 -8.8125 4.492188 -8.519531 4.785156 -8.140625 C 5.027344 -7.839844 5.207031 -7.507812 5.332031 -7.148438 C 5.453125 -6.796875 5.511719 -6.429688 5.511719 -6.046875 C 5.511719 -5.300781 5.289062 -4.625 4.839844 -4.019531 L 4.808594 -3.980469 L 4.777344 -3.9375 C 4.46875 -3.566406 4.105469 -3.285156 3.683594 -3.085938 C 3.265625 -2.890625 2.816406 -2.792969 2.335938 -2.792969 L 1.289062 -2.792969 C 1.398438 -2.792969 1.515625 -2.820312 1.644531 -2.867188 C 1.847656 -2.945312 2.023438 -3.070312 2.171875 -3.238281 C 2.296875 -3.378906 2.378906 -3.53125 2.429688 -3.695312 C 2.449219 -3.761719 2.457031 -3.8125 2.457031 -3.851562 L 2.457031 -1.058594 C 2.457031 -1.042969 2.457031 -1.027344 2.457031 -1.019531 C 2.457031 -1.03125 2.453125 -1.046875 2.449219 -1.066406 C 2.417969 -1.1875 2.359375 -1.308594 2.269531 -1.429688 C 2.132812 -1.609375 1.960938 -1.746094 1.753906 -1.839844 C 1.601562 -1.90625 1.453125 -1.941406 1.3125 -1.941406 L 2.816406 -1.941406 C 3.035156 -1.941406 3.207031 -1.960938 3.328125 -2.003906 C 3.355469 -2.011719 3.375 -2.023438 3.386719 -2.03125 C 3.402344 -2.046875 3.417969 -2.085938 3.441406 -2.148438 C 3.488281 -2.304688 3.515625 -2.515625 3.515625 -2.777344 L 3.515625 -5.742188 C 3.515625 -6.203125 3.585938 -6.636719 3.734375 -7.046875 C 3.890625 -7.496094 4.125 -7.886719 4.429688 -8.226562 C 4.742188 -8.566406 5.105469 -8.828125 5.523438 -9.019531 C 5.957031 -9.214844 6.410156 -9.3125 6.894531 -9.3125 C 7.394531 -9.3125 7.863281 -9.207031 8.300781 -9 C 8.734375 -8.792969 9.105469 -8.503906 9.410156 -8.128906 C 9.6875 -7.800781 9.902344 -7.441406 10.046875 -7.054688 C 10.195312 -6.65625 10.269531 -6.238281 10.269531 -5.808594 L 10.269531 -0.882812 C 10.269531 -0.878906 10.269531 -0.871094 10.273438 -0.867188 C 10.273438 -0.871094 10.273438 -0.871094 10.269531 -0.875 C 10.269531 -0.894531 10.265625 -0.917969 10.257812 -0.945312 C 10.226562 -1.082031 10.164062 -1.214844 10.066406 -1.347656 C 9.921875 -1.550781 9.734375 -1.707031 9.507812 -1.8125 C 9.324219 -1.898438 9.144531 -1.941406 8.964844 -1.941406 L 11.109375 -1.941406 C 11.019531 -1.941406 10.917969 -1.921875 10.808594 -1.882812 C 10.613281 -1.8125 10.441406 -1.699219 10.292969 -1.539062 C 10.15625 -1.394531 10.058594 -1.234375 10.003906 -1.054688 C 9.976562 -0.972656 9.964844 -0.902344 9.964844 -0.847656 Z M 9.964844 -0.847656 "/></g></g></g><g fill="#b0eef0" fill-opacity="1"><g transform="translate(68.713669, 144.425698)"><g><path d="M 12.859375 -8.722656 C 12.859375 -8.042969 12.699219 -7.4375 12.378906 -6.910156 C 12.039062 -6.34375 11.546875 -5.921875 10.914062 -5.636719 L 10.125 -7.410156 L 10.980469 -5.667969 C 11.09375 -5.726562 11.183594 -5.816406 11.257812 -5.945312 C 11.285156 -5.996094 11.304688 -6.046875 11.316406 -6.09375 C 11.320312 -6.101562 11.320312 -6.109375 11.320312 -6.113281 C 11.320312 -6.105469 11.320312 -6.097656 11.320312 -6.085938 L 11.320312 -0.757812 C 11.320312 -0.03125 11.113281 0.578125 10.695312 1.066406 C 10.433594 1.378906 10.109375 1.609375 9.726562 1.757812 C 9.417969 1.878906 9.085938 1.941406 8.734375 1.941406 L 6.386719 1.941406 C 6.039062 1.941406 5.714844 1.878906 5.410156 1.757812 C 5.03125 1.609375 4.710938 1.378906 4.449219 1.070312 C 4.042969 0.589844 3.84375 -0.0078125 3.84375 -0.71875 L 3.84375 -5.84375 C 3.84375 -5.851562 3.84375 -5.859375 3.84375 -5.863281 C 3.84375 -5.863281 3.84375 -5.863281 3.84375 -5.859375 C 3.84375 -5.839844 3.851562 -5.820312 3.859375 -5.796875 C 3.886719 -5.726562 3.925781 -5.664062 3.980469 -5.609375 C 4.007812 -5.582031 4.058594 -5.550781 4.136719 -5.515625 C 4.253906 -5.460938 4.378906 -5.433594 4.507812 -5.433594 L 1.71875 -5.433594 C 0.824219 -5.433594 0.09375 -5.6875 -0.476562 -6.195312 C -0.8125 -6.496094 -1.0625 -6.867188 -1.226562 -7.300781 C -1.355469 -7.652344 -1.421875 -8.035156 -1.421875 -8.445312 L -1.421875 -11.261719 C -1.421875 -11.683594 -1.328125 -12.089844 -1.140625 -12.476562 C -0.988281 -12.796875 -0.785156 -13.082031 -0.53125 -13.332031 C -0.261719 -13.605469 0.0507812 -13.816406 0.402344 -13.96875 C 0.773438 -14.128906 1.167969 -14.210938 1.578125 -14.210938 L 10.0625 -14.210938 C 10.480469 -14.210938 10.867188 -14.128906 11.226562 -13.96875 C 11.640625 -13.785156 11.984375 -13.511719 12.257812 -13.144531 C 12.660156 -12.609375 12.859375 -11.933594 12.859375 -11.121094 Z M 8.980469 -8.722656 L 8.980469 -11.121094 C 8.980469 -11.148438 8.980469 -11.167969 8.976562 -11.183594 C 8.976562 -11.179688 8.980469 -11.171875 8.984375 -11.15625 C 9.011719 -11.046875 9.066406 -10.933594 9.152344 -10.824219 C 9.28125 -10.648438 9.445312 -10.515625 9.648438 -10.425781 C 9.792969 -10.363281 9.929688 -10.332031 10.0625 -10.332031 L 1.578125 -10.332031 C 1.703125 -10.332031 1.824219 -10.355469 1.945312 -10.410156 C 2.046875 -10.453125 2.132812 -10.511719 2.210938 -10.589844 C 2.269531 -10.648438 2.316406 -10.714844 2.351562 -10.789062 C 2.421875 -10.933594 2.457031 -11.089844 2.457031 -11.261719 L 2.457031 -8.445312 C 2.457031 -8.5 2.441406 -8.570312 2.410156 -8.652344 C 2.347656 -8.816406 2.25 -8.960938 2.109375 -9.085938 C 1.996094 -9.191406 1.875 -9.261719 1.746094 -9.296875 C 1.71875 -9.304688 1.699219 -9.3125 1.683594 -9.3125 C 1.6875 -9.3125 1.699219 -9.3125 1.71875 -9.3125 L 4.507812 -9.3125 C 4.945312 -9.3125 5.367188 -9.21875 5.765625 -9.035156 C 6.125 -8.867188 6.445312 -8.640625 6.722656 -8.351562 C 7.0625 -8.011719 7.320312 -7.617188 7.488281 -7.167969 C 7.644531 -6.757812 7.722656 -6.316406 7.722656 -5.84375 L 7.722656 -0.71875 C 7.722656 -0.777344 7.710938 -0.847656 7.6875 -0.929688 C 7.636719 -1.109375 7.546875 -1.273438 7.417969 -1.429688 C 7.257812 -1.617188 7.0625 -1.757812 6.835938 -1.847656 C 6.683594 -1.910156 6.535156 -1.941406 6.386719 -1.941406 L 8.734375 -1.941406 C 8.597656 -1.941406 8.457031 -1.910156 8.308594 -1.851562 C 8.085938 -1.765625 7.898438 -1.628906 7.742188 -1.445312 C 7.613281 -1.292969 7.523438 -1.128906 7.472656 -0.953125 C 7.453125 -0.875 7.441406 -0.8125 7.441406 -0.757812 L 7.441406 -6.085938 C 7.441406 -6.742188 7.585938 -7.332031 7.875 -7.847656 C 8.195312 -8.417969 8.660156 -8.851562 9.269531 -9.152344 L 9.300781 -9.167969 L 9.335938 -9.183594 C 9.300781 -9.167969 9.261719 -9.140625 9.21875 -9.105469 C 9.15625 -9.054688 9.105469 -8.992188 9.0625 -8.921875 C 9.027344 -8.859375 9 -8.800781 8.988281 -8.746094 C 8.984375 -8.730469 8.980469 -8.71875 8.980469 -8.710938 C 8.980469 -8.710938 8.980469 -8.714844 8.980469 -8.722656 Z M 8.980469 -8.722656 "/></g></g></g><g fill="#b0eef0" fill-opacity="1"><g transform="translate(80.401711, 144.425698)"><g><path d="M 11.835938 -3.308594 C 11.835938 -1.707031 11.421875 -0.445312 10.585938 0.472656 C 10.125 0.984375 9.558594 1.367188 8.886719 1.613281 C 8.292969 1.832031 7.632812 1.941406 6.90625 1.941406 L 3.535156 1.941406 C 3.15625 1.941406 2.804688 1.878906 2.480469 1.761719 C 2.070312 1.609375 1.722656 1.378906 1.4375 1.0625 C 0.953125 0.53125 0.710938 -0.148438 0.710938 -0.972656 L 0.710938 -3.710938 C 0.710938 -4.074219 0.761719 -4.414062 0.855469 -4.726562 C 0.980469 -5.132812 1.183594 -5.484375 1.460938 -5.785156 C 1.753906 -6.101562 2.105469 -6.332031 2.519531 -6.484375 C 2.847656 -6.601562 3.203125 -6.660156 3.585938 -6.660156 L 6.257812 -6.648438 C 6.21875 -6.648438 6.171875 -6.636719 6.117188 -6.617188 C 6.039062 -6.585938 5.96875 -6.542969 5.914062 -6.484375 C 5.847656 -6.417969 5.796875 -6.339844 5.757812 -6.246094 C 5.726562 -6.167969 5.710938 -6.089844 5.710938 -6.023438 C 5.710938 -5.945312 5.726562 -5.867188 5.753906 -5.796875 C 5.78125 -5.730469 5.820312 -5.671875 5.875 -5.613281 C 5.941406 -5.550781 6.003906 -5.503906 6.066406 -5.476562 C 6.132812 -5.449219 6.195312 -5.433594 6.25 -5.433594 L 2.613281 -5.433594 C 2.027344 -5.433594 1.488281 -5.527344 1.003906 -5.710938 C 0.441406 -5.925781 -0.03125 -6.253906 -0.417969 -6.695312 C -1.085938 -7.460938 -1.421875 -8.484375 -1.421875 -9.769531 L -1.421875 -14.480469 C -1.421875 -14.804688 -1.378906 -15.105469 -1.292969 -15.386719 C -1.179688 -15.765625 -0.996094 -16.09375 -0.742188 -16.378906 C -0.46875 -16.679688 -0.136719 -16.902344 0.25 -17.046875 C 0.558594 -17.160156 0.886719 -17.214844 1.238281 -17.214844 L 3.496094 -17.214844 C 3.894531 -17.214844 4.265625 -17.128906 4.609375 -16.960938 C 4.992188 -16.777344 5.300781 -16.503906 5.542969 -16.148438 C 5.867188 -15.675781 6.03125 -15.09375 6.03125 -14.402344 L 6.03125 -13.21875 C 6.03125 -13.210938 6.03125 -13.207031 6.03125 -13.199219 C 6.03125 -13.199219 6.03125 -13.203125 6.03125 -13.203125 C 6.027344 -13.226562 6.023438 -13.25 6.015625 -13.28125 C 5.980469 -13.417969 5.914062 -13.550781 5.8125 -13.679688 C 5.671875 -13.867188 5.492188 -14.011719 5.273438 -14.105469 C 5.117188 -14.175781 4.960938 -14.210938 4.808594 -14.210938 L 7.421875 -14.210938 C 8.058594 -14.210938 8.640625 -14.117188 9.160156 -13.929688 C 9.765625 -13.710938 10.277344 -13.378906 10.699219 -12.925781 C 11.457031 -12.109375 11.835938 -11.003906 11.835938 -9.605469 Z M 7.957031 -3.308594 L 7.957031 -9.605469 C 7.957031 -9.855469 7.933594 -10.050781 7.890625 -10.199219 C 7.878906 -10.234375 7.867188 -10.265625 7.855469 -10.285156 L 7.859375 -10.285156 C 7.863281 -10.277344 7.871094 -10.269531 7.878906 -10.265625 C 7.875 -10.269531 7.863281 -10.273438 7.851562 -10.277344 C 7.753906 -10.3125 7.609375 -10.332031 7.421875 -10.332031 L 4.808594 -10.332031 C 4.417969 -10.332031 4.054688 -10.40625 3.714844 -10.554688 C 3.320312 -10.726562 2.988281 -10.988281 2.726562 -11.332031 C 2.34375 -11.839844 2.152344 -12.464844 2.152344 -13.21875 L 2.152344 -14.402344 C 2.152344 -14.410156 2.152344 -14.417969 2.152344 -14.421875 C 2.152344 -14.402344 2.15625 -14.382812 2.160156 -14.355469 C 2.191406 -14.226562 2.25 -14.09375 2.339844 -13.964844 C 2.480469 -13.753906 2.671875 -13.59375 2.902344 -13.480469 C 3.097656 -13.382812 3.296875 -13.335938 3.496094 -13.335938 L 1.238281 -13.335938 C 1.347656 -13.335938 1.464844 -13.359375 1.59375 -13.40625 C 1.800781 -13.484375 1.980469 -13.605469 2.136719 -13.773438 C 2.269531 -13.925781 2.367188 -14.089844 2.417969 -14.269531 C 2.445312 -14.351562 2.457031 -14.421875 2.457031 -14.480469 L 2.457031 -9.769531 C 2.457031 -9.554688 2.476562 -9.386719 2.511719 -9.265625 C 2.519531 -9.238281 2.523438 -9.21875 2.53125 -9.210938 C 2.523438 -9.21875 2.515625 -9.234375 2.503906 -9.25 C 2.464844 -9.289062 2.425781 -9.320312 2.386719 -9.335938 C 2.425781 -9.320312 2.503906 -9.3125 2.613281 -9.3125 L 6.25 -9.3125 C 6.726562 -9.3125 7.171875 -9.222656 7.59375 -9.042969 C 8.011719 -8.863281 8.367188 -8.617188 8.667969 -8.308594 C 8.957031 -8.007812 9.183594 -7.664062 9.34375 -7.269531 C 9.507812 -6.871094 9.589844 -6.453125 9.589844 -6.023438 C 9.589844 -5.589844 9.511719 -5.183594 9.359375 -4.796875 C 9.199219 -4.402344 8.964844 -4.050781 8.65625 -3.742188 C 8.328125 -3.414062 7.953125 -3.167969 7.527344 -3.003906 C 7.128906 -2.847656 6.699219 -2.769531 6.238281 -2.769531 L 3.585938 -2.78125 C 3.65625 -2.78125 3.738281 -2.800781 3.835938 -2.832031 C 4.015625 -2.898438 4.171875 -3.003906 4.308594 -3.152344 C 4.429688 -3.285156 4.515625 -3.425781 4.5625 -3.582031 C 4.582031 -3.640625 4.589844 -3.683594 4.589844 -3.710938 L 4.589844 -0.972656 C 4.589844 -1 4.582031 -1.046875 4.5625 -1.109375 C 4.515625 -1.265625 4.429688 -1.414062 4.308594 -1.546875 C 4.167969 -1.703125 4.003906 -1.8125 3.816406 -1.882812 C 3.710938 -1.921875 3.617188 -1.941406 3.535156 -1.941406 L 6.90625 -1.941406 C 7.171875 -1.941406 7.386719 -1.96875 7.542969 -2.027344 C 7.621094 -2.054688 7.675781 -2.089844 7.710938 -2.128906 C 7.765625 -2.1875 7.8125 -2.285156 7.851562 -2.421875 C 7.921875 -2.652344 7.957031 -2.945312 7.957031 -3.308594 Z M 7.957031 -3.308594 "/></g></g></g><g fill="#b0eef0" fill-opacity="1"><g transform="translate(91.079987, 144.425698)"><g><path d="M 7.722656 -0.757812 C 7.722656 -0.0351562 7.519531 0.566406 7.113281 1.050781 C 6.851562 1.367188 6.53125 1.601562 6.148438 1.753906 C 5.835938 1.878906 5.503906 1.941406 5.152344 1.941406 L 2.789062 1.941406 C 2.441406 1.941406 2.117188 1.878906 1.8125 1.757812 C 1.433594 1.609375 1.113281 1.378906 0.851562 1.070312 C 0.445312 0.589844 0.246094 -0.0078125 0.246094 -0.71875 L 0.246094 -5.820312 C 0.246094 -5.832031 0.242188 -5.84375 0.242188 -5.851562 C 0.242188 -5.851562 0.246094 -5.84375 0.246094 -5.839844 C 0.257812 -5.789062 0.277344 -5.734375 0.304688 -5.679688 C 0.398438 -5.5 0.535156 -5.363281 0.710938 -5.277344 L 1.566406 -7.019531 L 0.777344 -5.246094 C 0.140625 -5.527344 -0.347656 -5.953125 -0.691406 -6.519531 C -1.007812 -7.046875 -1.167969 -7.652344 -1.167969 -8.332031 L -1.167969 -10.996094 C -1.167969 -11.910156 -0.914062 -12.65625 -0.402344 -13.234375 C -0.0976562 -13.582031 0.273438 -13.839844 0.714844 -14.003906 C 1.078125 -14.140625 1.46875 -14.210938 1.894531 -14.210938 L 4.140625 -14.210938 C 4.628906 -14.210938 5.078125 -14.140625 5.488281 -14 C 5.988281 -13.828125 6.410156 -13.5625 6.761719 -13.199219 C 7.109375 -12.839844 7.363281 -12.414062 7.523438 -11.914062 C 7.65625 -11.511719 7.722656 -11.066406 7.722656 -10.578125 Z M 3.84375 -0.757812 L 3.84375 -10.578125 C 3.84375 -10.628906 3.839844 -10.675781 3.835938 -10.710938 C 3.832031 -10.71875 3.832031 -10.726562 3.832031 -10.730469 C 3.832031 -10.730469 3.832031 -10.726562 3.832031 -10.722656 C 3.859375 -10.648438 3.90625 -10.574219 3.980469 -10.496094 C 4.058594 -10.417969 4.140625 -10.359375 4.226562 -10.332031 C 4.238281 -10.328125 4.242188 -10.324219 4.25 -10.324219 C 4.25 -10.324219 4.246094 -10.324219 4.242188 -10.324219 C 4.21875 -10.328125 4.183594 -10.332031 4.140625 -10.332031 L 1.894531 -10.332031 C 1.941406 -10.332031 2.007812 -10.347656 2.089844 -10.378906 C 2.25 -10.4375 2.386719 -10.535156 2.507812 -10.667969 C 2.601562 -10.777344 2.667969 -10.890625 2.699219 -11.007812 C 2.707031 -11.027344 2.710938 -11.042969 2.710938 -11.050781 C 2.710938 -11.039062 2.710938 -11.019531 2.710938 -10.996094 L 2.710938 -8.332031 C 2.710938 -8.324219 2.710938 -8.320312 2.710938 -8.320312 C 2.707031 -8.328125 2.707031 -8.339844 2.703125 -8.355469 C 2.6875 -8.410156 2.664062 -8.46875 2.628906 -8.527344 C 2.585938 -8.601562 2.53125 -8.660156 2.46875 -8.714844 C 2.429688 -8.75 2.390625 -8.773438 2.351562 -8.792969 L 2.386719 -8.777344 L 2.417969 -8.761719 C 3.007812 -8.472656 3.453125 -8.035156 3.753906 -7.457031 C 4 -6.976562 4.125 -6.433594 4.125 -5.820312 L 4.125 -0.71875 C 4.125 -0.777344 4.113281 -0.847656 4.089844 -0.929688 C 4.039062 -1.109375 3.949219 -1.273438 3.820312 -1.429688 C 3.660156 -1.617188 3.464844 -1.757812 3.238281 -1.847656 C 3.085938 -1.910156 2.933594 -1.941406 2.789062 -1.941406 L 5.152344 -1.941406 C 5.007812 -1.941406 4.859375 -1.910156 4.707031 -1.847656 C 4.480469 -1.757812 4.289062 -1.617188 4.132812 -1.429688 C 4.007812 -1.28125 3.921875 -1.117188 3.875 -0.945312 C 3.851562 -0.871094 3.84375 -0.808594 3.84375 -0.757812 Z M 3.84375 -0.757812 "/></g></g></g><g fill="#b0eef0" fill-opacity="1"><g transform="translate(97.63085, 144.425698)"><g><path d="M 12.949219 -0.71875 C 12.949219 -0.0078125 12.746094 0.589844 12.339844 1.070312 C 12.078125 1.378906 11.761719 1.609375 11.382812 1.757812 C 11.078125 1.878906 10.75 1.941406 10.402344 1.941406 L 8.042969 1.941406 C 7.6875 1.941406 7.355469 1.878906 7.046875 1.753906 C 6.664062 1.601562 6.339844 1.367188 6.078125 1.050781 C 5.671875 0.566406 5.472656 -0.0351562 5.472656 -0.757812 L 5.472656 -4.355469 C 5.472656 -4.742188 5.441406 -5.046875 5.382812 -5.269531 C 5.367188 -5.324219 5.355469 -5.367188 5.339844 -5.398438 C 5.335938 -5.402344 5.335938 -5.40625 5.332031 -5.40625 C 5.335938 -5.402344 5.339844 -5.394531 5.347656 -5.390625 C 5.359375 -5.375 5.371094 -5.367188 5.382812 -5.359375 C 5.378906 -5.363281 5.367188 -5.367188 5.347656 -5.371094 C 5.191406 -5.421875 4.972656 -5.445312 4.683594 -5.445312 L 1.78125 -5.445312 C 1.398438 -5.445312 1.039062 -5.5 0.710938 -5.613281 C 0.292969 -5.757812 -0.0664062 -5.984375 -0.367188 -6.289062 C -0.660156 -6.59375 -0.875 -6.953125 -1.011719 -7.367188 C -1.117188 -7.691406 -1.167969 -8.042969 -1.167969 -8.421875 L -1.167969 -11.335938 C -1.167969 -11.785156 -1.070312 -12.207031 -0.871094 -12.597656 C -0.683594 -12.96875 -0.417969 -13.289062 -0.0742188 -13.554688 C 0.5 -13.992188 1.152344 -14.210938 1.882812 -14.210938 L 8.042969 -14.210938 C 8.746094 -14.210938 9.386719 -14.113281 9.957031 -13.921875 C 10.617188 -13.699219 11.179688 -13.355469 11.644531 -12.886719 C 12.511719 -12.011719 12.949219 -10.808594 12.949219 -9.277344 Z M 9.070312 -0.71875 L 9.070312 -9.277344 C 9.070312 -9.570312 9.039062 -9.800781 8.980469 -9.980469 C 8.953125 -10.0625 8.921875 -10.125 8.890625 -10.15625 C 8.859375 -10.1875 8.800781 -10.21875 8.722656 -10.246094 C 8.550781 -10.300781 8.324219 -10.332031 8.042969 -10.332031 L 1.882812 -10.332031 C 1.933594 -10.332031 1.992188 -10.339844 2.054688 -10.363281 C 2.144531 -10.390625 2.230469 -10.4375 2.320312 -10.503906 C 2.429688 -10.589844 2.515625 -10.699219 2.585938 -10.839844 C 2.667969 -11 2.710938 -11.164062 2.710938 -11.335938 L 2.710938 -8.421875 C 2.710938 -8.453125 2.699219 -8.5 2.675781 -8.566406 C 2.625 -8.726562 2.539062 -8.867188 2.410156 -9 C 2.28125 -9.132812 2.132812 -9.226562 1.964844 -9.285156 C 1.886719 -9.3125 1.828125 -9.324219 1.78125 -9.324219 L 4.683594 -9.324219 C 5.371094 -9.324219 5.984375 -9.238281 6.519531 -9.070312 C 7.195312 -8.855469 7.757812 -8.5 8.210938 -8.003906 C 8.644531 -7.53125 8.953125 -6.949219 9.132812 -6.257812 C 9.277344 -5.710938 9.351562 -5.078125 9.351562 -4.355469 L 9.351562 -0.757812 C 9.351562 -0.808594 9.339844 -0.871094 9.320312 -0.945312 C 9.269531 -1.117188 9.183594 -1.28125 9.058594 -1.429688 C 8.902344 -1.617188 8.710938 -1.757812 8.484375 -1.847656 C 8.332031 -1.910156 8.183594 -1.941406 8.042969 -1.941406 L 10.402344 -1.941406 C 10.257812 -1.941406 10.105469 -1.910156 9.953125 -1.847656 C 9.726562 -1.757812 9.53125 -1.617188 9.375 -1.429688 C 9.242188 -1.273438 9.152344 -1.109375 9.101562 -0.929688 C 9.082031 -0.847656 9.070312 -0.777344 9.070312 -0.71875 Z M 6.332031 -0.71875 C 6.332031 0 6.125 0.601562 5.710938 1.085938 C 5.445312 1.390625 5.125 1.617188 4.746094 1.761719 C 4.445312 1.878906 4.121094 1.941406 3.773438 1.941406 L 1.425781 1.941406 C 1.078125 1.941406 0.75 1.878906 0.441406 1.761719 C 0.0585938 1.617188 -0.265625 1.386719 -0.53125 1.082031 C -0.957031 0.589844 -1.167969 -0.0234375 -1.167969 -0.757812 L -1.167969 -5 C -1.167969 -5.734375 -0.957031 -6.347656 -0.53125 -6.835938 C -0.265625 -7.144531 0.0585938 -7.371094 0.441406 -7.519531 C 0.75 -7.636719 1.078125 -7.695312 1.425781 -7.695312 L 3.773438 -7.695312 C 4.160156 -7.695312 4.515625 -7.621094 4.851562 -7.46875 C 5.234375 -7.292969 5.554688 -7.035156 5.804688 -6.691406 C 6.15625 -6.207031 6.332031 -5.613281 6.332031 -4.910156 Z M 2.453125 -0.71875 L 2.453125 -4.910156 C 2.453125 -4.914062 2.453125 -4.917969 2.453125 -4.917969 C 2.453125 -4.917969 2.453125 -4.914062 2.453125 -4.90625 C 2.457031 -4.882812 2.460938 -4.855469 2.46875 -4.820312 C 2.503906 -4.675781 2.574219 -4.539062 2.671875 -4.398438 C 2.820312 -4.199219 3.011719 -4.042969 3.242188 -3.9375 C 3.417969 -3.859375 3.597656 -3.816406 3.773438 -3.816406 L 1.425781 -3.816406 C 1.558594 -3.816406 1.695312 -3.84375 1.835938 -3.898438 C 2.054688 -3.984375 2.242188 -4.117188 2.398438 -4.296875 C 2.53125 -4.449219 2.621094 -4.613281 2.675781 -4.792969 C 2.699219 -4.875 2.710938 -4.941406 2.710938 -5 L 2.710938 -0.757812 C 2.710938 -0.8125 2.699219 -0.882812 2.675781 -0.964844 C 2.621094 -1.144531 2.53125 -1.308594 2.398438 -1.460938 C 2.242188 -1.640625 2.054688 -1.773438 1.835938 -1.859375 C 1.695312 -1.914062 1.558594 -1.941406 1.425781 -1.941406 L 3.773438 -1.941406 C 3.636719 -1.941406 3.492188 -1.910156 3.34375 -1.851562 C 3.121094 -1.765625 2.925781 -1.628906 2.769531 -1.445312 C 2.636719 -1.289062 2.542969 -1.121094 2.488281 -0.9375 C 2.464844 -0.855469 2.453125 -0.78125 2.453125 -0.71875 Z M 2.453125 -0.71875 "/></g></g></g><g fill="#b0eef0" fill-opacity="1"><g transform="translate(109.407252, 144.425698)"><g><path d="M 12.949219 -0.71875 C 12.949219 -0.0078125 12.746094 0.589844 12.339844 1.070312 C 12.078125 1.378906 11.761719 1.609375 11.382812 1.757812 C 11.078125 1.878906 10.75 1.941406 10.402344 1.941406 L 8.042969 1.941406 C 7.6875 1.941406 7.355469 1.878906 7.046875 1.753906 C 6.664062 1.601562 6.339844 1.367188 6.078125 1.050781 C 5.671875 0.566406 5.472656 -0.0351562 5.472656 -0.757812 L 5.472656 -4.355469 C 5.472656 -4.742188 5.441406 -5.046875 5.382812 -5.269531 C 5.367188 -5.324219 5.355469 -5.367188 5.339844 -5.398438 C 5.335938 -5.402344 5.335938 -5.40625 5.332031 -5.40625 C 5.335938 -5.402344 5.339844 -5.394531 5.347656 -5.390625 C 5.359375 -5.375 5.371094 -5.367188 5.382812 -5.359375 C 5.378906 -5.363281 5.367188 -5.367188 5.347656 -5.371094 C 5.191406 -5.421875 4.972656 -5.445312 4.683594 -5.445312 L 1.78125 -5.445312 C 1.398438 -5.445312 1.039062 -5.5 0.710938 -5.613281 C 0.292969 -5.757812 -0.0664062 -5.984375 -0.367188 -6.289062 C -0.660156 -6.59375 -0.875 -6.953125 -1.011719 -7.367188 C -1.117188 -7.691406 -1.167969 -8.042969 -1.167969 -8.421875 L -1.167969 -11.335938 C -1.167969 -11.785156 -1.070312 -12.207031 -0.871094 -12.597656 C -0.683594 -12.96875 -0.417969 -13.289062 -0.0742188 -13.554688 C 0.5 -13.992188 1.152344 -14.210938 1.882812 -14.210938 L 8.042969 -14.210938 C 8.746094 -14.210938 9.386719 -14.113281 9.957031 -13.921875 C 10.617188 -13.699219 11.179688 -13.355469 11.644531 -12.886719 C 12.511719 -12.011719 12.949219 -10.808594 12.949219 -9.277344 Z M 9.070312 -0.71875 L 9.070312 -9.277344 C 9.070312 -9.570312 9.039062 -9.800781 8.980469 -9.980469 C 8.953125 -10.0625 8.921875 -10.125 8.890625 -10.15625 C 8.859375 -10.1875 8.800781 -10.21875 8.722656 -10.246094 C 8.550781 -10.300781 8.324219 -10.332031 8.042969 -10.332031 L 1.882812 -10.332031 C 1.933594 -10.332031 1.992188 -10.339844 2.054688 -10.363281 C 2.144531 -10.390625 2.230469 -10.4375 2.320312 -10.503906 C 2.429688 -10.589844 2.515625 -10.699219 2.585938 -10.839844 C 2.667969 -11 2.710938 -11.164062 2.710938 -11.335938 L 2.710938 -8.421875 C 2.710938 -8.453125 2.699219 -8.5 2.675781 -8.566406 C 2.625 -8.726562 2.539062 -8.867188 2.410156 -9 C 2.28125 -9.132812 2.132812 -9.226562 1.964844 -9.285156 C 1.886719 -9.3125 1.828125 -9.324219 1.78125 -9.324219 L 4.683594 -9.324219 C 5.371094 -9.324219 5.984375 -9.238281 6.519531 -9.070312 C 7.195312 -8.855469 7.757812 -8.5 8.210938 -8.003906 C 8.644531 -7.53125 8.953125 -6.949219 9.132812 -6.257812 C 9.277344 -5.710938 9.351562 -5.078125 9.351562 -4.355469 L 9.351562 -0.757812 C 9.351562 -0.808594 9.339844 -0.871094 9.320312 -0.945312 C 9.269531 -1.117188 9.183594 -1.28125 9.058594 -1.429688 C 8.902344 -1.617188 8.710938 -1.757812 8.484375 -1.847656 C 8.332031 -1.910156 8.183594 -1.941406 8.042969 -1.941406 L 10.402344 -1.941406 C 10.257812 -1.941406 10.105469 -1.910156 9.953125 -1.847656 C 9.726562 -1.757812 9.53125 -1.617188 9.375 -1.429688 C 9.242188 -1.273438 9.152344 -1.109375 9.101562 -0.929688 C 9.082031 -0.847656 9.070312 -0.777344 9.070312 -0.71875 Z M 6.332031 -0.71875 C 6.332031 0 6.125 0.601562 5.710938 1.085938 C 5.445312 1.390625 5.125 1.617188 4.746094 1.761719 C 4.445312 1.878906 4.121094 1.941406 3.773438 1.941406 L 1.425781 1.941406 C 1.078125 1.941406 0.75 1.878906 0.441406 1.761719 C 0.0585938 1.617188 -0.265625 1.386719 -0.53125 1.082031 C -0.957031 0.589844 -1.167969 -0.0234375 -1.167969 -0.757812 L -1.167969 -5 C -1.167969 -5.734375 -0.957031 -6.347656 -0.53125 -6.835938 C -0.265625 -7.144531 0.0585938 -7.371094 0.441406 -7.519531 C 0.75 -7.636719 1.078125 -7.695312 1.425781 -7.695312 L 3.773438 -7.695312 C 4.160156 -7.695312 4.515625 -7.621094 4.851562 -7.46875 C 5.234375 -7.292969 5.554688 -7.035156 5.804688 -6.691406 C 6.15625 -6.207031 6.332031 -5.613281 6.332031 -4.910156 Z M 2.453125 -0.71875 L 2.453125 -4.910156 C 2.453125 -4.914062 2.453125 -4.917969 2.453125 -4.917969 C 2.453125 -4.917969 2.453125 -4.914062 2.453125 -4.90625 C 2.457031 -4.882812 2.460938 -4.855469 2.46875 -4.820312 C 2.503906 -4.675781 2.574219 -4.539062 2.671875 -4.398438 C 2.820312 -4.199219 3.011719 -4.042969 3.242188 -3.9375 C 3.417969 -3.859375 3.597656 -3.816406 3.773438 -3.816406 L 1.425781 -3.816406 C 1.558594 -3.816406 1.695312 -3.84375 1.835938 -3.898438 C 2.054688 -3.984375 2.242188 -4.117188 2.398438 -4.296875 C 2.53125 -4.449219 2.621094 -4.613281 2.675781 -4.792969 C 2.699219 -4.875 2.710938 -4.941406 2.710938 -5 L 2.710938 -0.757812 C 2.710938 -0.8125 2.699219 -0.882812 2.675781 -0.964844 C 2.621094 -1.144531 2.53125 -1.308594 2.398438 -1.460938 C 2.242188 -1.640625 2.054688 -1.773438 1.835938 -1.859375 C 1.695312 -1.914062 1.558594 -1.941406 1.425781 -1.941406 L 3.773438 -1.941406 C 3.636719 -1.941406 3.492188 -1.910156 3.34375 -1.851562 C 3.121094 -1.765625 2.925781 -1.628906 2.769531 -1.445312 C 2.636719 -1.289062 2.542969 -1.121094 2.488281 -0.9375 C 2.464844 -0.855469 2.453125 -0.78125 2.453125 -0.71875 Z M 2.453125 -0.71875 "/></g></g></g><g fill="#b0eef0" fill-opacity="1"><g transform="translate(121.183654, 144.425698)"><g/></g></g><g fill="#b0eef0" fill-opacity="1"><g transform="translate(126.90146, 144.425698)"><g><path d="M 13.792969 -1.765625 C 13.792969 -0.664062 13.480469 0.21875 12.847656 0.886719 C 12.496094 1.261719 12.066406 1.539062 11.5625 1.71875 C 11.144531 1.867188 10.6875 1.941406 10.1875 1.941406 L 2.425781 1.941406 C 1.925781 1.941406 1.464844 1.863281 1.050781 1.714844 C 0.546875 1.539062 0.121094 1.261719 -0.234375 0.882812 C -0.855469 0.214844 -1.167969 -0.667969 -1.167969 -1.765625 L -1.167969 -10.492188 C -1.167969 -11.59375 -0.859375 -12.476562 -0.238281 -13.144531 C 0.113281 -13.523438 0.542969 -13.804688 1.046875 -13.984375 C 1.464844 -14.136719 1.921875 -14.210938 2.425781 -14.210938 L 10.1875 -14.210938 C 10.6875 -14.210938 11.148438 -14.136719 11.566406 -13.988281 C 12.070312 -13.808594 12.5 -13.527344 12.851562 -13.152344 C 13.480469 -12.480469 13.792969 -11.59375 13.792969 -10.492188 Z M 9.914062 -1.765625 L 9.914062 -10.492188 C 9.914062 -10.589844 9.910156 -10.65625 9.898438 -10.691406 C 9.917969 -10.632812 9.957031 -10.566406 10.023438 -10.5 C 10.097656 -10.417969 10.179688 -10.363281 10.265625 -10.332031 C 10.273438 -10.328125 10.28125 -10.328125 10.289062 -10.324219 C 10.289062 -10.324219 10.292969 -10.324219 10.292969 -10.324219 C 10.289062 -10.324219 10.289062 -10.324219 10.285156 -10.324219 C 10.261719 -10.328125 10.226562 -10.332031 10.1875 -10.332031 L 2.425781 -10.332031 C 2.386719 -10.332031 2.355469 -10.328125 2.332031 -10.324219 L 2.328125 -10.324219 C 2.335938 -10.328125 2.34375 -10.332031 2.355469 -10.332031 C 2.445312 -10.367188 2.527344 -10.421875 2.605469 -10.503906 C 2.667969 -10.574219 2.707031 -10.636719 2.726562 -10.695312 C 2.714844 -10.660156 2.710938 -10.589844 2.710938 -10.492188 L 2.710938 -1.765625 C 2.710938 -1.667969 2.714844 -1.605469 2.726562 -1.570312 C 2.707031 -1.632812 2.664062 -1.699219 2.601562 -1.765625 C 2.523438 -1.847656 2.441406 -1.90625 2.351562 -1.9375 C 2.339844 -1.941406 2.332031 -1.945312 2.328125 -1.945312 C 2.351562 -1.941406 2.382812 -1.941406 2.425781 -1.941406 L 10.1875 -1.941406 C 10.230469 -1.941406 10.261719 -1.941406 10.289062 -1.945312 C 10.292969 -1.945312 10.292969 -1.945312 10.292969 -1.945312 C 10.285156 -1.945312 10.277344 -1.941406 10.269531 -1.9375 C 10.183594 -1.910156 10.101562 -1.851562 10.027344 -1.773438 C 9.960938 -1.703125 9.917969 -1.636719 9.898438 -1.574219 C 9.910156 -1.605469 9.914062 -1.671875 9.914062 -1.765625 Z M 7.253906 -6.039062 C 7.253906 -6.046875 7.253906 -6.050781 7.253906 -6.054688 C 7.253906 -6.054688 7.253906 -6.054688 7.253906 -6.050781 C 7.257812 -6.023438 7.265625 -5.996094 7.277344 -5.964844 C 7.328125 -5.847656 7.402344 -5.738281 7.507812 -5.644531 C 7.605469 -5.554688 7.707031 -5.492188 7.816406 -5.457031 C 7.839844 -5.449219 7.855469 -5.445312 7.871094 -5.445312 C 7.863281 -5.445312 7.847656 -5.445312 7.828125 -5.445312 L 4.796875 -5.445312 C 4.773438 -5.445312 4.757812 -5.445312 4.75 -5.445312 C 4.761719 -5.445312 4.777344 -5.449219 4.800781 -5.457031 C 4.90625 -5.492188 5.011719 -5.550781 5.109375 -5.644531 C 5.21875 -5.742188 5.296875 -5.851562 5.34375 -5.976562 C 5.355469 -6.007812 5.367188 -6.039062 5.371094 -6.066406 C 5.371094 -6.070312 5.371094 -6.074219 5.371094 -6.074219 C 5.371094 -6.070312 5.371094 -6.0625 5.371094 -6.058594 C 5.375 -6.117188 5.363281 -6.175781 5.347656 -6.230469 C 5.324219 -6.300781 5.289062 -6.359375 5.246094 -6.414062 L 3.761719 -5.164062 L 5.195312 -6.472656 C 5.140625 -6.53125 5.070312 -6.578125 4.984375 -6.617188 C 4.914062 -6.644531 4.851562 -6.660156 4.796875 -6.660156 L 7.828125 -6.660156 C 7.773438 -6.660156 7.710938 -6.644531 7.640625 -6.617188 C 7.554688 -6.578125 7.484375 -6.53125 7.429688 -6.472656 L 8.863281 -5.164062 L 7.378906 -6.414062 C 7.335938 -6.359375 7.300781 -6.300781 7.277344 -6.230469 C 7.257812 -6.175781 7.25 -6.128906 7.25 -6.09375 L 9.191406 -6.136719 Z M 11.128906 -6.234375 L 11.128906 -6.179688 C 11.136719 -5.761719 11.078125 -5.363281 10.953125 -4.988281 C 10.820312 -4.59375 10.617188 -4.234375 10.34375 -3.914062 L 10.320312 -3.882812 L 10.292969 -3.855469 C 9.96875 -3.5 9.59375 -3.230469 9.164062 -3.046875 C 8.746094 -2.871094 8.300781 -2.78125 7.828125 -2.78125 L 4.796875 -2.78125 C 4.324219 -2.78125 3.878906 -2.871094 3.460938 -3.046875 C 3.03125 -3.230469 2.65625 -3.5 2.332031 -3.855469 L 2.304688 -3.882812 L 2.28125 -3.914062 C 2.007812 -4.234375 1.804688 -4.59375 1.671875 -4.988281 C 1.542969 -5.363281 1.484375 -5.773438 1.496094 -6.214844 C 1.511719 -6.636719 1.589844 -7.03125 1.730469 -7.386719 C 1.902344 -7.824219 2.15625 -8.195312 2.488281 -8.503906 C 3.085938 -9.050781 3.855469 -9.324219 4.796875 -9.324219 L 7.828125 -9.324219 C 8.242188 -9.324219 8.628906 -9.269531 8.984375 -9.15625 C 9.421875 -9.019531 9.804688 -8.800781 10.128906 -8.503906 C 10.460938 -8.199219 10.710938 -7.828125 10.882812 -7.398438 C 11.023438 -7.042969 11.105469 -6.65625 11.128906 -6.234375 Z M 11.128906 -6.234375 "/></g></g></g><g fill="#b0eef0" fill-opacity="1"><g transform="translate(139.523536, 144.425698)"><g><path d="M 7.722656 -0.757812 C 7.722656 -0.0351562 7.519531 0.566406 7.113281 1.050781 C 6.851562 1.367188 6.53125 1.601562 6.148438 1.753906 C 5.835938 1.878906 5.503906 1.941406 5.152344 1.941406 L 2.789062 1.941406 C 2.441406 1.941406 2.117188 1.878906 1.8125 1.757812 C 1.433594 1.609375 1.113281 1.378906 0.851562 1.070312 C 0.445312 0.589844 0.246094 -0.0078125 0.246094 -0.71875 L 0.246094 -5.820312 C 0.246094 -5.832031 0.242188 -5.84375 0.242188 -5.851562 C 0.242188 -5.851562 0.246094 -5.84375 0.246094 -5.839844 C 0.257812 -5.789062 0.277344 -5.734375 0.304688 -5.679688 C 0.398438 -5.5 0.535156 -5.363281 0.710938 -5.277344 L 1.566406 -7.019531 L 0.777344 -5.246094 C 0.140625 -5.527344 -0.347656 -5.953125 -0.691406 -6.519531 C -1.007812 -7.046875 -1.167969 -7.652344 -1.167969 -8.332031 L -1.167969 -10.996094 C -1.167969 -11.910156 -0.914062 -12.65625 -0.402344 -13.234375 C -0.0976562 -13.582031 0.273438 -13.839844 0.714844 -14.003906 C 1.078125 -14.140625 1.46875 -14.210938 1.894531 -14.210938 L 4.140625 -14.210938 C 4.628906 -14.210938 5.078125 -14.140625 5.488281 -14 C 5.988281 -13.828125 6.410156 -13.5625 6.761719 -13.199219 C 7.109375 -12.839844 7.363281 -12.414062 7.523438 -11.914062 C 7.65625 -11.511719 7.722656 -11.066406 7.722656 -10.578125 Z M 3.84375 -0.757812 L 3.84375 -10.578125 C 3.84375 -10.628906 3.839844 -10.675781 3.835938 -10.710938 C 3.832031 -10.71875 3.832031 -10.726562 3.832031 -10.730469 C 3.832031 -10.730469 3.832031 -10.726562 3.832031 -10.722656 C 3.859375 -10.648438 3.90625 -10.574219 3.980469 -10.496094 C 4.058594 -10.417969 4.140625 -10.359375 4.226562 -10.332031 C 4.238281 -10.328125 4.242188 -10.324219 4.25 -10.324219 C 4.25 -10.324219 4.246094 -10.324219 4.242188 -10.324219 C 4.21875 -10.328125 4.183594 -10.332031 4.140625 -10.332031 L 1.894531 -10.332031 C 1.941406 -10.332031 2.007812 -10.347656 2.089844 -10.378906 C 2.25 -10.4375 2.386719 -10.535156 2.507812 -10.667969 C 2.601562 -10.777344 2.667969 -10.890625 2.699219 -11.007812 C 2.707031 -11.027344 2.710938 -11.042969 2.710938 -11.050781 C 2.710938 -11.039062 2.710938 -11.019531 2.710938 -10.996094 L 2.710938 -8.332031 C 2.710938 -8.324219 2.710938 -8.320312 2.710938 -8.320312 C 2.707031 -8.328125 2.707031 -8.339844 2.703125 -8.355469 C 2.6875 -8.410156 2.664062 -8.46875 2.628906 -8.527344 C 2.585938 -8.601562 2.53125 -8.660156 2.46875 -8.714844 C 2.429688 -8.75 2.390625 -8.773438 2.351562 -8.792969 L 2.386719 -8.777344 L 2.417969 -8.761719 C 3.007812 -8.472656 3.453125 -8.035156 3.753906 -7.457031 C 4 -6.976562 4.125 -6.433594 4.125 -5.820312 L 4.125 -0.71875 C 4.125 -0.777344 4.113281 -0.847656 4.089844 -0.929688 C 4.039062 -1.109375 3.949219 -1.273438 3.820312 -1.429688 C 3.660156 -1.617188 3.464844 -1.757812 3.238281 -1.847656 C 3.085938 -1.910156 2.933594 -1.941406 2.789062 -1.941406 L 5.152344 -1.941406 C 5.007812 -1.941406 4.859375 -1.910156 4.707031 -1.847656 C 4.480469 -1.757812 4.289062 -1.617188 4.132812 -1.429688 C 4.007812 -1.28125 3.921875 -1.117188 3.875 -0.945312 C 3.851562 -0.871094 3.84375 -0.808594 3.84375 -0.757812 Z M 3.84375 -0.757812 "/></g></g></g><g fill="#b0eef0" fill-opacity="1"><g transform="translate(146.074399, 144.425698)"><g><path d="M 7.722656 -5.464844 C 7.722656 -4.746094 7.519531 -4.140625 7.113281 -3.65625 C 6.851562 -3.34375 6.53125 -3.109375 6.148438 -2.957031 C 5.835938 -2.832031 5.503906 -2.769531 5.152344 -2.769531 L 2.789062 -2.769531 C 2.441406 -2.769531 2.117188 -2.828125 1.8125 -2.949219 C 1.433594 -3.101562 1.113281 -3.332031 0.851562 -3.640625 C 0.445312 -4.121094 0.246094 -4.714844 0.246094 -5.429688 L 0.246094 -5.820312 C 0.246094 -5.832031 0.242188 -5.84375 0.242188 -5.851562 C 0.242188 -5.851562 0.246094 -5.84375 0.246094 -5.839844 C 0.257812 -5.789062 0.277344 -5.734375 0.304688 -5.679688 C 0.398438 -5.5 0.535156 -5.363281 0.710938 -5.277344 L 1.566406 -7.019531 L 0.777344 -5.246094 C 0.140625 -5.527344 -0.347656 -5.953125 -0.691406 -6.519531 C -1.007812 -7.046875 -1.167969 -7.652344 -1.167969 -8.332031 L -1.167969 -10.996094 C -1.167969 -11.910156 -0.914062 -12.65625 -0.402344 -13.234375 C -0.0976562 -13.582031 0.273438 -13.839844 0.714844 -14.003906 C 1.078125 -14.140625 1.46875 -14.210938 1.894531 -14.210938 L 4.140625 -14.210938 C 4.628906 -14.210938 5.078125 -14.140625 5.488281 -14 C 5.988281 -13.828125 6.410156 -13.5625 6.761719 -13.199219 C 7.109375 -12.839844 7.363281 -12.414062 7.523438 -11.914062 C 7.65625 -11.511719 7.722656 -11.066406 7.722656 -10.578125 Z M 3.84375 -5.464844 L 3.84375 -10.578125 C 3.84375 -10.628906 3.839844 -10.675781 3.835938 -10.710938 C 3.832031 -10.71875 3.832031 -10.726562 3.832031 -10.730469 C 3.832031 -10.730469 3.832031 -10.726562 3.832031 -10.722656 C 3.859375 -10.648438 3.90625 -10.574219 3.980469 -10.496094 C 4.058594 -10.417969 4.140625 -10.359375 4.226562 -10.332031 C 4.238281 -10.328125 4.242188 -10.324219 4.25 -10.324219 C 4.25 -10.324219 4.246094 -10.324219 4.242188 -10.324219 C 4.21875 -10.328125 4.183594 -10.332031 4.140625 -10.332031 L 1.894531 -10.332031 C 1.941406 -10.332031 2.007812 -10.347656 2.089844 -10.378906 C 2.25 -10.4375 2.386719 -10.535156 2.507812 -10.667969 C 2.601562 -10.777344 2.667969 -10.890625 2.699219 -11.007812 C 2.707031 -11.027344 2.710938 -11.042969 2.710938 -11.050781 C 2.710938 -11.039062 2.710938 -11.019531 2.710938 -10.996094 L 2.710938 -8.332031 C 2.710938 -8.324219 2.710938 -8.320312 2.710938 -8.320312 C 2.707031 -8.328125 2.707031 -8.339844 2.703125 -8.355469 C 2.6875 -8.410156 2.664062 -8.46875 2.628906 -8.527344 C 2.585938 -8.601562 2.53125 -8.660156 2.46875 -8.714844 C 2.429688 -8.75 2.390625 -8.773438 2.351562 -8.792969 L 2.386719 -8.777344 L 2.417969 -8.761719 C 3.007812 -8.472656 3.453125 -8.035156 3.753906 -7.457031 C 4 -6.976562 4.125 -6.433594 4.125 -5.820312 L 4.125 -5.429688 C 4.125 -5.488281 4.113281 -5.554688 4.089844 -5.636719 C 4.039062 -5.816406 3.949219 -5.984375 3.820312 -6.136719 C 3.660156 -6.328125 3.464844 -6.46875 3.238281 -6.558594 C 3.085938 -6.617188 2.933594 -6.648438 2.789062 -6.648438 L 5.152344 -6.648438 C 5.007812 -6.648438 4.859375 -6.617188 4.707031 -6.558594 C 4.480469 -6.46875 4.289062 -6.328125 4.132812 -6.140625 C 4.007812 -5.988281 3.921875 -5.828125 3.875 -5.652344 C 3.851562 -5.578125 3.84375 -5.515625 3.84375 -5.464844 Z M 3.84375 -5.464844 "/></g></g></g><g fill="#b0eef0" fill-opacity="1"><g transform="translate(152.636048, 144.425698)"><g/></g></g><g fill="#b0eef0" fill-opacity="1"><g transform="translate(70.588324, 163.166077)"><g/></g></g><g fill="#b0eef0" fill-opacity="1"><g transform="translate(76.315853, 163.166077)"><g><path d="M 7.722656 1.589844 C 7.722656 2.3125 7.519531 2.914062 7.113281 3.398438 C 6.851562 3.714844 6.53125 3.949219 6.148438 4.101562 C 5.835938 4.226562 5.503906 4.289062 5.152344 4.289062 L 2.789062 4.289062 C 2.441406 4.289062 2.117188 4.226562 1.8125 4.105469 C 1.433594 3.957031 1.113281 3.726562 0.851562 3.417969 C 0.445312 2.9375 0.246094 2.339844 0.246094 1.628906 L 0.246094 -5.820312 C 0.246094 -5.832031 0.242188 -5.84375 0.242188 -5.851562 C 0.242188 -5.851562 0.246094 -5.84375 0.246094 -5.839844 C 0.257812 -5.789062 0.277344 -5.734375 0.304688 -5.679688 C 0.398438 -5.5 0.535156 -5.363281 0.710938 -5.277344 L 1.566406 -7.019531 L 0.777344 -5.246094 C 0.140625 -5.527344 -0.347656 -5.953125 -0.691406 -6.519531 C -1.007812 -7.046875 -1.167969 -7.652344 -1.167969 -8.332031 L -1.167969 -10.996094 C -1.167969 -11.910156 -0.914062 -12.65625 -0.402344 -13.234375 C -0.0976562 -13.582031 0.273438 -13.839844 0.714844 -14.003906 C 1.078125 -14.140625 1.46875 -14.210938 1.894531 -14.210938 L 4.140625 -14.210938 C 4.628906 -14.210938 5.078125 -14.140625 5.488281 -14 C 5.988281 -13.828125 6.410156 -13.5625 6.761719 -13.199219 C 7.109375 -12.839844 7.363281 -12.414062 7.523438 -11.914062 C 7.65625 -11.511719 7.722656 -11.066406 7.722656 -10.578125 Z M 3.84375 1.589844 L 3.84375 -10.578125 C 3.84375 -10.628906 3.839844 -10.675781 3.835938 -10.710938 C 3.832031 -10.71875 3.832031 -10.726562 3.832031 -10.730469 C 3.832031 -10.730469 3.832031 -10.726562 3.832031 -10.722656 C 3.859375 -10.648438 3.90625 -10.574219 3.980469 -10.496094 C 4.058594 -10.417969 4.140625 -10.359375 4.226562 -10.332031 C 4.238281 -10.328125 4.242188 -10.324219 4.25 -10.324219 C 4.25 -10.324219 4.246094 -10.324219 4.242188 -10.324219 C 4.21875 -10.328125 4.183594 -10.332031 4.140625 -10.332031 L 1.894531 -10.332031 C 1.941406 -10.332031 2.007812 -10.347656 2.089844 -10.378906 C 2.25 -10.4375 2.386719 -10.535156 2.507812 -10.667969 C 2.601562 -10.777344 2.667969 -10.890625 2.699219 -11.007812 C 2.707031 -11.027344 2.710938 -11.042969 2.710938 -11.050781 C 2.710938 -11.039062 2.710938 -11.019531 2.710938 -10.996094 L 2.710938 -8.332031 C 2.710938 -8.324219 2.710938 -8.320312 2.710938 -8.320312 C 2.707031 -8.328125 2.707031 -8.339844 2.703125 -8.355469 C 2.6875 -8.410156 2.664062 -8.46875 2.628906 -8.527344 C 2.585938 -8.601562 2.53125 -8.660156 2.46875 -8.714844 C 2.429688 -8.75 2.390625 -8.773438 2.351562 -8.792969 L 2.386719 -8.777344 L 2.417969 -8.761719 C 3.007812 -8.472656 3.453125 -8.035156 3.753906 -7.457031 C 4 -6.976562 4.125 -6.433594 4.125 -5.820312 L 4.125 1.628906 C 4.125 1.570312 4.113281 1.5 4.089844 1.417969 C 4.039062 1.238281 3.949219 1.074219 3.820312 0.917969 C 3.660156 0.730469 3.464844 0.589844 3.238281 0.5 C 3.085938 0.4375 2.933594 0.410156 2.789062 0.410156 L 5.152344 0.410156 C 5.007812 0.410156 4.859375 0.4375 4.707031 0.5 C 4.480469 0.589844 4.289062 0.730469 4.132812 0.917969 C 4.007812 1.066406 3.921875 1.230469 3.875 1.402344 C 3.851562 1.476562 3.84375 1.539062 3.84375 1.589844 Z M 3.84375 1.589844 "/></g></g></g><g fill="#b0eef0" fill-opacity="1"><g transform="translate(82.866716, 163.166077)"><g><path d="M 7.722656 -0.757812 C 7.722656 -0.0351562 7.519531 0.566406 7.113281 1.050781 C 6.851562 1.367188 6.53125 1.601562 6.148438 1.753906 C 5.835938 1.878906 5.503906 1.941406 5.152344 1.941406 L 2.789062 1.941406 C 2.441406 1.941406 2.117188 1.878906 1.8125 1.757812 C 1.433594 1.609375 1.113281 1.378906 0.851562 1.070312 C 0.445312 0.589844 0.246094 -0.0078125 0.246094 -0.71875 L 0.246094 -5.820312 C 0.246094 -5.832031 0.242188 -5.84375 0.242188 -5.851562 C 0.242188 -5.851562 0.246094 -5.84375 0.246094 -5.839844 C 0.257812 -5.789062 0.277344 -5.734375 0.304688 -5.679688 C 0.398438 -5.5 0.535156 -5.363281 0.710938 -5.277344 L 1.566406 -7.019531 L 0.777344 -5.246094 C 0.140625 -5.527344 -0.347656 -5.953125 -0.691406 -6.519531 C -1.007812 -7.046875 -1.167969 -7.652344 -1.167969 -8.332031 L -1.167969 -10.996094 C -1.167969 -11.910156 -0.914062 -12.65625 -0.402344 -13.234375 C -0.0976562 -13.582031 0.273438 -13.839844 0.714844 -14.003906 C 1.078125 -14.140625 1.46875 -14.210938 1.894531 -14.210938 L 4.140625 -14.210938 C 4.628906 -14.210938 5.078125 -14.140625 5.488281 -14 C 5.988281 -13.828125 6.410156 -13.5625 6.761719 -13.199219 C 7.109375 -12.839844 7.363281 -12.414062 7.523438 -11.914062 C 7.65625 -11.511719 7.722656 -11.066406 7.722656 -10.578125 Z M 3.84375 -0.757812 L 3.84375 -10.578125 C 3.84375 -10.628906 3.839844 -10.675781 3.835938 -10.710938 C 3.832031 -10.71875 3.832031 -10.726562 3.832031 -10.730469 C 3.832031 -10.730469 3.832031 -10.726562 3.832031 -10.722656 C 3.859375 -10.648438 3.90625 -10.574219 3.980469 -10.496094 C 4.058594 -10.417969 4.140625 -10.359375 4.226562 -10.332031 C 4.238281 -10.328125 4.242188 -10.324219 4.25 -10.324219 C 4.25 -10.324219 4.246094 -10.324219 4.242188 -10.324219 C 4.21875 -10.328125 4.183594 -10.332031 4.140625 -10.332031 L 1.894531 -10.332031 C 1.941406 -10.332031 2.007812 -10.347656 2.089844 -10.378906 C 2.25 -10.4375 2.386719 -10.535156 2.507812 -10.667969 C 2.601562 -10.777344 2.667969 -10.890625 2.699219 -11.007812 C 2.707031 -11.027344 2.710938 -11.042969 2.710938 -11.050781 C 2.710938 -11.039062 2.710938 -11.019531 2.710938 -10.996094 L 2.710938 -8.332031 C 2.710938 -8.324219 2.710938 -8.320312 2.710938 -8.320312 C 2.707031 -8.328125 2.707031 -8.339844 2.703125 -8.355469 C 2.6875 -8.410156 2.664062 -8.46875 2.628906 -8.527344 C 2.585938 -8.601562 2.53125 -8.660156 2.46875 -8.714844 C 2.429688 -8.75 2.390625 -8.773438 2.351562 -8.792969 L 2.386719 -8.777344 L 2.417969 -8.761719 C 3.007812 -8.472656 3.453125 -8.035156 3.753906 -7.457031 C 4 -6.976562 4.125 -6.433594 4.125 -5.820312 L 4.125 -0.71875 C 4.125 -0.777344 4.113281 -0.847656 4.089844 -0.929688 C 4.039062 -1.109375 3.949219 -1.273438 3.820312 -1.429688 C 3.660156 -1.617188 3.464844 -1.757812 3.238281 -1.847656 C 3.085938 -1.910156 2.933594 -1.941406 2.789062 -1.941406 L 5.152344 -1.941406 C 5.007812 -1.941406 4.859375 -1.910156 4.707031 -1.847656 C 4.480469 -1.757812 4.289062 -1.617188 4.132812 -1.429688 C 4.007812 -1.28125 3.921875 -1.117188 3.875 -0.945312 C 3.851562 -0.871094 3.84375 -0.808594 3.84375 -0.757812 Z M 3.84375 -0.757812 "/></g></g></g><g fill="#b0eef0" fill-opacity="1"><g transform="translate(89.417579, 163.166077)"><g><path d="M 12.050781 -0.71875 C 12.050781 -0.0078125 11.847656 0.589844 11.445312 1.070312 C 11.183594 1.378906 10.863281 1.609375 10.484375 1.757812 C 10.179688 1.878906 9.855469 1.941406 9.507812 1.941406 L 7.15625 1.941406 C 6.804688 1.941406 6.476562 1.878906 6.167969 1.757812 C 5.785156 1.609375 5.460938 1.378906 5.195312 1.066406 C 4.78125 0.578125 4.574219 -0.03125 4.574219 -0.757812 L 4.574219 -4.355469 C 4.574219 -4.730469 4.542969 -5.03125 4.484375 -5.253906 C 4.464844 -5.320312 4.449219 -5.371094 4.429688 -5.40625 C 4.429688 -5.410156 4.425781 -5.410156 4.425781 -5.414062 C 4.433594 -5.40625 4.4375 -5.394531 4.449219 -5.386719 C 4.460938 -5.375 4.472656 -5.359375 4.492188 -5.351562 C 4.484375 -5.355469 4.46875 -5.363281 4.441406 -5.371094 C 4.289062 -5.421875 4.070312 -5.445312 3.789062 -5.445312 L 1.78125 -5.445312 C 1.398438 -5.445312 1.039062 -5.5 0.710938 -5.613281 C 0.292969 -5.757812 -0.0664062 -5.984375 -0.367188 -6.289062 C -0.660156 -6.59375 -0.875 -6.953125 -1.011719 -7.367188 C -1.117188 -7.691406 -1.167969 -8.042969 -1.167969 -8.421875 L -1.167969 -11.335938 C -1.167969 -11.785156 -1.070312 -12.207031 -0.871094 -12.597656 C -0.683594 -12.96875 -0.417969 -13.289062 -0.0742188 -13.554688 C 0.5 -13.992188 1.152344 -14.210938 1.882812 -14.210938 L 7.15625 -14.210938 C 7.863281 -14.210938 8.5 -14.113281 9.070312 -13.921875 C 9.730469 -13.699219 10.292969 -13.351562 10.753906 -12.886719 C 11.617188 -12.007812 12.050781 -10.808594 12.050781 -9.277344 Z M 8.171875 -0.71875 L 8.171875 -9.277344 C 8.171875 -9.570312 8.144531 -9.804688 8.085938 -9.980469 C 8.058594 -10.066406 8.027344 -10.125 7.992188 -10.160156 C 7.960938 -10.191406 7.910156 -10.21875 7.828125 -10.246094 C 7.660156 -10.304688 7.4375 -10.332031 7.15625 -10.332031 L 1.882812 -10.332031 C 1.933594 -10.332031 1.992188 -10.339844 2.054688 -10.363281 C 2.144531 -10.390625 2.230469 -10.4375 2.320312 -10.503906 C 2.429688 -10.589844 2.515625 -10.699219 2.585938 -10.839844 C 2.667969 -11 2.710938 -11.164062 2.710938 -11.335938 L 2.710938 -8.421875 C 2.710938 -8.453125 2.699219 -8.5 2.675781 -8.566406 C 2.625 -8.726562 2.539062 -8.867188 2.410156 -9 C 2.28125 -9.132812 2.132812 -9.226562 1.964844 -9.285156 C 1.886719 -9.3125 1.828125 -9.324219 1.78125 -9.324219 L 3.789062 -9.324219 C 5.351562 -9.324219 6.527344 -8.882812 7.316406 -7.996094 C 8.074219 -7.164062 8.453125 -5.949219 8.453125 -4.355469 L 8.453125 -0.757812 C 8.453125 -0.8125 8.441406 -0.875 8.421875 -0.953125 C 8.371094 -1.128906 8.28125 -1.292969 8.152344 -1.445312 C 7.996094 -1.628906 7.804688 -1.765625 7.585938 -1.851562 C 7.4375 -1.910156 7.296875 -1.941406 7.15625 -1.941406 L 9.507812 -1.941406 C 9.359375 -1.941406 9.210938 -1.910156 9.058594 -1.847656 C 8.828125 -1.757812 8.636719 -1.617188 8.476562 -1.429688 C 8.347656 -1.273438 8.257812 -1.109375 8.207031 -0.929688 C 8.183594 -0.847656 8.171875 -0.777344 8.171875 -0.71875 Z M 8.171875 -0.71875 "/></g></g></g><g fill="#b0eef0" fill-opacity="1"><g transform="translate(100.310436, 163.166077)"><g/></g></g><g fill="#b0eef0" fill-opacity="1"><g transform="translate(106.028242, 163.166077)"><g><path d="M 11.835938 -3.308594 C 11.835938 -1.707031 11.421875 -0.445312 10.585938 0.472656 C 10.125 0.984375 9.558594 1.367188 8.886719 1.613281 C 8.292969 1.832031 7.632812 1.941406 6.90625 1.941406 L 3.535156 1.941406 C 3.15625 1.941406 2.804688 1.878906 2.480469 1.761719 C 2.070312 1.609375 1.722656 1.378906 1.4375 1.0625 C 0.953125 0.53125 0.710938 -0.148438 0.710938 -0.972656 L 0.710938 -3.710938 C 0.710938 -4.074219 0.761719 -4.414062 0.855469 -4.726562 C 0.980469 -5.132812 1.183594 -5.484375 1.460938 -5.785156 C 1.753906 -6.101562 2.105469 -6.332031 2.519531 -6.484375 C 2.847656 -6.601562 3.203125 -6.660156 3.585938 -6.660156 L 6.257812 -6.648438 C 6.21875 -6.648438 6.171875 -6.636719 6.117188 -6.617188 C 6.039062 -6.585938 5.96875 -6.542969 5.914062 -6.484375 C 5.847656 -6.417969 5.796875 -6.339844 5.757812 -6.246094 C 5.726562 -6.167969 5.710938 -6.089844 5.710938 -6.023438 C 5.710938 -5.945312 5.726562 -5.867188 5.753906 -5.796875 C 5.78125 -5.730469 5.820312 -5.671875 5.875 -5.613281 C 5.941406 -5.550781 6.003906 -5.503906 6.066406 -5.476562 C 6.132812 -5.449219 6.195312 -5.433594 6.25 -5.433594 L 2.613281 -5.433594 C 2.027344 -5.433594 1.488281 -5.527344 1.003906 -5.710938 C 0.441406 -5.925781 -0.03125 -6.253906 -0.417969 -6.695312 C -1.085938 -7.460938 -1.421875 -8.484375 -1.421875 -9.769531 L -1.421875 -14.480469 C -1.421875 -14.804688 -1.378906 -15.105469 -1.292969 -15.386719 C -1.179688 -15.765625 -0.996094 -16.09375 -0.742188 -16.378906 C -0.46875 -16.679688 -0.136719 -16.902344 0.25 -17.046875 C 0.558594 -17.160156 0.886719 -17.214844 1.238281 -17.214844 L 3.496094 -17.214844 C 3.894531 -17.214844 4.265625 -17.128906 4.609375 -16.960938 C 4.992188 -16.777344 5.300781 -16.503906 5.542969 -16.148438 C 5.867188 -15.675781 6.03125 -15.09375 6.03125 -14.402344 L 6.03125 -13.21875 C 6.03125 -13.210938 6.03125 -13.207031 6.03125 -13.199219 C 6.03125 -13.199219 6.03125 -13.203125 6.03125 -13.203125 C 6.027344 -13.226562 6.023438 -13.25 6.015625 -13.28125 C 5.980469 -13.417969 5.914062 -13.550781 5.8125 -13.679688 C 5.671875 -13.867188 5.492188 -14.011719 5.273438 -14.105469 C 5.117188 -14.175781 4.960938 -14.210938 4.808594 -14.210938 L 7.421875 -14.210938 C 8.058594 -14.210938 8.640625 -14.117188 9.160156 -13.929688 C 9.765625 -13.710938 10.277344 -13.378906 10.699219 -12.925781 C 11.457031 -12.109375 11.835938 -11.003906 11.835938 -9.605469 Z M 7.957031 -3.308594 L 7.957031 -9.605469 C 7.957031 -9.855469 7.933594 -10.050781 7.890625 -10.199219 C 7.878906 -10.234375 7.867188 -10.265625 7.855469 -10.285156 L 7.859375 -10.285156 C 7.863281 -10.277344 7.871094 -10.269531 7.878906 -10.265625 C 7.875 -10.269531 7.863281 -10.273438 7.851562 -10.277344 C 7.753906 -10.3125 7.609375 -10.332031 7.421875 -10.332031 L 4.808594 -10.332031 C 4.417969 -10.332031 4.054688 -10.40625 3.714844 -10.554688 C 3.320312 -10.726562 2.988281 -10.988281 2.726562 -11.332031 C 2.34375 -11.839844 2.152344 -12.464844 2.152344 -13.21875 L 2.152344 -14.402344 C 2.152344 -14.410156 2.152344 -14.417969 2.152344 -14.421875 C 2.152344 -14.402344 2.15625 -14.382812 2.160156 -14.355469 C 2.191406 -14.226562 2.25 -14.09375 2.339844 -13.964844 C 2.480469 -13.753906 2.671875 -13.59375 2.902344 -13.480469 C 3.097656 -13.382812 3.296875 -13.335938 3.496094 -13.335938 L 1.238281 -13.335938 C 1.347656 -13.335938 1.464844 -13.359375 1.59375 -13.40625 C 1.800781 -13.484375 1.980469 -13.605469 2.136719 -13.773438 C 2.269531 -13.925781 2.367188 -14.089844 2.417969 -14.269531 C 2.445312 -14.351562 2.457031 -14.421875 2.457031 -14.480469 L 2.457031 -9.769531 C 2.457031 -9.554688 2.476562 -9.386719 2.511719 -9.265625 C 2.519531 -9.238281 2.523438 -9.21875 2.53125 -9.210938 C 2.523438 -9.21875 2.515625 -9.234375 2.503906 -9.25 C 2.464844 -9.289062 2.425781 -9.320312 2.386719 -9.335938 C 2.425781 -9.320312 2.503906 -9.3125 2.613281 -9.3125 L 6.25 -9.3125 C 6.726562 -9.3125 7.171875 -9.222656 7.59375 -9.042969 C 8.011719 -8.863281 8.367188 -8.617188 8.667969 -8.308594 C 8.957031 -8.007812 9.183594 -7.664062 9.34375 -7.269531 C 9.507812 -6.871094 9.589844 -6.453125 9.589844 -6.023438 C 9.589844 -5.589844 9.511719 -5.183594 9.359375 -4.796875 C 9.199219 -4.402344 8.964844 -4.050781 8.65625 -3.742188 C 8.328125 -3.414062 7.953125 -3.167969 7.527344 -3.003906 C 7.128906 -2.847656 6.699219 -2.769531 6.238281 -2.769531 L 3.585938 -2.78125 C 3.65625 -2.78125 3.738281 -2.800781 3.835938 -2.832031 C 4.015625 -2.898438 4.171875 -3.003906 4.308594 -3.152344 C 4.429688 -3.285156 4.515625 -3.425781 4.5625 -3.582031 C 4.582031 -3.640625 4.589844 -3.683594 4.589844 -3.710938 L 4.589844 -0.972656 C 4.589844 -1 4.582031 -1.046875 4.5625 -1.109375 C 4.515625 -1.265625 4.429688 -1.414062 4.308594 -1.546875 C 4.167969 -1.703125 4.003906 -1.8125 3.816406 -1.882812 C 3.710938 -1.921875 3.617188 -1.941406 3.535156 -1.941406 L 6.90625 -1.941406 C 7.171875 -1.941406 7.386719 -1.96875 7.542969 -2.027344 C 7.621094 -2.054688 7.675781 -2.089844 7.710938 -2.128906 C 7.765625 -2.1875 7.8125 -2.285156 7.851562 -2.421875 C 7.921875 -2.652344 7.957031 -2.945312 7.957031 -3.308594 Z M 7.957031 -3.308594 "/></g></g></g><g fill="#b0eef0" fill-opacity="1"><g transform="translate(116.706518, 163.166077)"><g><path d="M 16.796875 -3.445312 C 16.796875 -2.675781 16.683594 -1.96875 16.453125 -1.328125 C 16.203125 -0.628906 15.820312 -0.0234375 15.308594 0.488281 C 14.828125 0.976562 14.265625 1.34375 13.617188 1.589844 C 13.007812 1.824219 12.34375 1.941406 11.625 1.941406 L 4.015625 1.941406 C 3.296875 1.941406 2.632812 1.824219 2.023438 1.589844 C 1.378906 1.347656 0.8125 0.976562 0.320312 0.488281 C -0.191406 -0.0234375 -0.574219 -0.628906 -0.824219 -1.328125 C -1.054688 -1.96875 -1.167969 -2.675781 -1.167969 -3.445312 L -1.167969 -11.550781 C -1.167969 -12.269531 -0.960938 -12.871094 -0.546875 -13.355469 C -0.285156 -13.660156 0.0390625 -13.886719 0.417969 -14.035156 C 0.71875 -14.152344 1.042969 -14.210938 1.386719 -14.210938 L 3.738281 -14.210938 C 4.089844 -14.210938 4.421875 -14.148438 4.734375 -14.023438 C 5.117188 -13.871094 5.4375 -13.636719 5.699219 -13.324219 C 6.105469 -12.835938 6.308594 -12.234375 6.308594 -11.511719 L 6.308594 -9.871094 C 6.308594 -9.847656 6.308594 -9.828125 6.308594 -9.816406 C 6.308594 -9.824219 6.304688 -9.835938 6.300781 -9.851562 C 6.273438 -9.964844 6.214844 -10.082031 6.128906 -10.195312 C 5.996094 -10.371094 5.832031 -10.503906 5.628906 -10.59375 C 5.484375 -10.65625 5.347656 -10.6875 5.214844 -10.6875 C 5.089844 -10.6875 4.960938 -10.65625 4.820312 -10.597656 C 4.625 -10.511719 4.457031 -10.382812 4.328125 -10.210938 C 4.238281 -10.097656 4.179688 -9.980469 4.152344 -9.867188 C 4.148438 -9.851562 4.144531 -9.835938 4.144531 -9.828125 C 4.144531 -9.84375 4.144531 -9.859375 4.144531 -9.882812 L 4.144531 -11.425781 C 4.144531 -11.761719 4.191406 -12.074219 4.28125 -12.367188 C 4.398438 -12.753906 4.59375 -13.089844 4.855469 -13.375 C 5.136719 -13.679688 5.472656 -13.898438 5.867188 -14.042969 C 6.179688 -14.152344 6.511719 -14.210938 6.867188 -14.210938 L 8.800781 -14.210938 C 9.167969 -14.210938 9.511719 -14.148438 9.832031 -14.023438 C 10.230469 -13.867188 10.566406 -13.632812 10.839844 -13.3125 C 11.277344 -12.800781 11.496094 -12.160156 11.496094 -11.386719 L 11.496094 -8.519531 C 11.496094 -8.125 11.441406 -7.757812 11.332031 -7.417969 C 11.191406 -6.988281 10.96875 -6.617188 10.664062 -6.304688 C 10.351562 -5.988281 9.980469 -5.753906 9.550781 -5.609375 C 9.207031 -5.492188 8.835938 -5.433594 8.433594 -5.433594 L 4.265625 -5.433594 C 4.375 -5.433594 4.46875 -5.464844 4.550781 -5.523438 L 3.394531 -7.082031 L 4.601562 -5.5625 C 4.699219 -5.640625 4.773438 -5.738281 4.832031 -5.863281 C 4.882812 -5.96875 4.90625 -6.066406 4.90625 -6.160156 C 4.90625 -6.25 4.882812 -6.34375 4.832031 -6.449219 C 4.777344 -6.566406 4.703125 -6.660156 4.613281 -6.730469 L 4.652344 -6.703125 L 4.6875 -6.671875 C 4.632812 -6.714844 4.570312 -6.753906 4.492188 -6.78125 C 4.414062 -6.808594 4.339844 -6.824219 4.265625 -6.824219 L 9.316406 -6.824219 C 9.390625 -6.824219 9.453125 -6.828125 9.503906 -6.835938 C 9.515625 -6.839844 9.527344 -6.839844 9.535156 -6.84375 C 9.539062 -6.84375 9.539062 -6.84375 9.539062 -6.84375 C 9.535156 -6.84375 9.535156 -6.84375 9.53125 -6.839844 C 9.449219 -6.808594 9.375 -6.75 9.304688 -6.660156 C 9.277344 -6.628906 9.261719 -6.601562 9.246094 -6.570312 C 9.253906 -6.582031 9.257812 -6.605469 9.265625 -6.636719 C 9.304688 -6.789062 9.320312 -7.003906 9.320312 -7.273438 L 9.320312 -11.511719 C 9.320312 -12.242188 9.527344 -12.847656 9.945312 -13.335938 C 10.207031 -13.648438 10.53125 -13.878906 10.914062 -14.027344 C 11.222656 -14.148438 11.554688 -14.210938 11.90625 -14.210938 L 14.253906 -14.210938 C 14.601562 -14.210938 14.925781 -14.148438 15.230469 -14.027344 C 15.609375 -13.878906 15.929688 -13.648438 16.191406 -13.339844 C 16.59375 -12.859375 16.796875 -12.261719 16.796875 -11.550781 Z M 12.917969 -3.445312 L 12.917969 -11.550781 C 12.917969 -11.492188 12.929688 -11.421875 12.953125 -11.339844 C 13.003906 -11.164062 13.09375 -10.996094 13.222656 -10.839844 C 13.382812 -10.652344 13.578125 -10.511719 13.804688 -10.421875 C 13.957031 -10.363281 14.105469 -10.332031 14.253906 -10.332031 L 11.90625 -10.332031 C 12.042969 -10.332031 12.183594 -10.359375 12.332031 -10.417969 C 12.554688 -10.503906 12.742188 -10.640625 12.898438 -10.824219 C 13.027344 -10.976562 13.117188 -11.140625 13.167969 -11.316406 C 13.1875 -11.394531 13.199219 -11.460938 13.199219 -11.511719 L 13.199219 -7.273438 C 13.199219 -5.980469 12.917969 -4.980469 12.359375 -4.269531 C 11.988281 -3.796875 11.507812 -3.445312 10.917969 -3.21875 C 10.445312 -3.039062 9.910156 -2.945312 9.316406 -2.945312 L 4.265625 -2.945312 C 3.875 -2.945312 3.496094 -3.011719 3.136719 -3.148438 C 2.78125 -3.28125 2.453125 -3.476562 2.15625 -3.730469 L 3.421875 -5.199219 L 2.230469 -3.671875 C 1.835938 -3.976562 1.535156 -4.347656 1.328125 -4.789062 C 1.128906 -5.210938 1.027344 -5.667969 1.027344 -6.160156 C 1.027344 -6.640625 1.125 -7.085938 1.316406 -7.5 C 1.515625 -7.929688 1.808594 -8.296875 2.191406 -8.601562 L 2.214844 -8.621094 L 2.242188 -8.640625 C 2.84375 -9.085938 3.519531 -9.3125 4.265625 -9.3125 L 8.433594 -9.3125 C 8.433594 -9.3125 8.4375 -9.3125 8.4375 -9.3125 C 8.429688 -9.3125 8.425781 -9.3125 8.414062 -9.308594 C 8.378906 -9.304688 8.339844 -9.292969 8.296875 -9.28125 C 8.148438 -9.226562 8.011719 -9.140625 7.890625 -9.015625 C 7.769531 -8.894531 7.6875 -8.761719 7.640625 -8.621094 C 7.628906 -8.582031 7.621094 -8.550781 7.617188 -8.519531 L 7.617188 -11.386719 C 7.617188 -11.351562 7.625 -11.304688 7.644531 -11.242188 C 7.691406 -11.078125 7.773438 -10.929688 7.894531 -10.789062 C 8.042969 -10.613281 8.21875 -10.488281 8.425781 -10.40625 C 8.558594 -10.355469 8.683594 -10.332031 8.800781 -10.332031 L 6.867188 -10.332031 C 6.960938 -10.332031 7.066406 -10.351562 7.183594 -10.394531 C 7.382812 -10.464844 7.554688 -10.582031 7.703125 -10.742188 C 7.839844 -10.886719 7.933594 -11.046875 7.988281 -11.222656 C 8.011719 -11.304688 8.023438 -11.371094 8.023438 -11.425781 L 8.023438 -9.882812 C 8.023438 -9.066406 7.816406 -8.390625 7.40625 -7.851562 C 7.128906 -7.492188 6.785156 -7.222656 6.367188 -7.039062 C 6.011719 -6.886719 5.628906 -6.808594 5.214844 -6.808594 C 4.800781 -6.808594 4.414062 -6.886719 4.058594 -7.046875 C 3.644531 -7.226562 3.300781 -7.5 3.03125 -7.863281 C 2.628906 -8.394531 2.429688 -9.066406 2.429688 -9.871094 L 2.429688 -11.511719 C 2.429688 -11.464844 2.4375 -11.402344 2.460938 -11.324219 C 2.507812 -11.152344 2.59375 -10.992188 2.71875 -10.839844 C 2.878906 -10.652344 3.066406 -10.511719 3.292969 -10.421875 C 3.445312 -10.363281 3.59375 -10.332031 3.738281 -10.332031 L 1.386719 -10.332031 C 1.527344 -10.332031 1.671875 -10.359375 1.820312 -10.417969 C 2.042969 -10.503906 2.234375 -10.640625 2.394531 -10.828125 C 2.527344 -10.980469 2.621094 -11.148438 2.671875 -11.332031 C 2.699219 -11.417969 2.710938 -11.488281 2.710938 -11.550781 L 2.710938 -3.445312 C 2.710938 -2.886719 2.828125 -2.492188 3.0625 -2.253906 C 3.160156 -2.15625 3.277344 -2.082031 3.402344 -2.035156 C 3.570312 -1.972656 3.773438 -1.941406 4.015625 -1.941406 L 11.625 -1.941406 C 11.867188 -1.941406 12.070312 -1.96875 12.230469 -2.03125 C 12.355469 -2.078125 12.464844 -2.152344 12.566406 -2.253906 C 12.800781 -2.492188 12.917969 -2.886719 12.917969 -3.445312 Z M 12.917969 -3.445312 "/></g></g></g><g fill="#b0eef0" fill-opacity="1"><g transform="translate(132.349587, 163.166077)"><g/></g></g><g fill="#b0eef0" fill-opacity="1"><g transform="translate(132.349587, 163.166077)"><g/></g></g><g fill="#b0eef0" fill-opacity="1"><g transform="translate(132.349587, 163.166077)"><g/></g></g><g fill="#b0eef0" fill-opacity="1"><g transform="translate(138.077116, 163.166077)"><g/></g></g><g fill="#1f80ff" fill-opacity="1"><g transform="translate(56.041105, 144.425698)"><g><path d="M 11.90625 -0.84375 C 11.90625 -0.28125 11.640625 0 11.109375 0 L 8.96875 0 C 8.539062 0 8.328125 -0.296875 8.328125 -0.890625 L 8.328125 -5.8125 C 8.328125 -6.207031 8.191406 -6.5625 7.921875 -6.875 C 7.660156 -7.207031 7.316406 -7.375 6.890625 -7.375 C 6.691406 -7.375 6.503906 -7.332031 6.328125 -7.25 C 6.148438 -7.175781 5.992188 -7.066406 5.859375 -6.921875 C 5.734375 -6.773438 5.632812 -6.597656 5.5625 -6.390625 C 5.488281 -6.191406 5.453125 -5.976562 5.453125 -5.75 L 5.453125 -2.78125 C 5.453125 -0.925781 4.570312 0 2.8125 0 L 1.3125 0 C 0.78125 0 0.515625 -0.351562 0.515625 -1.0625 L 0.515625 -3.84375 C 0.515625 -4.4375 0.769531 -4.734375 1.28125 -4.734375 L 2.328125 -4.734375 C 2.722656 -4.734375 3.039062 -4.878906 3.28125 -5.171875 C 3.476562 -5.429688 3.578125 -5.722656 3.578125 -6.046875 C 3.578125 -6.378906 3.472656 -6.675781 3.265625 -6.9375 C 3.035156 -7.226562 2.722656 -7.375 2.328125 -7.375 L 1.953125 -7.375 C 1.554688 -7.375 1.304688 -7.460938 1.203125 -7.640625 C 1.117188 -7.753906 1.078125 -8.023438 1.078125 -8.453125 L 1.078125 -11.171875 C 1.078125 -11.898438 1.445312 -12.265625 2.1875 -12.265625 L 8.625 -12.265625 C 10.8125 -12.265625 11.90625 -11.140625 11.90625 -8.890625 Z M 11.90625 -0.84375 "/></g></g></g><g fill="#1f80ff" fill-opacity="1"><g transform="translate(68.713669, 144.425698)"><g><path d="M 10.921875 -8.71875 C 10.921875 -8.082031 10.65625 -7.644531 10.125 -7.40625 C 9.625 -7.164062 9.375 -6.726562 9.375 -6.09375 L 9.375 -0.75 C 9.375 -0.25 9.160156 0 8.734375 0 L 6.390625 0 C 5.984375 0 5.78125 -0.238281 5.78125 -0.71875 L 5.78125 -5.84375 C 5.78125 -6.3125 5.640625 -6.691406 5.359375 -6.984375 C 5.097656 -7.242188 4.8125 -7.375 4.5 -7.375 L 1.71875 -7.375 C 0.914062 -7.375 0.515625 -7.734375 0.515625 -8.453125 L 0.515625 -11.265625 C 0.515625 -11.390625 0.539062 -11.507812 0.59375 -11.625 C 0.65625 -11.75 0.734375 -11.859375 0.828125 -11.953125 C 0.929688 -12.054688 1.046875 -12.132812 1.171875 -12.1875 C 1.296875 -12.238281 1.429688 -12.265625 1.578125 -12.265625 L 10.0625 -12.265625 C 10.632812 -12.265625 10.921875 -11.882812 10.921875 -11.125 Z M 10.921875 -8.71875 "/></g></g></g><g fill="#1f80ff" fill-opacity="1"><g transform="translate(80.401711, 144.425698)"><g><path d="M 9.90625 -3.3125 C 9.90625 -1.101562 8.90625 0 6.90625 0 L 3.53125 0 C 2.945312 0 2.65625 -0.320312 2.65625 -0.96875 L 2.65625 -3.71875 C 2.65625 -4.382812 2.96875 -4.71875 3.59375 -4.71875 L 6.25 -4.703125 C 6.664062 -4.703125 7.007812 -4.835938 7.28125 -5.109375 C 7.53125 -5.359375 7.65625 -5.660156 7.65625 -6.015625 C 7.65625 -6.191406 7.617188 -6.363281 7.546875 -6.53125 C 7.484375 -6.695312 7.390625 -6.835938 7.265625 -6.953125 C 7.148438 -7.078125 7.003906 -7.175781 6.828125 -7.25 C 6.648438 -7.332031 6.457031 -7.375 6.25 -7.375 L 2.609375 -7.375 C 1.210938 -7.375 0.515625 -8.171875 0.515625 -9.765625 L 0.515625 -14.484375 C 0.515625 -15.015625 0.753906 -15.28125 1.234375 -15.28125 L 3.5 -15.28125 C 3.894531 -15.28125 4.09375 -14.988281 4.09375 -14.40625 L 4.09375 -13.21875 C 4.09375 -12.582031 4.332031 -12.265625 4.8125 -12.265625 L 7.421875 -12.265625 C 9.078125 -12.265625 9.90625 -11.378906 9.90625 -9.609375 Z M 9.90625 -3.3125 "/></g></g></g><g fill="#1f80ff" fill-opacity="1"><g transform="translate(91.079987, 144.425698)"><g><path d="M 5.78125 -0.75 C 5.78125 -0.25 5.570312 0 5.15625 0 L 2.796875 0 C 2.390625 0 2.1875 -0.238281 2.1875 -0.71875 L 2.1875 -5.828125 C 2.1875 -6.421875 1.976562 -6.816406 1.5625 -7.015625 C 1.03125 -7.253906 0.765625 -7.691406 0.765625 -8.328125 L 0.765625 -11 C 0.765625 -11.84375 1.140625 -12.265625 1.890625 -12.265625 L 4.140625 -12.265625 C 5.234375 -12.265625 5.78125 -11.703125 5.78125 -10.578125 Z M 5.78125 -0.75 "/></g></g></g><g fill="#1f80ff" fill-opacity="1"><g transform="translate(97.63085, 144.425698)"><g><path d="M 11.015625 -0.71875 C 11.015625 -0.238281 10.8125 0 10.40625 0 L 8.046875 0 C 7.617188 0 7.40625 -0.25 7.40625 -0.75 L 7.40625 -4.359375 C 7.40625 -4.910156 7.351562 -5.378906 7.25 -5.765625 C 7.15625 -6.148438 7 -6.460938 6.78125 -6.703125 C 6.5625 -6.941406 6.28125 -7.113281 5.9375 -7.21875 C 5.59375 -7.332031 5.175781 -7.390625 4.6875 -7.390625 L 1.78125 -7.390625 C 1.101562 -7.390625 0.765625 -7.734375 0.765625 -8.421875 L 0.765625 -11.34375 C 0.765625 -11.613281 0.882812 -11.84375 1.125 -12.03125 C 1.332031 -12.1875 1.582031 -12.265625 1.875 -12.265625 L 8.046875 -12.265625 C 10.023438 -12.265625 11.015625 -11.269531 11.015625 -9.28125 Z M 4.390625 -0.71875 C 4.390625 -0.238281 4.1875 0 3.78125 0 L 1.421875 0 C 0.984375 0 0.765625 -0.25 0.765625 -0.75 L 0.765625 -5 C 0.765625 -5.5 0.984375 -5.75 1.421875 -5.75 L 3.78125 -5.75 C 4.1875 -5.75 4.390625 -5.46875 4.390625 -4.90625 Z M 4.390625 -0.71875 "/></g></g></g><g fill="#1f80ff" fill-opacity="1"><g transform="translate(109.407252, 144.425698)"><g><path d="M 11.015625 -0.71875 C 11.015625 -0.238281 10.8125 0 10.40625 0 L 8.046875 0 C 7.617188 0 7.40625 -0.25 7.40625 -0.75 L 7.40625 -4.359375 C 7.40625 -4.910156 7.351562 -5.378906 7.25 -5.765625 C 7.15625 -6.148438 7 -6.460938 6.78125 -6.703125 C 6.5625 -6.941406 6.28125 -7.113281 5.9375 -7.21875 C 5.59375 -7.332031 5.175781 -7.390625 4.6875 -7.390625 L 1.78125 -7.390625 C 1.101562 -7.390625 0.765625 -7.734375 0.765625 -8.421875 L 0.765625 -11.34375 C 0.765625 -11.613281 0.882812 -11.84375 1.125 -12.03125 C 1.332031 -12.1875 1.582031 -12.265625 1.875 -12.265625 L 8.046875 -12.265625 C 10.023438 -12.265625 11.015625 -11.269531 11.015625 -9.28125 Z M 4.390625 -0.71875 C 4.390625 -0.238281 4.1875 0 3.78125 0 L 1.421875 0 C 0.984375 0 0.765625 -0.25 0.765625 -0.75 L 0.765625 -5 C 0.765625 -5.5 0.984375 -5.75 1.421875 -5.75 L 3.78125 -5.75 C 4.1875 -5.75 4.390625 -5.46875 4.390625 -4.90625 Z M 4.390625 -0.71875 "/></g></g></g><g fill="#1f80ff" fill-opacity="1"><g transform="translate(121.183654, 144.425698)"><g/></g></g><g fill="#1f80ff" fill-opacity="1"><g transform="translate(126.90146, 144.425698)"><g><path d="M 11.859375 -1.765625 C 11.859375 -0.585938 11.300781 0 10.1875 0 L 2.421875 0 C 1.316406 0 0.765625 -0.585938 0.765625 -1.765625 L 0.765625 -10.5 C 0.765625 -11.675781 1.316406 -12.265625 2.421875 -12.265625 L 10.1875 -12.265625 C 11.300781 -12.265625 11.859375 -11.675781 11.859375 -10.5 Z M 9.1875 -6.140625 C 9.144531 -6.972656 8.691406 -7.390625 7.828125 -7.390625 L 4.796875 -7.390625 C 3.921875 -7.390625 3.46875 -6.972656 3.4375 -6.140625 C 3.425781 -5.753906 3.535156 -5.429688 3.765625 -5.171875 C 4.035156 -4.867188 4.378906 -4.71875 4.796875 -4.71875 L 7.828125 -4.71875 C 8.242188 -4.71875 8.585938 -4.867188 8.859375 -5.171875 C 9.085938 -5.429688 9.195312 -5.753906 9.1875 -6.140625 Z M 9.1875 -6.140625 "/></g></g></g><g fill="#1f80ff" fill-opacity="1"><g transform="translate(139.523536, 144.425698)"><g><path d="M 5.78125 -0.75 C 5.78125 -0.25 5.570312 0 5.15625 0 L 2.796875 0 C 2.390625 0 2.1875 -0.238281 2.1875 -0.71875 L 2.1875 -5.828125 C 2.1875 -6.421875 1.976562 -6.816406 1.5625 -7.015625 C 1.03125 -7.253906 0.765625 -7.691406 0.765625 -8.328125 L 0.765625 -11 C 0.765625 -11.84375 1.140625 -12.265625 1.890625 -12.265625 L 4.140625 -12.265625 C 5.234375 -12.265625 5.78125 -11.703125 5.78125 -10.578125 Z M 5.78125 -0.75 "/></g></g></g><g fill="#1f80ff" fill-opacity="1"><g transform="translate(146.074399, 144.425698)"><g><path d="M 5.78125 -5.46875 C 5.78125 -4.957031 5.570312 -4.703125 5.15625 -4.703125 L 2.796875 -4.703125 C 2.390625 -4.703125 2.1875 -4.941406 2.1875 -5.421875 L 2.1875 -5.828125 C 2.1875 -6.421875 1.976562 -6.816406 1.5625 -7.015625 C 1.03125 -7.253906 0.765625 -7.691406 0.765625 -8.328125 L 0.765625 -11 C 0.765625 -11.84375 1.140625 -12.265625 1.890625 -12.265625 L 4.140625 -12.265625 C 5.234375 -12.265625 5.78125 -11.703125 5.78125 -10.578125 Z M 5.78125 -5.46875 "/></g></g></g><g fill="#1f80ff" fill-opacity="1"><g transform="translate(152.636048, 144.425698)"><g/></g></g><g fill="#1f80ff" fill-opacity="1"><g transform="translate(70.588324, 163.166077)"><g/></g></g><g fill="#1f80ff" fill-opacity="1"><g transform="translate(76.315853, 163.166077)"><g><path d="M 5.78125 1.59375 C 5.78125 2.09375 5.570312 2.34375 5.15625 2.34375 L 2.796875 2.34375 C 2.390625 2.34375 2.1875 2.101562 2.1875 1.625 L 2.1875 -5.828125 C 2.1875 -6.421875 1.976562 -6.816406 1.5625 -7.015625 C 1.03125 -7.253906 0.765625 -7.691406 0.765625 -8.328125 L 0.765625 -11 C 0.765625 -11.84375 1.140625 -12.265625 1.890625 -12.265625 L 4.140625 -12.265625 C 5.234375 -12.265625 5.78125 -11.703125 5.78125 -10.578125 Z M 5.78125 1.59375 "/></g></g></g><g fill="#1f80ff" fill-opacity="1"><g transform="translate(82.866716, 163.166077)"><g><path d="M 5.78125 -0.75 C 5.78125 -0.25 5.570312 0 5.15625 0 L 2.796875 0 C 2.390625 0 2.1875 -0.238281 2.1875 -0.71875 L 2.1875 -5.828125 C 2.1875 -6.421875 1.976562 -6.816406 1.5625 -7.015625 C 1.03125 -7.253906 0.765625 -7.691406 0.765625 -8.328125 L 0.765625 -11 C 0.765625 -11.84375 1.140625 -12.265625 1.890625 -12.265625 L 4.140625 -12.265625 C 5.234375 -12.265625 5.78125 -11.703125 5.78125 -10.578125 Z M 5.78125 -0.75 "/></g></g></g><g fill="#1f80ff" fill-opacity="1"><g transform="translate(89.417579, 163.166077)"><g><path d="M 10.109375 -0.71875 C 10.109375 -0.238281 9.910156 0 9.515625 0 L 7.15625 0 C 6.726562 0 6.515625 -0.25 6.515625 -0.75 L 6.515625 -4.359375 C 6.515625 -5.453125 6.304688 -6.226562 5.890625 -6.6875 C 5.472656 -7.15625 4.769531 -7.390625 3.78125 -7.390625 L 1.78125 -7.390625 C 1.101562 -7.390625 0.765625 -7.734375 0.765625 -8.421875 L 0.765625 -11.34375 C 0.765625 -11.613281 0.882812 -11.84375 1.125 -12.03125 C 1.332031 -12.1875 1.582031 -12.265625 1.875 -12.265625 L 7.15625 -12.265625 C 9.125 -12.265625 10.109375 -11.269531 10.109375 -9.28125 Z M 10.109375 -0.71875 "/></g></g></g><g fill="#1f80ff" fill-opacity="1"><g transform="translate(100.310436, 163.166077)"><g/></g></g><g fill="#1f80ff" fill-opacity="1"><g transform="translate(106.028242, 163.166077)"><g><path d="M 9.90625 -3.3125 C 9.90625 -1.101562 8.90625 0 6.90625 0 L 3.53125 0 C 2.945312 0 2.65625 -0.320312 2.65625 -0.96875 L 2.65625 -3.71875 C 2.65625 -4.382812 2.96875 -4.71875 3.59375 -4.71875 L 6.25 -4.703125 C 6.664062 -4.703125 7.007812 -4.835938 7.28125 -5.109375 C 7.53125 -5.359375 7.65625 -5.660156 7.65625 -6.015625 C 7.65625 -6.191406 7.617188 -6.363281 7.546875 -6.53125 C 7.484375 -6.695312 7.390625 -6.835938 7.265625 -6.953125 C 7.148438 -7.078125 7.003906 -7.175781 6.828125 -7.25 C 6.648438 -7.332031 6.457031 -7.375 6.25 -7.375 L 2.609375 -7.375 C 1.210938 -7.375 0.515625 -8.171875 0.515625 -9.765625 L 0.515625 -14.484375 C 0.515625 -15.015625 0.753906 -15.28125 1.234375 -15.28125 L 3.5 -15.28125 C 3.894531 -15.28125 4.09375 -14.988281 4.09375 -14.40625 L 4.09375 -13.21875 C 4.09375 -12.582031 4.332031 -12.265625 4.8125 -12.265625 L 7.421875 -12.265625 C 9.078125 -12.265625 9.90625 -11.378906 9.90625 -9.609375 Z M 9.90625 -3.3125 "/></g></g></g><g fill="#1f80ff" fill-opacity="1"><g transform="translate(116.706518, 163.166077)"><g><path d="M 14.859375 -3.453125 C 14.859375 -2.359375 14.550781 -1.503906 13.9375 -0.890625 C 13.351562 -0.296875 12.582031 0 11.625 0 L 4.015625 0 C 3.054688 0 2.28125 -0.296875 1.6875 -0.890625 C 1.070312 -1.503906 0.765625 -2.359375 0.765625 -3.453125 L 0.765625 -11.546875 C 0.765625 -12.023438 0.972656 -12.265625 1.390625 -12.265625 L 3.734375 -12.265625 C 4.160156 -12.265625 4.375 -12.015625 4.375 -11.515625 L 4.375 -9.875 C 4.375 -9.125 4.65625 -8.75 5.21875 -8.75 C 5.800781 -8.75 6.09375 -9.128906 6.09375 -9.890625 L 6.09375 -11.421875 C 6.09375 -11.984375 6.351562 -12.265625 6.875 -12.265625 L 8.796875 -12.265625 C 9.304688 -12.265625 9.5625 -11.972656 9.5625 -11.390625 L 9.5625 -8.515625 C 9.5625 -7.753906 9.1875 -7.375 8.4375 -7.375 L 4.265625 -7.375 C 3.941406 -7.375 3.648438 -7.273438 3.390625 -7.078125 C 3.109375 -6.859375 2.96875 -6.550781 2.96875 -6.15625 C 2.96875 -5.757812 3.117188 -5.441406 3.421875 -5.203125 C 3.660156 -4.992188 3.941406 -4.890625 4.265625 -4.890625 L 9.3125 -4.890625 C 10.019531 -4.890625 10.523438 -5.082031 10.828125 -5.46875 C 11.117188 -5.832031 11.265625 -6.429688 11.265625 -7.265625 L 11.265625 -11.515625 C 11.265625 -12.015625 11.476562 -12.265625 11.90625 -12.265625 L 14.25 -12.265625 C 14.65625 -12.265625 14.859375 -12.023438 14.859375 -11.546875 Z M 14.859375 -3.453125 "/></g></g></g><g fill="#1f80ff" fill-opacity="1"><g transform="translate(132.349587, 163.166077)"><g/></g></g><g fill="#1f80ff" fill-opacity="1"><g transform="translate(132.349587, 163.166077)"><g/></g></g><g fill="#1f80ff" fill-opacity="1"><g transform="translate(132.349587, 163.166077)"><g/></g></g><g fill="#1f80ff" fill-opacity="1"><g transform="translate(138.077116, 163.166077)"><g/></g></g></g></g></svg>