<svg xmlns="http://www.w3.org/2000/svg" width="200" height="200" viewBox="0 0 200 200" version="1.0"><title>דוגרי — פיון 3</title><defs><clipPath id="pawn"><path d="M100 26c-12.7 0-23 10.3-23 23 0 7.2 3.3 13.6 8.5 17.8-6.4 4.6-10.6 12.1-10.6 20.6 0 9.6 5.3 18 13.2 22.3-4.9 15.8-14.7 29.4-28.3 39.4-3.2 2.4-5 6.2-5 10.2v11.9c0 3.3 2.7 6 6 6h78.4c3.3 0 6-2.7 6-6v-11.9c0-4-1.8-7.8-5-10.2-13.6-10-23.4-23.6-28.3-39.4 7.9-4.3 13.2-12.7 13.2-22.3 0-8.5-4.2-16-10.6-20.65.2-4.2 8.5-10.6 8.5-17.8 0-12.7-10.3-23-23-23z"/></clipPath></defs><g transform="translate(100 171) scale(1.05) translate(-100 -177.2)"><path d="M100 26c-12.7 0-23 10.3-23 23 0 7.2 3.3 13.6 8.5 17.8-6.4 4.6-10.6 12.1-10.6 20.6 0 9.6 5.3 18 13.2 22.3-4.9 15.8-14.7 29.4-28.3 39.4-3.2 2.4-5 6.2-5 10.2v11.9c0 3.3 2.7 6 6 6h78.4c3.3 0 6-2.7 6-6v-11.9c0-4-1.8-7.8-5-10.2-13.6-10-23.4-23.6-28.3-39.4 7.9-4.3 13.2-12.7 13.2-22.3 0-8.5-4.2-16-10.6-20.65.2-4.2 8.5-10.6 8.5-17.8 0-12.7-10.3-23-23-23z" fill="#111111"/><g clip-path="url(#pawn)" fill="#ffffff"><rect x="30" y="50" width="140" height="13"/><rect x="30" y="88" width="140" height="13"/><rect x="30" y="126" width="140" height="13"/></g><path d="M100 26c-12.7 0-23 10.3-23 23 0 7.2 3.3 13.6 8.5 17.8-6.4 4.6-10.6 12.1-10.6 20.6 0 9.6 5.3 18 13.2 22.3-4.9 15.8-14.7 29.4-28.3 39.4-3.2 2.4-5 6.2-5 10.2v11.9c0 3.3 2.7 6 6 6h78.4c3.3 0 6-2.7 6-6v-11.9c0-4-1.8-7.8-5-10.2-13.6-10-23.4-23.6-28.3-39.4 7.9-4.3 13.2-12.7 13.2-22.3 0-8.5-4.2-16-10.6-20.65.2-4.2 8.5-10.6 8.5-17.8 0-12.7-10.3-23-23-23z" fill="none" stroke="#111111" stroke-width="6" stroke-linejoin="round"/></g></svg>
